<svg version="1.1" xmlns="http://www.w3.org/2000/svg" xmlns:xlink="http://www.w3.org/1999/xlink" stroke-linecap="round" stroke-linejoin="round" stroke-width="0" fill-rule="evenodd" clip-rule="evenodd" id="jpopY6qo-KyX_bottom" viewBox="96520 -78740 48260 35560" width="48.26mm" height="35.56mm"><defs><style>.jpopY6qo-KyX_fr4 {color: #666666;}
.jpopY6qo-KyX_cu {color: #cccccc;}
.jpopY6qo-KyX_cf {color: #cc9933;}
.jpopY6qo-KyX_sm {color: #ff0000; opacity: 0.75;}
.jpopY6qo-KyX_ss {color: #ffffff;}
.jpopY6qo-KyX_sp {color: #999999;}
.jpopY6qo-KyX_out {color: #000000;}</style><g id="m3W8SH8_fms__pad-11"><polygon points="-550,-550 550,-550 550,550 -550,550"/><circle cx="-550" cy="-550" r="250"/><circle cx="550" cy="-550" r="250"/><circle cx="550" cy="550" r="250"/><circle cx="-550" cy="550" r="250"/><polygon points="-550,-800 550,-800 550,-300 -550,-300"/><polygon points="800,-550 800,550 300,550 300,-550"/><polygon points="550,300 -550,300 -550,800 550,800"/><polygon points="-300,550 -300,-550 -800,-550 -800,550"/></g><g id="m3W8SH8_fms__pad-12"><polygon points="-845,620 -845,-620 845,-620 845,620"/><circle cx="-845" cy="620" r="250"/><circle cx="-845" cy="-620" r="250"/><circle cx="845" cy="-620" r="250"/><circle cx="845" cy="620" r="250"/><polygon points="-595,620 -595,-620 -1095,-620 -1095,620"/><polygon points="-845,-870 845,-870 845,-370 -845,-370"/><polygon points="1095,-620 1095,620 595,620 595,-620"/><polygon points="845,370 -845,370 -845,870 845,870"/></g><rect x="-1095" y="-870" width="2190" height="1740" rx="870" ry="870" id="m3W8SH8_fms__pad-13"/><g id="WYn3-8DPLtjv_pad-10"><polygon points="-550,-550 550,-550 550,550 -550,550"/><circle cx="-550" cy="-550" r="250"/><circle cx="550" cy="-550" r="250"/><circle cx="550" cy="550" r="250"/><circle cx="-550" cy="550" r="250"/><polygon points="-550,-800 550,-800 550,-300 -550,-300"/><polygon points="800,-550 800,550 300,550 300,-550"/><polygon points="550,300 -550,300 -550,800 550,800"/><polygon points="-300,550 -300,-550 -800,-550 -800,550"/></g><g id="WYn3-8DPLtjv_pad-11"><polygon points="-845,620 -845,-620 845,-620 845,620"/><circle cx="-845" cy="620" r="250"/><circle cx="-845" cy="-620" r="250"/><circle cx="845" cy="-620" r="250"/><circle cx="845" cy="620" r="250"/><polygon points="-595,620 -595,-620 -1095,-620 -1095,620"/><polygon points="-845,-870 845,-870 845,-370 -845,-370"/><polygon points="1095,-620 1095,620 595,620 595,-620"/><polygon points="845,370 -845,370 -845,870 845,870"/></g><rect x="-1095" y="-870" width="2190" height="1740" rx="870" ry="870" id="WYn3-8DPLtjv_pad-12"/><circle cx="0" cy="0" r="11.8" id="OLJ2xQpF1JBF_pad-1"/><circle cx="0" cy="0" r="23.45" id="OLJ2xQpF1JBF_pad-2"/><g id="jpopY6qo-KyX_bottom_copper"><path d="M 96520 -43180 144780 -43180 144780 -78740 96520 -78740 96520 -43180" fill="none" stroke-width="200"/><use xlink:href="#m3W8SH8_fms__pad-11" x="111760" y="-50800"/><use xlink:href="#m3W8SH8_fms__pad-11" x="111760" y="-76200"/><use xlink:href="#m3W8SH8_fms__pad-11" x="111760" y="-71120"/><use xlink:href="#m3W8SH8_fms__pad-12" x="127000" y="-71120"/><use xlink:href="#m3W8SH8_fms__pad-13" x="127000" y="-73660"/><use xlink:href="#m3W8SH8_fms__pad-12" x="127000" y="-48260"/><use xlink:href="#m3W8SH8_fms__pad-13" x="127000" y="-50800"/><use xlink:href="#m3W8SH8_fms__pad-11" x="111760" y="-45720"/><path d="M 111760 -45720 124460 -45720 127000 -48260 M 111760 -50800 127000 -50800 M 111760 -71120 127000 -71120 M 111760 -76200 114300 -73660 127000 -73660" fill="none" stroke-width="1000"/></g><g id="jpopY6qo-KyX_bottom_soldermask"><use xlink:href="#WYn3-8DPLtjv_pad-10" x="111760" y="-50800"/><use xlink:href="#WYn3-8DPLtjv_pad-10" x="111760" y="-76200"/><use xlink:href="#WYn3-8DPLtjv_pad-10" x="111760" y="-71120"/><use xlink:href="#WYn3-8DPLtjv_pad-11" x="127000" y="-71120"/><use xlink:href="#WYn3-8DPLtjv_pad-12" x="127000" y="-73660"/><use xlink:href="#WYn3-8DPLtjv_pad-11" x="127000" y="-48260"/><use xlink:href="#WYn3-8DPLtjv_pad-12" x="127000" y="-50800"/><use xlink:href="#WYn3-8DPLtjv_pad-10" x="111760" y="-45720"/></g><g id="jpopY6qo-KyX_bottom_silkscreen"><path d="M 126129.714 -55281.431 125379.714 -55281.431 M 126129.714 -55602.86 125736.857 -55602.86 125665.428 -55567.145 125629.714 -55495.717 125629.714 -55388.574 125665.428 -55317.145 125701.142 -55281.431 M 125629.714 -55852.859 125629.714 -56138.573 M 125379.714 -55960.002 126022.571 -55960.002 126094 -55995.716 126129.714 -56067.145 126129.714 -56138.573 M 125629.714 -56281.43 125629.714 -56567.144 M 125379.714 -56388.573 126022.571 -56388.573 126094 -56424.287 126129.714 -56495.716 126129.714 -56567.144 M 125629.714 -56817.144 126379.714 -56817.144 M 125665.428 -56817.144 125629.714 -56888.573 125629.714 -57031.43 125665.428 -57102.858 125701.142 -57138.573 125772.571 -57174.287 125986.857 -57174.287 126058.285 -57138.573 126094 -57102.858 126129.714 -57031.43 126129.714 -56888.573 126094 -56817.144 M 126094 -57460.001 126129.714 -57531.429 126129.714 -57674.286 126094 -57745.715 126022.571 -57781.429 125986.857 -57781.429 125915.428 -57745.715 125879.714 -57674.286 125879.714 -57567.144 125844 -57495.715 125772.571 -57460.001 125736.857 -57460.001 125665.428 -57495.715 125629.714 -57567.144 125629.714 -57674.286 125665.428 -57745.715 M 126058.285 -58102.858 126094 -58138.572 126129.714 -58102.858 126094 -58067.144 126058.285 -58102.858 126129.714 -58102.858 M 125665.428 -58102.858 125701.142 -58138.572 125736.857 -58102.858 125701.142 -58067.144 125665.428 -58102.858 125736.857 -58102.858 M 125344 -58995.715 126308.285 -58352.858 M 125344 -59781.429 126308.285 -59138.572 M 125629.714 -60352.858 126236.857 -60352.858 126308.285 -60317.143 126344 -60281.429 126379.714 -60210 126379.714 -60102.858 126344 -60031.429 M 126094 -60352.858 126129.714 -60281.429 126129.714 -60138.572 126094 -60067.143 126058.285 -60031.429 125986.857 -59995.715 125772.571 -59995.715 125701.142 -60031.429 125665.428 -60067.143 125629.714 -60138.572 125629.714 -60281.429 125665.428 -60352.858 M 126129.714 -60710 125629.714 -60710 M 125379.714 -60710 125415.428 -60674.286 125451.142 -60710 125415.428 -60745.714 125379.714 -60710 125451.142 -60710 M 125629.714 -60960 125629.714 -61245.714 M 125379.714 -61067.143 126022.571 -61067.143 126094 -61102.857 126129.714 -61174.286 126129.714 -61245.714 M 126129.714 -61495.714 125379.714 -61495.714 M 126129.714 -61817.143 125736.857 -61817.143 125665.428 -61781.428 125629.714 -61710 125629.714 -61602.857 125665.428 -61531.428 125701.142 -61495.714 M 125629.714 -62495.714 126129.714 -62495.714 M 125629.714 -62174.285 126022.571 -62174.285 126094 -62209.999 126129.714 -62281.428 126129.714 -62388.571 126094 -62459.999 126058.285 -62495.714 M 126129.714 -62852.856 125379.714 -62852.856 M 125665.428 -62852.856 125629.714 -62924.285 125629.714 -63067.142 125665.428 -63138.57 125701.142 -63174.285 125772.571 -63209.999 125986.857 -63209.999 126058.285 -63174.285 126094 -63138.57 126129.714 -63067.142 126129.714 -62924.285 126094 -62852.856 M 126058.285 -63531.427 126094 -63567.141 126129.714 -63531.427 126094 -63495.713 126058.285 -63531.427 126129.714 -63531.427 M 126094 -64209.999 126129.714 -64138.57 126129.714 -63995.713 126094 -63924.284 126058.285 -63888.57 125986.857 -63852.856 125772.571 -63852.856 125701.142 -63888.57 125665.428 -63924.284 125629.714 -63995.713 125629.714 -64138.57 125665.428 -64209.999 M 126129.714 -64638.57 126094 -64567.141 126058.285 -64531.427 125986.857 -64495.713 125772.571 -64495.713 125701.142 -64531.427 125665.428 -64567.141 125629.714 -64638.57 125629.714 -64745.713 125665.428 -64817.141 125701.142 -64852.856 125772.571 -64888.57 125986.857 -64888.57 126058.285 -64852.856 126094 -64817.141 126129.714 -64745.713 126129.714 -64638.57 M 126129.714 -65209.998 125629.714 -65209.998 M 125701.142 -65209.998 125665.428 -65245.712 125629.714 -65317.141 125629.714 -65424.284 125665.428 -65495.712 125736.857 -65531.427 126129.714 -65531.427 M 125736.857 -65531.427 125665.428 -65567.141 125629.714 -65638.569 125629.714 -65745.712 125665.428 -65817.141 125736.857 -65852.855 126129.714 -65852.855 M 125344 -66745.712 126308.285 -66102.855 M 126837.214 -53495.717 127337.214 -53495.717 M 126837.214 -53174.288 127230.071 -53174.288 127301.5 -53210.002 127337.214 -53281.431 127337.214 -53388.574 127301.5 -53460.002 127265.785 -53495.717 M 126837.214 -53781.43 127337.214 -53924.288 126980.071 -54067.145 127337.214 -54210.002 126837.214 -54352.859 M 127051.5 -54638.573 127051.5 -55210.002 M 127337.214 -55567.144 126837.214 -55567.144 M 126908.642 -55567.144 126872.928 -55602.858 126837.214 -55674.287 126837.214 -55781.43 126872.928 -55852.858 126944.357 -55888.573 127337.214 -55888.573 M 126944.357 -55888.573 126872.928 -55924.287 126837.214 -55995.715 126837.214 -56102.858 126872.928 -56174.287 126944.357 -56210.001 127337.214 -56210.001 M 127337.214 -56888.573 126944.357 -56888.573 126872.928 -56852.858 126837.214 -56781.43 126837.214 -56638.573 126872.928 -56567.144 M 127301.5 -56888.573 127337.214 -56817.144 127337.214 -56638.573 127301.5 -56567.144 127230.071 -56531.43 127158.642 -56531.43 127087.214 -56567.144 127051.5 -56638.573 127051.5 -56817.144 127015.785 -56888.573 M 127337.214 -57567.144 126587.214 -57567.144 M 127301.5 -57567.144 127337.214 -57495.715 127337.214 -57352.858 127301.5 -57281.429 127265.785 -57245.715 127194.357 -57210.001 126980.071 -57210.001 126908.642 -57245.715 126872.928 -57281.429 126837.214 -57352.858 126837.214 -57495.715 126872.928 -57567.144 M 127337.214 -57924.286 126837.214 -57924.286 M 126587.214 -57924.286 126622.928 -57888.572 126658.642 -57924.286 126622.928 -57960 126587.214 -57924.286 126658.642 -57924.286 M 127301.5 -58245.715 127337.214 -58317.143 127337.214 -58460 127301.5 -58531.429 127230.071 -58567.143 127194.357 -58567.143 127122.928 -58531.429 127087.214 -58460 127087.214 -58352.858 127051.5 -58281.429 126980.071 -58245.715 126944.357 -58245.715 126872.928 -58281.429 126837.214 -58352.858 126837.214 -58460 126872.928 -58531.429 M 127337.214 -58995.715 127301.5 -58924.286 127265.785 -58888.572 127194.357 -58852.858 126980.071 -58852.858 126908.642 -58888.572 126872.928 -58924.286 126837.214 -58995.715 126837.214 -59102.858 126872.928 -59174.286 126908.642 -59210.001 126980.071 -59245.715 127194.357 -59245.715 127265.785 -59210.001 127301.5 -59174.286 127337.214 -59102.858 127337.214 -58995.715 M 126837.214 -59567.143 127337.214 -59567.143 M 126908.642 -59567.143 126872.928 -59602.857 126837.214 -59674.286 126837.214 -59781.429 126872.928 -59852.857 126944.357 -59888.572 127337.214 -59888.572 M 127051.5 -60245.714 127051.5 -60817.143 M 127301.5 -61495.714 127337.214 -61424.285 127337.214 -61281.428 127301.5 -61209.999 127265.785 -61174.285 127194.357 -61138.571 126980.071 -61138.571 126908.642 -61174.285 126872.928 -61209.999 126837.214 -61281.428 126837.214 -61424.285 126872.928 -61495.714 M 127337.214 -61817.142 126587.214 -61817.142 M 127337.214 -62138.571 126944.357 -62138.571 126872.928 -62102.856 126837.214 -62031.428 126837.214 -61924.285 126872.928 -61852.856 126908.642 -61817.142 M 127301.5 -62781.427 127337.214 -62709.999 127337.214 -62567.142 127301.5 -62495.713 127230.071 -62459.999 126944.357 -62459.999 126872.928 -62495.713 126837.214 -62567.142 126837.214 -62709.999 126872.928 -62781.427 126944.357 -62817.142 127015.785 -62817.142 127087.214 -62459.999 M 127337.214 -63138.57 126837.214 -63138.57 M 126908.642 -63138.57 126872.928 -63174.284 126837.214 -63245.713 126837.214 -63352.856 126872.928 -63424.284 126944.357 -63459.999 127337.214 -63459.999 M 126944.357 -63459.999 126872.928 -63495.713 126837.214 -63567.141 126837.214 -63674.284 126872.928 -63745.713 126944.357 -63781.427 127337.214 -63781.427 M 127051.5 -64138.57 127051.5 -64709.999 M 127301.5 -65031.427 127337.214 -65102.855 127337.214 -65245.712 127301.5 -65317.141 127230.071 -65352.855 127194.357 -65352.855 127122.928 -65317.141 127087.214 -65245.712 127087.214 -65138.57 127051.5 -65067.141 126980.071 -65031.427 126944.357 -65031.427 126872.928 -65067.141 126837.214 -65138.57 126837.214 -65245.712 126872.928 -65317.141 M 127337.214 -65674.284 126587.214 -65674.284 M 127337.214 -65995.713 126944.357 -65995.713 126872.928 -65959.998 126837.214 -65888.57 126837.214 -65781.427 126872.928 -65709.998 126908.642 -65674.284 M 127337.214 -66459.998 127301.5 -66388.569 127265.785 -66352.855 127194.357 -66317.141 126980.071 -66317.141 126908.642 -66352.855 126872.928 -66388.569 126837.214 -66459.998 126837.214 -66567.141 126872.928 -66638.569 126908.642 -66674.284 126980.071 -66709.998 127194.357 -66709.998 127265.785 -66674.284 127301.5 -66638.569 127337.214 -66567.141 127337.214 -66459.998 M 126837.214 -67031.426 127587.214 -67031.426 M 126872.928 -67031.426 126837.214 -67102.855 126837.214 -67245.712 126872.928 -67317.14 126908.642 -67352.855 126980.071 -67388.569 127194.357 -67388.569 127265.785 -67352.855 127301.5 -67317.14 127337.214 -67245.712 127337.214 -67102.855 127301.5 -67031.426 M 127301.5 -67674.283 127337.214 -67745.711 127337.214 -67888.568 127301.5 -67959.997 127230.071 -67995.711 127194.357 -67995.711 127122.928 -67959.997 127087.214 -67888.568 127087.214 -67781.426 127051.5 -67709.997 126980.071 -67674.283 126944.357 -67674.283 126872.928 -67709.997 126837.214 -67781.426 126837.214 -67888.568 126872.928 -67959.997 M 126551.5 -68852.854 127515.785 -68209.997 M 128044.714 -55031.431 128651.857 -55031.431 128723.285 -54995.716 128759 -54960.002 128794.714 -54888.573 128794.714 -54781.431 128759 -54710.002 M 128509 -55031.431 128544.714 -54960.002 128544.714 -54817.145 128509 -54745.716 128473.285 -54710.002 128401.857 -54674.288 128187.571 -54674.288 128116.142 -54710.002 128080.428 -54745.716 128044.714 -54817.145 128044.714 -54960.002 128080.428 -55031.431 M 128544.714 -55495.716 128509 -55424.287 128473.285 -55388.573 128401.857 -55352.859 128187.571 -55352.859 128116.142 -55388.573 128080.428 -55424.287 128044.714 -55495.716 128044.714 -55602.859 128080.428 -55674.287 128116.142 -55710.002 128187.571 -55745.716 128401.857 -55745.716 128473.285 -55710.002 128509 -55674.287 128544.714 -55602.859 128544.714 -55495.716 M 128544.714 -56174.287 128509 -56102.858 128437.571 -56067.144 127794.714 -56067.144 M 128544.714 -56781.43 127794.714 -56781.43 M 128509 -56781.43 128544.714 -56710.001 128544.714 -56567.144 128509 -56495.715 128473.285 -56460.001 128401.857 -56424.287 128187.571 -56424.287 128116.142 -56460.001 128080.428 -56495.715 128044.714 -56567.144 128044.714 -56710.001 128080.428 -56781.43 M 128509 -57102.858 128544.714 -57174.286 128544.714 -57317.143 128509 -57388.572 128437.571 -57424.286 128401.857 -57424.286 128330.428 -57388.572 128294.714 -57317.143 128294.714 -57210.001 128259 -57138.572 128187.571 -57102.858 128151.857 -57102.858 128080.428 -57138.572 128044.714 -57210.001 128044.714 -57317.143 128080.428 -57388.572 M 128544.714 -57745.715 128044.714 -57745.715 M 128116.142 -57745.715 128080.428 -57781.429 128044.714 -57852.858 128044.714 -57960.001 128080.428 -58031.429 128151.857 -58067.144 128544.714 -58067.144 M 128151.857 -58067.144 128080.428 -58102.858 128044.714 -58174.286 128044.714 -58281.429 128080.428 -58352.858 128151.857 -58388.572 128544.714 -58388.572 M 128544.714 -58745.715 128044.714 -58745.715 M 127794.714 -58745.715 127830.428 -58710.001 127866.142 -58745.715 127830.428 -58781.429 127794.714 -58745.715 127866.142 -58745.715 M 128044.714 -58995.715 128044.714 -59281.429 M 127794.714 -59102.858 128437.571 -59102.858 128509 -59138.572 128544.714 -59210.001 128544.714 -59281.429 M 128544.714 -59531.429 127794.714 -59531.429 M 128544.714 -59852.858 128151.857 -59852.858 128080.428 -59817.143 128044.714 -59745.715 128044.714 -59638.572 128080.428 -59567.143 128116.142 -59531.429 M 128259 -60210 128259 -60781.429 M 128544.714 -61138.571 127794.714 -61138.571 M 128080.428 -61138.571 128044.714 -61210 128044.714 -61352.857 128080.428 -61424.285 128116.142 -61460 128187.571 -61495.714 128401.857 -61495.714 128473.285 -61460 128509 -61424.285 128544.714 -61352.857 128544.714 -61210 128509 -61138.571 M 128544.714 -61817.142 128044.714 -61817.142 M 128187.571 -61817.142 128116.142 -61852.856 128080.428 -61888.571 128044.714 -61959.999 128044.714 -62031.428 M 128544.714 -62281.428 128044.714 -62281.428 M 127794.714 -62281.428 127830.428 -62245.714 127866.142 -62281.428 127830.428 -62317.142 127794.714 -62281.428 127866.142 -62281.428 M 128544.714 -62960 127794.714 -62960 M 128509 -62960 128544.714 -62888.571 128544.714 -62745.714 128509 -62674.285 128473.285 -62638.571 128401.857 -62602.857 128187.571 -62602.857 128116.142 -62638.571 128080.428 -62674.285 128044.714 -62745.714 128044.714 -62888.571 128080.428 -62960 M 128044.714 -63638.571 128651.857 -63638.571 128723.285 -63602.856 128759 -63567.142 128794.714 -63495.713 128794.714 -63388.571 128759 -63317.142 M 128509 -63638.571 128544.714 -63567.142 128544.714 -63424.285 128509 -63352.856 128473.285 -63317.142 128401.857 -63281.428 128187.571 -63281.428 128116.142 -63317.142 128080.428 -63352.856 128044.714 -63424.285 128044.714 -63567.142 128080.428 -63638.571 M 128509 -64281.427 128544.714 -64209.999 128544.714 -64067.142 128509 -63995.713 128437.571 -63959.999 128151.857 -63959.999 128080.428 -63995.713 128044.714 -64067.142 128044.714 -64209.999 128080.428 -64281.427 128151.857 -64317.142 128223.285 -64317.142 128294.714 -63959.999 M 128259 -64638.57 128259 -65209.999 M 128044.714 -65567.141 128794.714 -65567.141 M 128080.428 -65567.141 128044.714 -65638.57 128044.714 -65781.427 128080.428 -65852.855 128116.142 -65888.57 128187.571 -65924.284 128401.857 -65924.284 128473.285 -65888.57 128509 -65852.855 128544.714 -65781.427 128544.714 -65638.57 128509 -65567.141 M 128509 -66567.141 128544.714 -66495.712 128544.714 -66352.855 128509 -66281.426 128473.285 -66245.712 128401.857 -66209.998 128187.571 -66209.998 128116.142 -66245.712 128080.428 -66281.426 128044.714 -66352.855 128044.714 -66495.712 128080.428 -66567.141 M 128544.714 -66888.569 127794.714 -66888.569 M 128080.428 -66888.569 128044.714 -66959.998 128044.714 -67102.855 128080.428 -67174.283 128116.142 -67209.998 128187.571 -67245.712 128401.857 -67245.712 128473.285 -67209.998 128509 -67174.283 128544.714 -67102.855 128544.714 -66959.998 128509 -66888.569" fill="none" stroke-width="187.5"/></g><g id="jpopY6qo-KyX_bottom_drill1" transform="scale(25.4,25.4)"><use xlink:href="#OLJ2xQpF1JBF_pad-1" x="4400" y="-1800"/><use xlink:href="#OLJ2xQpF1JBF_pad-1" x="4400" y="-2000"/><use xlink:href="#OLJ2xQpF1JBF_pad-1" x="4400" y="-2800"/><use xlink:href="#OLJ2xQpF1JBF_pad-1" x="4400" y="-3000"/><use xlink:href="#OLJ2xQpF1JBF_pad-2" x="5000" y="-1900"/><use xlink:href="#OLJ2xQpF1JBF_pad-2" x="5000" y="-2000"/><use xlink:href="#OLJ2xQpF1JBF_pad-2" x="5000" y="-2800"/><use xlink:href="#OLJ2xQpF1JBF_pad-2" x="5000" y="-2900"/></g><clipPath id="jpopY6qo-KyX_bottom_outline"><path d="M 101392.5 -58420 A 1252.5 1252.5 0 0 1 98887.5 -58420 1252.5 1252.5 0 0 1 101392.5 -58420 M 96520 -43180 144780 -43180 144780 -78740 96520 -78740 96520 -43180 M 105392.5 -58420 A 1252.5 1252.5 0 0 1 102887.5 -58420 1252.5 1252.5 0 0 1 105392.5 -58420 M 142240 -60960 A 3378.2 3378.2 0 0 1 135483.6 -60960 3378.2 3378.2 0 0 1 142240 -60960 M 101392.5 -62420 A 1252.5 1252.5 0 0 1 98887.5 -62420 1252.5 1252.5 0 0 1 101392.5 -62420 M 105392.5 -62420 A 1252.5 1252.5 0 0 1 102887.5 -62420 1252.5 1252.5 0 0 1 105392.5 -62420 M 122758.2 -60960 A 3378.2 3378.2 0 0 1 116001.8 -60960 3378.2 3378.2 0 0 1 122758.2 -60960" fill="none" stroke-width="200"/></clipPath><mask id="jpopY6qo-KyX_bottom_mech-mask"><g fill="#000" stroke="#000"><rect x="96520" y="-78740" width="48260" height="35560" fill="#fff"/><use xlink:href="#jpopY6qo-KyX_bottom_drill1"/></g></mask><mask id="jpopY6qo-KyX_bottom_cf-mask"><g fill="#fff" stroke="#fff"><use xlink:href="#jpopY6qo-KyX_bottom_soldermask"/></g></mask><mask id="jpopY6qo-KyX_bottom_sm-mask"><g fill="#000" stroke="#000"><rect x="96520" y="-78740" width="48260" height="35560" fill="#fff"/><use xlink:href="#jpopY6qo-KyX_bottom_soldermask"/></g></mask></defs><g transform="translate(0,-121920) scale(1,-1)"><g mask="url(#jpopY6qo-KyX_bottom_mech-mask)" clip-path="url(#jpopY6qo-KyX_bottom_outline)" transform="translate(241300,0) scale(-1,1)"><rect x="96520" y="-78740" width="48260" height="35560" fill="currentColor" class="jpopY6qo-KyX_fr4"/><use xlink:href="#jpopY6qo-KyX_bottom_copper" fill="currentColor" stroke="currentColor" class="jpopY6qo-KyX_cu"/><use xlink:href="#jpopY6qo-KyX_bottom_copper" fill="currentColor" stroke="currentColor" class="jpopY6qo-KyX_cf" mask="url(#jpopY6qo-KyX_bottom_cf-mask)"/><g mask="url(#jpopY6qo-KyX_bottom_sm-mask)"><rect x="96520" y="-78740" width="48260" height="35560" fill="currentColor" class="jpopY6qo-KyX_sm"/><use xlink:href="#jpopY6qo-KyX_bottom_silkscreen" fill="currentColor" stroke="currentColor" class="jpopY6qo-KyX_ss"/></g></g></g></svg>