%TF.GenerationSoftware,KiCad,Pcbnew,7.0.9*%
%TF.CreationDate,2023-11-16T11:26:24-06:00*%
%TF.ProjectId,bridge,62726964-6765-42e6-9b69-6361645f7063,D*%
%TF.SameCoordinates,Original*%
%TF.FileFunction,Legend,Bot*%
%TF.FilePolarity,Positive*%
%FSLAX46Y46*%
G04 Gerber Fmt 4.6, Leading zero omitted, Abs format (unit mm)*
G04 Created by KiCad (PCBNEW 7.0.9) date 2023-11-16 11:26:24*
%MOMM*%
%LPD*%
G01*
G04 APERTURE LIST*
%ADD10C,0.187500*%
G04 APERTURE END LIST*
D10*
X126129714Y-55281431D02*
X125379714Y-55281431D01*
X126129714Y-55602860D02*
X125736857Y-55602860D01*
X125736857Y-55602860D02*
X125665428Y-55567145D01*
X125665428Y-55567145D02*
X125629714Y-55495717D01*
X125629714Y-55495717D02*
X125629714Y-55388574D01*
X125629714Y-55388574D02*
X125665428Y-55317145D01*
X125665428Y-55317145D02*
X125701142Y-55281431D01*
X125629714Y-55852859D02*
X125629714Y-56138573D01*
X125379714Y-55960002D02*
X126022571Y-55960002D01*
X126022571Y-55960002D02*
X126094000Y-55995716D01*
X126094000Y-55995716D02*
X126129714Y-56067145D01*
X126129714Y-56067145D02*
X126129714Y-56138573D01*
X125629714Y-56281430D02*
X125629714Y-56567144D01*
X125379714Y-56388573D02*
X126022571Y-56388573D01*
X126022571Y-56388573D02*
X126094000Y-56424287D01*
X126094000Y-56424287D02*
X126129714Y-56495716D01*
X126129714Y-56495716D02*
X126129714Y-56567144D01*
X125629714Y-56817144D02*
X126379714Y-56817144D01*
X125665428Y-56817144D02*
X125629714Y-56888573D01*
X125629714Y-56888573D02*
X125629714Y-57031430D01*
X125629714Y-57031430D02*
X125665428Y-57102858D01*
X125665428Y-57102858D02*
X125701142Y-57138573D01*
X125701142Y-57138573D02*
X125772571Y-57174287D01*
X125772571Y-57174287D02*
X125986857Y-57174287D01*
X125986857Y-57174287D02*
X126058285Y-57138573D01*
X126058285Y-57138573D02*
X126094000Y-57102858D01*
X126094000Y-57102858D02*
X126129714Y-57031430D01*
X126129714Y-57031430D02*
X126129714Y-56888573D01*
X126129714Y-56888573D02*
X126094000Y-56817144D01*
X126094000Y-57460001D02*
X126129714Y-57531429D01*
X126129714Y-57531429D02*
X126129714Y-57674286D01*
X126129714Y-57674286D02*
X126094000Y-57745715D01*
X126094000Y-57745715D02*
X126022571Y-57781429D01*
X126022571Y-57781429D02*
X125986857Y-57781429D01*
X125986857Y-57781429D02*
X125915428Y-57745715D01*
X125915428Y-57745715D02*
X125879714Y-57674286D01*
X125879714Y-57674286D02*
X125879714Y-57567144D01*
X125879714Y-57567144D02*
X125844000Y-57495715D01*
X125844000Y-57495715D02*
X125772571Y-57460001D01*
X125772571Y-57460001D02*
X125736857Y-57460001D01*
X125736857Y-57460001D02*
X125665428Y-57495715D01*
X125665428Y-57495715D02*
X125629714Y-57567144D01*
X125629714Y-57567144D02*
X125629714Y-57674286D01*
X125629714Y-57674286D02*
X125665428Y-57745715D01*
X126058285Y-58102858D02*
X126094000Y-58138572D01*
X126094000Y-58138572D02*
X126129714Y-58102858D01*
X126129714Y-58102858D02*
X126094000Y-58067144D01*
X126094000Y-58067144D02*
X126058285Y-58102858D01*
X126058285Y-58102858D02*
X126129714Y-58102858D01*
X125665428Y-58102858D02*
X125701142Y-58138572D01*
X125701142Y-58138572D02*
X125736857Y-58102858D01*
X125736857Y-58102858D02*
X125701142Y-58067144D01*
X125701142Y-58067144D02*
X125665428Y-58102858D01*
X125665428Y-58102858D02*
X125736857Y-58102858D01*
X125344000Y-58995715D02*
X126308285Y-58352858D01*
X125344000Y-59781429D02*
X126308285Y-59138572D01*
X125629714Y-60352858D02*
X126236857Y-60352858D01*
X126236857Y-60352858D02*
X126308285Y-60317143D01*
X126308285Y-60317143D02*
X126344000Y-60281429D01*
X126344000Y-60281429D02*
X126379714Y-60210000D01*
X126379714Y-60210000D02*
X126379714Y-60102858D01*
X126379714Y-60102858D02*
X126344000Y-60031429D01*
X126094000Y-60352858D02*
X126129714Y-60281429D01*
X126129714Y-60281429D02*
X126129714Y-60138572D01*
X126129714Y-60138572D02*
X126094000Y-60067143D01*
X126094000Y-60067143D02*
X126058285Y-60031429D01*
X126058285Y-60031429D02*
X125986857Y-59995715D01*
X125986857Y-59995715D02*
X125772571Y-59995715D01*
X125772571Y-59995715D02*
X125701142Y-60031429D01*
X125701142Y-60031429D02*
X125665428Y-60067143D01*
X125665428Y-60067143D02*
X125629714Y-60138572D01*
X125629714Y-60138572D02*
X125629714Y-60281429D01*
X125629714Y-60281429D02*
X125665428Y-60352858D01*
X126129714Y-60710000D02*
X125629714Y-60710000D01*
X125379714Y-60710000D02*
X125415428Y-60674286D01*
X125415428Y-60674286D02*
X125451142Y-60710000D01*
X125451142Y-60710000D02*
X125415428Y-60745714D01*
X125415428Y-60745714D02*
X125379714Y-60710000D01*
X125379714Y-60710000D02*
X125451142Y-60710000D01*
X125629714Y-60960000D02*
X125629714Y-61245714D01*
X125379714Y-61067143D02*
X126022571Y-61067143D01*
X126022571Y-61067143D02*
X126094000Y-61102857D01*
X126094000Y-61102857D02*
X126129714Y-61174286D01*
X126129714Y-61174286D02*
X126129714Y-61245714D01*
X126129714Y-61495714D02*
X125379714Y-61495714D01*
X126129714Y-61817143D02*
X125736857Y-61817143D01*
X125736857Y-61817143D02*
X125665428Y-61781428D01*
X125665428Y-61781428D02*
X125629714Y-61710000D01*
X125629714Y-61710000D02*
X125629714Y-61602857D01*
X125629714Y-61602857D02*
X125665428Y-61531428D01*
X125665428Y-61531428D02*
X125701142Y-61495714D01*
X125629714Y-62495714D02*
X126129714Y-62495714D01*
X125629714Y-62174285D02*
X126022571Y-62174285D01*
X126022571Y-62174285D02*
X126094000Y-62209999D01*
X126094000Y-62209999D02*
X126129714Y-62281428D01*
X126129714Y-62281428D02*
X126129714Y-62388571D01*
X126129714Y-62388571D02*
X126094000Y-62459999D01*
X126094000Y-62459999D02*
X126058285Y-62495714D01*
X126129714Y-62852856D02*
X125379714Y-62852856D01*
X125665428Y-62852856D02*
X125629714Y-62924285D01*
X125629714Y-62924285D02*
X125629714Y-63067142D01*
X125629714Y-63067142D02*
X125665428Y-63138570D01*
X125665428Y-63138570D02*
X125701142Y-63174285D01*
X125701142Y-63174285D02*
X125772571Y-63209999D01*
X125772571Y-63209999D02*
X125986857Y-63209999D01*
X125986857Y-63209999D02*
X126058285Y-63174285D01*
X126058285Y-63174285D02*
X126094000Y-63138570D01*
X126094000Y-63138570D02*
X126129714Y-63067142D01*
X126129714Y-63067142D02*
X126129714Y-62924285D01*
X126129714Y-62924285D02*
X126094000Y-62852856D01*
X126058285Y-63531427D02*
X126094000Y-63567141D01*
X126094000Y-63567141D02*
X126129714Y-63531427D01*
X126129714Y-63531427D02*
X126094000Y-63495713D01*
X126094000Y-63495713D02*
X126058285Y-63531427D01*
X126058285Y-63531427D02*
X126129714Y-63531427D01*
X126094000Y-64209999D02*
X126129714Y-64138570D01*
X126129714Y-64138570D02*
X126129714Y-63995713D01*
X126129714Y-63995713D02*
X126094000Y-63924284D01*
X126094000Y-63924284D02*
X126058285Y-63888570D01*
X126058285Y-63888570D02*
X125986857Y-63852856D01*
X125986857Y-63852856D02*
X125772571Y-63852856D01*
X125772571Y-63852856D02*
X125701142Y-63888570D01*
X125701142Y-63888570D02*
X125665428Y-63924284D01*
X125665428Y-63924284D02*
X125629714Y-63995713D01*
X125629714Y-63995713D02*
X125629714Y-64138570D01*
X125629714Y-64138570D02*
X125665428Y-64209999D01*
X126129714Y-64638570D02*
X126094000Y-64567141D01*
X126094000Y-64567141D02*
X126058285Y-64531427D01*
X126058285Y-64531427D02*
X125986857Y-64495713D01*
X125986857Y-64495713D02*
X125772571Y-64495713D01*
X125772571Y-64495713D02*
X125701142Y-64531427D01*
X125701142Y-64531427D02*
X125665428Y-64567141D01*
X125665428Y-64567141D02*
X125629714Y-64638570D01*
X125629714Y-64638570D02*
X125629714Y-64745713D01*
X125629714Y-64745713D02*
X125665428Y-64817141D01*
X125665428Y-64817141D02*
X125701142Y-64852856D01*
X125701142Y-64852856D02*
X125772571Y-64888570D01*
X125772571Y-64888570D02*
X125986857Y-64888570D01*
X125986857Y-64888570D02*
X126058285Y-64852856D01*
X126058285Y-64852856D02*
X126094000Y-64817141D01*
X126094000Y-64817141D02*
X126129714Y-64745713D01*
X126129714Y-64745713D02*
X126129714Y-64638570D01*
X126129714Y-65209998D02*
X125629714Y-65209998D01*
X125701142Y-65209998D02*
X125665428Y-65245712D01*
X125665428Y-65245712D02*
X125629714Y-65317141D01*
X125629714Y-65317141D02*
X125629714Y-65424284D01*
X125629714Y-65424284D02*
X125665428Y-65495712D01*
X125665428Y-65495712D02*
X125736857Y-65531427D01*
X125736857Y-65531427D02*
X126129714Y-65531427D01*
X125736857Y-65531427D02*
X125665428Y-65567141D01*
X125665428Y-65567141D02*
X125629714Y-65638569D01*
X125629714Y-65638569D02*
X125629714Y-65745712D01*
X125629714Y-65745712D02*
X125665428Y-65817141D01*
X125665428Y-65817141D02*
X125736857Y-65852855D01*
X125736857Y-65852855D02*
X126129714Y-65852855D01*
X125344000Y-66745712D02*
X126308285Y-66102855D01*
X126837214Y-53495717D02*
X127337214Y-53495717D01*
X126837214Y-53174288D02*
X127230071Y-53174288D01*
X127230071Y-53174288D02*
X127301500Y-53210002D01*
X127301500Y-53210002D02*
X127337214Y-53281431D01*
X127337214Y-53281431D02*
X127337214Y-53388574D01*
X127337214Y-53388574D02*
X127301500Y-53460002D01*
X127301500Y-53460002D02*
X127265785Y-53495717D01*
X126837214Y-53781430D02*
X127337214Y-53924288D01*
X127337214Y-53924288D02*
X126980071Y-54067145D01*
X126980071Y-54067145D02*
X127337214Y-54210002D01*
X127337214Y-54210002D02*
X126837214Y-54352859D01*
X127051500Y-54638573D02*
X127051500Y-55210002D01*
X127337214Y-55567144D02*
X126837214Y-55567144D01*
X126908642Y-55567144D02*
X126872928Y-55602858D01*
X126872928Y-55602858D02*
X126837214Y-55674287D01*
X126837214Y-55674287D02*
X126837214Y-55781430D01*
X126837214Y-55781430D02*
X126872928Y-55852858D01*
X126872928Y-55852858D02*
X126944357Y-55888573D01*
X126944357Y-55888573D02*
X127337214Y-55888573D01*
X126944357Y-55888573D02*
X126872928Y-55924287D01*
X126872928Y-55924287D02*
X126837214Y-55995715D01*
X126837214Y-55995715D02*
X126837214Y-56102858D01*
X126837214Y-56102858D02*
X126872928Y-56174287D01*
X126872928Y-56174287D02*
X126944357Y-56210001D01*
X126944357Y-56210001D02*
X127337214Y-56210001D01*
X127337214Y-56888573D02*
X126944357Y-56888573D01*
X126944357Y-56888573D02*
X126872928Y-56852858D01*
X126872928Y-56852858D02*
X126837214Y-56781430D01*
X126837214Y-56781430D02*
X126837214Y-56638573D01*
X126837214Y-56638573D02*
X126872928Y-56567144D01*
X127301500Y-56888573D02*
X127337214Y-56817144D01*
X127337214Y-56817144D02*
X127337214Y-56638573D01*
X127337214Y-56638573D02*
X127301500Y-56567144D01*
X127301500Y-56567144D02*
X127230071Y-56531430D01*
X127230071Y-56531430D02*
X127158642Y-56531430D01*
X127158642Y-56531430D02*
X127087214Y-56567144D01*
X127087214Y-56567144D02*
X127051500Y-56638573D01*
X127051500Y-56638573D02*
X127051500Y-56817144D01*
X127051500Y-56817144D02*
X127015785Y-56888573D01*
X127337214Y-57567144D02*
X126587214Y-57567144D01*
X127301500Y-57567144D02*
X127337214Y-57495715D01*
X127337214Y-57495715D02*
X127337214Y-57352858D01*
X127337214Y-57352858D02*
X127301500Y-57281429D01*
X127301500Y-57281429D02*
X127265785Y-57245715D01*
X127265785Y-57245715D02*
X127194357Y-57210001D01*
X127194357Y-57210001D02*
X126980071Y-57210001D01*
X126980071Y-57210001D02*
X126908642Y-57245715D01*
X126908642Y-57245715D02*
X126872928Y-57281429D01*
X126872928Y-57281429D02*
X126837214Y-57352858D01*
X126837214Y-57352858D02*
X126837214Y-57495715D01*
X126837214Y-57495715D02*
X126872928Y-57567144D01*
X127337214Y-57924286D02*
X126837214Y-57924286D01*
X126587214Y-57924286D02*
X126622928Y-57888572D01*
X126622928Y-57888572D02*
X126658642Y-57924286D01*
X126658642Y-57924286D02*
X126622928Y-57960000D01*
X126622928Y-57960000D02*
X126587214Y-57924286D01*
X126587214Y-57924286D02*
X126658642Y-57924286D01*
X127301500Y-58245715D02*
X127337214Y-58317143D01*
X127337214Y-58317143D02*
X127337214Y-58460000D01*
X127337214Y-58460000D02*
X127301500Y-58531429D01*
X127301500Y-58531429D02*
X127230071Y-58567143D01*
X127230071Y-58567143D02*
X127194357Y-58567143D01*
X127194357Y-58567143D02*
X127122928Y-58531429D01*
X127122928Y-58531429D02*
X127087214Y-58460000D01*
X127087214Y-58460000D02*
X127087214Y-58352858D01*
X127087214Y-58352858D02*
X127051500Y-58281429D01*
X127051500Y-58281429D02*
X126980071Y-58245715D01*
X126980071Y-58245715D02*
X126944357Y-58245715D01*
X126944357Y-58245715D02*
X126872928Y-58281429D01*
X126872928Y-58281429D02*
X126837214Y-58352858D01*
X126837214Y-58352858D02*
X126837214Y-58460000D01*
X126837214Y-58460000D02*
X126872928Y-58531429D01*
X127337214Y-58995715D02*
X127301500Y-58924286D01*
X127301500Y-58924286D02*
X127265785Y-58888572D01*
X127265785Y-58888572D02*
X127194357Y-58852858D01*
X127194357Y-58852858D02*
X126980071Y-58852858D01*
X126980071Y-58852858D02*
X126908642Y-58888572D01*
X126908642Y-58888572D02*
X126872928Y-58924286D01*
X126872928Y-58924286D02*
X126837214Y-58995715D01*
X126837214Y-58995715D02*
X126837214Y-59102858D01*
X126837214Y-59102858D02*
X126872928Y-59174286D01*
X126872928Y-59174286D02*
X126908642Y-59210001D01*
X126908642Y-59210001D02*
X126980071Y-59245715D01*
X126980071Y-59245715D02*
X127194357Y-59245715D01*
X127194357Y-59245715D02*
X127265785Y-59210001D01*
X127265785Y-59210001D02*
X127301500Y-59174286D01*
X127301500Y-59174286D02*
X127337214Y-59102858D01*
X127337214Y-59102858D02*
X127337214Y-58995715D01*
X126837214Y-59567143D02*
X127337214Y-59567143D01*
X126908642Y-59567143D02*
X126872928Y-59602857D01*
X126872928Y-59602857D02*
X126837214Y-59674286D01*
X126837214Y-59674286D02*
X126837214Y-59781429D01*
X126837214Y-59781429D02*
X126872928Y-59852857D01*
X126872928Y-59852857D02*
X126944357Y-59888572D01*
X126944357Y-59888572D02*
X127337214Y-59888572D01*
X127051500Y-60245714D02*
X127051500Y-60817143D01*
X127301500Y-61495714D02*
X127337214Y-61424285D01*
X127337214Y-61424285D02*
X127337214Y-61281428D01*
X127337214Y-61281428D02*
X127301500Y-61209999D01*
X127301500Y-61209999D02*
X127265785Y-61174285D01*
X127265785Y-61174285D02*
X127194357Y-61138571D01*
X127194357Y-61138571D02*
X126980071Y-61138571D01*
X126980071Y-61138571D02*
X126908642Y-61174285D01*
X126908642Y-61174285D02*
X126872928Y-61209999D01*
X126872928Y-61209999D02*
X126837214Y-61281428D01*
X126837214Y-61281428D02*
X126837214Y-61424285D01*
X126837214Y-61424285D02*
X126872928Y-61495714D01*
X127337214Y-61817142D02*
X126587214Y-61817142D01*
X127337214Y-62138571D02*
X126944357Y-62138571D01*
X126944357Y-62138571D02*
X126872928Y-62102856D01*
X126872928Y-62102856D02*
X126837214Y-62031428D01*
X126837214Y-62031428D02*
X126837214Y-61924285D01*
X126837214Y-61924285D02*
X126872928Y-61852856D01*
X126872928Y-61852856D02*
X126908642Y-61817142D01*
X127301500Y-62781427D02*
X127337214Y-62709999D01*
X127337214Y-62709999D02*
X127337214Y-62567142D01*
X127337214Y-62567142D02*
X127301500Y-62495713D01*
X127301500Y-62495713D02*
X127230071Y-62459999D01*
X127230071Y-62459999D02*
X126944357Y-62459999D01*
X126944357Y-62459999D02*
X126872928Y-62495713D01*
X126872928Y-62495713D02*
X126837214Y-62567142D01*
X126837214Y-62567142D02*
X126837214Y-62709999D01*
X126837214Y-62709999D02*
X126872928Y-62781427D01*
X126872928Y-62781427D02*
X126944357Y-62817142D01*
X126944357Y-62817142D02*
X127015785Y-62817142D01*
X127015785Y-62817142D02*
X127087214Y-62459999D01*
X127337214Y-63138570D02*
X126837214Y-63138570D01*
X126908642Y-63138570D02*
X126872928Y-63174284D01*
X126872928Y-63174284D02*
X126837214Y-63245713D01*
X126837214Y-63245713D02*
X126837214Y-63352856D01*
X126837214Y-63352856D02*
X126872928Y-63424284D01*
X126872928Y-63424284D02*
X126944357Y-63459999D01*
X126944357Y-63459999D02*
X127337214Y-63459999D01*
X126944357Y-63459999D02*
X126872928Y-63495713D01*
X126872928Y-63495713D02*
X126837214Y-63567141D01*
X126837214Y-63567141D02*
X126837214Y-63674284D01*
X126837214Y-63674284D02*
X126872928Y-63745713D01*
X126872928Y-63745713D02*
X126944357Y-63781427D01*
X126944357Y-63781427D02*
X127337214Y-63781427D01*
X127051500Y-64138570D02*
X127051500Y-64709999D01*
X127301500Y-65031427D02*
X127337214Y-65102855D01*
X127337214Y-65102855D02*
X127337214Y-65245712D01*
X127337214Y-65245712D02*
X127301500Y-65317141D01*
X127301500Y-65317141D02*
X127230071Y-65352855D01*
X127230071Y-65352855D02*
X127194357Y-65352855D01*
X127194357Y-65352855D02*
X127122928Y-65317141D01*
X127122928Y-65317141D02*
X127087214Y-65245712D01*
X127087214Y-65245712D02*
X127087214Y-65138570D01*
X127087214Y-65138570D02*
X127051500Y-65067141D01*
X127051500Y-65067141D02*
X126980071Y-65031427D01*
X126980071Y-65031427D02*
X126944357Y-65031427D01*
X126944357Y-65031427D02*
X126872928Y-65067141D01*
X126872928Y-65067141D02*
X126837214Y-65138570D01*
X126837214Y-65138570D02*
X126837214Y-65245712D01*
X126837214Y-65245712D02*
X126872928Y-65317141D01*
X127337214Y-65674284D02*
X126587214Y-65674284D01*
X127337214Y-65995713D02*
X126944357Y-65995713D01*
X126944357Y-65995713D02*
X126872928Y-65959998D01*
X126872928Y-65959998D02*
X126837214Y-65888570D01*
X126837214Y-65888570D02*
X126837214Y-65781427D01*
X126837214Y-65781427D02*
X126872928Y-65709998D01*
X126872928Y-65709998D02*
X126908642Y-65674284D01*
X127337214Y-66459998D02*
X127301500Y-66388569D01*
X127301500Y-66388569D02*
X127265785Y-66352855D01*
X127265785Y-66352855D02*
X127194357Y-66317141D01*
X127194357Y-66317141D02*
X126980071Y-66317141D01*
X126980071Y-66317141D02*
X126908642Y-66352855D01*
X126908642Y-66352855D02*
X126872928Y-66388569D01*
X126872928Y-66388569D02*
X126837214Y-66459998D01*
X126837214Y-66459998D02*
X126837214Y-66567141D01*
X126837214Y-66567141D02*
X126872928Y-66638569D01*
X126872928Y-66638569D02*
X126908642Y-66674284D01*
X126908642Y-66674284D02*
X126980071Y-66709998D01*
X126980071Y-66709998D02*
X127194357Y-66709998D01*
X127194357Y-66709998D02*
X127265785Y-66674284D01*
X127265785Y-66674284D02*
X127301500Y-66638569D01*
X127301500Y-66638569D02*
X127337214Y-66567141D01*
X127337214Y-66567141D02*
X127337214Y-66459998D01*
X126837214Y-67031426D02*
X127587214Y-67031426D01*
X126872928Y-67031426D02*
X126837214Y-67102855D01*
X126837214Y-67102855D02*
X126837214Y-67245712D01*
X126837214Y-67245712D02*
X126872928Y-67317140D01*
X126872928Y-67317140D02*
X126908642Y-67352855D01*
X126908642Y-67352855D02*
X126980071Y-67388569D01*
X126980071Y-67388569D02*
X127194357Y-67388569D01*
X127194357Y-67388569D02*
X127265785Y-67352855D01*
X127265785Y-67352855D02*
X127301500Y-67317140D01*
X127301500Y-67317140D02*
X127337214Y-67245712D01*
X127337214Y-67245712D02*
X127337214Y-67102855D01*
X127337214Y-67102855D02*
X127301500Y-67031426D01*
X127301500Y-67674283D02*
X127337214Y-67745711D01*
X127337214Y-67745711D02*
X127337214Y-67888568D01*
X127337214Y-67888568D02*
X127301500Y-67959997D01*
X127301500Y-67959997D02*
X127230071Y-67995711D01*
X127230071Y-67995711D02*
X127194357Y-67995711D01*
X127194357Y-67995711D02*
X127122928Y-67959997D01*
X127122928Y-67959997D02*
X127087214Y-67888568D01*
X127087214Y-67888568D02*
X127087214Y-67781426D01*
X127087214Y-67781426D02*
X127051500Y-67709997D01*
X127051500Y-67709997D02*
X126980071Y-67674283D01*
X126980071Y-67674283D02*
X126944357Y-67674283D01*
X126944357Y-67674283D02*
X126872928Y-67709997D01*
X126872928Y-67709997D02*
X126837214Y-67781426D01*
X126837214Y-67781426D02*
X126837214Y-67888568D01*
X126837214Y-67888568D02*
X126872928Y-67959997D01*
X126551500Y-68852854D02*
X127515785Y-68209997D01*
X128044714Y-55031431D02*
X128651857Y-55031431D01*
X128651857Y-55031431D02*
X128723285Y-54995716D01*
X128723285Y-54995716D02*
X128759000Y-54960002D01*
X128759000Y-54960002D02*
X128794714Y-54888573D01*
X128794714Y-54888573D02*
X128794714Y-54781431D01*
X128794714Y-54781431D02*
X128759000Y-54710002D01*
X128509000Y-55031431D02*
X128544714Y-54960002D01*
X128544714Y-54960002D02*
X128544714Y-54817145D01*
X128544714Y-54817145D02*
X128509000Y-54745716D01*
X128509000Y-54745716D02*
X128473285Y-54710002D01*
X128473285Y-54710002D02*
X128401857Y-54674288D01*
X128401857Y-54674288D02*
X128187571Y-54674288D01*
X128187571Y-54674288D02*
X128116142Y-54710002D01*
X128116142Y-54710002D02*
X128080428Y-54745716D01*
X128080428Y-54745716D02*
X128044714Y-54817145D01*
X128044714Y-54817145D02*
X128044714Y-54960002D01*
X128044714Y-54960002D02*
X128080428Y-55031431D01*
X128544714Y-55495716D02*
X128509000Y-55424287D01*
X128509000Y-55424287D02*
X128473285Y-55388573D01*
X128473285Y-55388573D02*
X128401857Y-55352859D01*
X128401857Y-55352859D02*
X128187571Y-55352859D01*
X128187571Y-55352859D02*
X128116142Y-55388573D01*
X128116142Y-55388573D02*
X128080428Y-55424287D01*
X128080428Y-55424287D02*
X128044714Y-55495716D01*
X128044714Y-55495716D02*
X128044714Y-55602859D01*
X128044714Y-55602859D02*
X128080428Y-55674287D01*
X128080428Y-55674287D02*
X128116142Y-55710002D01*
X128116142Y-55710002D02*
X128187571Y-55745716D01*
X128187571Y-55745716D02*
X128401857Y-55745716D01*
X128401857Y-55745716D02*
X128473285Y-55710002D01*
X128473285Y-55710002D02*
X128509000Y-55674287D01*
X128509000Y-55674287D02*
X128544714Y-55602859D01*
X128544714Y-55602859D02*
X128544714Y-55495716D01*
X128544714Y-56174287D02*
X128509000Y-56102858D01*
X128509000Y-56102858D02*
X128437571Y-56067144D01*
X128437571Y-56067144D02*
X127794714Y-56067144D01*
X128544714Y-56781430D02*
X127794714Y-56781430D01*
X128509000Y-56781430D02*
X128544714Y-56710001D01*
X128544714Y-56710001D02*
X128544714Y-56567144D01*
X128544714Y-56567144D02*
X128509000Y-56495715D01*
X128509000Y-56495715D02*
X128473285Y-56460001D01*
X128473285Y-56460001D02*
X128401857Y-56424287D01*
X128401857Y-56424287D02*
X128187571Y-56424287D01*
X128187571Y-56424287D02*
X128116142Y-56460001D01*
X128116142Y-56460001D02*
X128080428Y-56495715D01*
X128080428Y-56495715D02*
X128044714Y-56567144D01*
X128044714Y-56567144D02*
X128044714Y-56710001D01*
X128044714Y-56710001D02*
X128080428Y-56781430D01*
X128509000Y-57102858D02*
X128544714Y-57174286D01*
X128544714Y-57174286D02*
X128544714Y-57317143D01*
X128544714Y-57317143D02*
X128509000Y-57388572D01*
X128509000Y-57388572D02*
X128437571Y-57424286D01*
X128437571Y-57424286D02*
X128401857Y-57424286D01*
X128401857Y-57424286D02*
X128330428Y-57388572D01*
X128330428Y-57388572D02*
X128294714Y-57317143D01*
X128294714Y-57317143D02*
X128294714Y-57210001D01*
X128294714Y-57210001D02*
X128259000Y-57138572D01*
X128259000Y-57138572D02*
X128187571Y-57102858D01*
X128187571Y-57102858D02*
X128151857Y-57102858D01*
X128151857Y-57102858D02*
X128080428Y-57138572D01*
X128080428Y-57138572D02*
X128044714Y-57210001D01*
X128044714Y-57210001D02*
X128044714Y-57317143D01*
X128044714Y-57317143D02*
X128080428Y-57388572D01*
X128544714Y-57745715D02*
X128044714Y-57745715D01*
X128116142Y-57745715D02*
X128080428Y-57781429D01*
X128080428Y-57781429D02*
X128044714Y-57852858D01*
X128044714Y-57852858D02*
X128044714Y-57960001D01*
X128044714Y-57960001D02*
X128080428Y-58031429D01*
X128080428Y-58031429D02*
X128151857Y-58067144D01*
X128151857Y-58067144D02*
X128544714Y-58067144D01*
X128151857Y-58067144D02*
X128080428Y-58102858D01*
X128080428Y-58102858D02*
X128044714Y-58174286D01*
X128044714Y-58174286D02*
X128044714Y-58281429D01*
X128044714Y-58281429D02*
X128080428Y-58352858D01*
X128080428Y-58352858D02*
X128151857Y-58388572D01*
X128151857Y-58388572D02*
X128544714Y-58388572D01*
X128544714Y-58745715D02*
X128044714Y-58745715D01*
X127794714Y-58745715D02*
X127830428Y-58710001D01*
X127830428Y-58710001D02*
X127866142Y-58745715D01*
X127866142Y-58745715D02*
X127830428Y-58781429D01*
X127830428Y-58781429D02*
X127794714Y-58745715D01*
X127794714Y-58745715D02*
X127866142Y-58745715D01*
X128044714Y-58995715D02*
X128044714Y-59281429D01*
X127794714Y-59102858D02*
X128437571Y-59102858D01*
X128437571Y-59102858D02*
X128509000Y-59138572D01*
X128509000Y-59138572D02*
X128544714Y-59210001D01*
X128544714Y-59210001D02*
X128544714Y-59281429D01*
X128544714Y-59531429D02*
X127794714Y-59531429D01*
X128544714Y-59852858D02*
X128151857Y-59852858D01*
X128151857Y-59852858D02*
X128080428Y-59817143D01*
X128080428Y-59817143D02*
X128044714Y-59745715D01*
X128044714Y-59745715D02*
X128044714Y-59638572D01*
X128044714Y-59638572D02*
X128080428Y-59567143D01*
X128080428Y-59567143D02*
X128116142Y-59531429D01*
X128259000Y-60210000D02*
X128259000Y-60781429D01*
X128544714Y-61138571D02*
X127794714Y-61138571D01*
X128080428Y-61138571D02*
X128044714Y-61210000D01*
X128044714Y-61210000D02*
X128044714Y-61352857D01*
X128044714Y-61352857D02*
X128080428Y-61424285D01*
X128080428Y-61424285D02*
X128116142Y-61460000D01*
X128116142Y-61460000D02*
X128187571Y-61495714D01*
X128187571Y-61495714D02*
X128401857Y-61495714D01*
X128401857Y-61495714D02*
X128473285Y-61460000D01*
X128473285Y-61460000D02*
X128509000Y-61424285D01*
X128509000Y-61424285D02*
X128544714Y-61352857D01*
X128544714Y-61352857D02*
X128544714Y-61210000D01*
X128544714Y-61210000D02*
X128509000Y-61138571D01*
X128544714Y-61817142D02*
X128044714Y-61817142D01*
X128187571Y-61817142D02*
X128116142Y-61852856D01*
X128116142Y-61852856D02*
X128080428Y-61888571D01*
X128080428Y-61888571D02*
X128044714Y-61959999D01*
X128044714Y-61959999D02*
X128044714Y-62031428D01*
X128544714Y-62281428D02*
X128044714Y-62281428D01*
X127794714Y-62281428D02*
X127830428Y-62245714D01*
X127830428Y-62245714D02*
X127866142Y-62281428D01*
X127866142Y-62281428D02*
X127830428Y-62317142D01*
X127830428Y-62317142D02*
X127794714Y-62281428D01*
X127794714Y-62281428D02*
X127866142Y-62281428D01*
X128544714Y-62960000D02*
X127794714Y-62960000D01*
X128509000Y-62960000D02*
X128544714Y-62888571D01*
X128544714Y-62888571D02*
X128544714Y-62745714D01*
X128544714Y-62745714D02*
X128509000Y-62674285D01*
X128509000Y-62674285D02*
X128473285Y-62638571D01*
X128473285Y-62638571D02*
X128401857Y-62602857D01*
X128401857Y-62602857D02*
X128187571Y-62602857D01*
X128187571Y-62602857D02*
X128116142Y-62638571D01*
X128116142Y-62638571D02*
X128080428Y-62674285D01*
X128080428Y-62674285D02*
X128044714Y-62745714D01*
X128044714Y-62745714D02*
X128044714Y-62888571D01*
X128044714Y-62888571D02*
X128080428Y-62960000D01*
X128044714Y-63638571D02*
X128651857Y-63638571D01*
X128651857Y-63638571D02*
X128723285Y-63602856D01*
X128723285Y-63602856D02*
X128759000Y-63567142D01*
X128759000Y-63567142D02*
X128794714Y-63495713D01*
X128794714Y-63495713D02*
X128794714Y-63388571D01*
X128794714Y-63388571D02*
X128759000Y-63317142D01*
X128509000Y-63638571D02*
X128544714Y-63567142D01*
X128544714Y-63567142D02*
X128544714Y-63424285D01*
X128544714Y-63424285D02*
X128509000Y-63352856D01*
X128509000Y-63352856D02*
X128473285Y-63317142D01*
X128473285Y-63317142D02*
X128401857Y-63281428D01*
X128401857Y-63281428D02*
X128187571Y-63281428D01*
X128187571Y-63281428D02*
X128116142Y-63317142D01*
X128116142Y-63317142D02*
X128080428Y-63352856D01*
X128080428Y-63352856D02*
X128044714Y-63424285D01*
X128044714Y-63424285D02*
X128044714Y-63567142D01*
X128044714Y-63567142D02*
X128080428Y-63638571D01*
X128509000Y-64281427D02*
X128544714Y-64209999D01*
X128544714Y-64209999D02*
X128544714Y-64067142D01*
X128544714Y-64067142D02*
X128509000Y-63995713D01*
X128509000Y-63995713D02*
X128437571Y-63959999D01*
X128437571Y-63959999D02*
X128151857Y-63959999D01*
X128151857Y-63959999D02*
X128080428Y-63995713D01*
X128080428Y-63995713D02*
X128044714Y-64067142D01*
X128044714Y-64067142D02*
X128044714Y-64209999D01*
X128044714Y-64209999D02*
X128080428Y-64281427D01*
X128080428Y-64281427D02*
X128151857Y-64317142D01*
X128151857Y-64317142D02*
X128223285Y-64317142D01*
X128223285Y-64317142D02*
X128294714Y-63959999D01*
X128259000Y-64638570D02*
X128259000Y-65209999D01*
X128044714Y-65567141D02*
X128794714Y-65567141D01*
X128080428Y-65567141D02*
X128044714Y-65638570D01*
X128044714Y-65638570D02*
X128044714Y-65781427D01*
X128044714Y-65781427D02*
X128080428Y-65852855D01*
X128080428Y-65852855D02*
X128116142Y-65888570D01*
X128116142Y-65888570D02*
X128187571Y-65924284D01*
X128187571Y-65924284D02*
X128401857Y-65924284D01*
X128401857Y-65924284D02*
X128473285Y-65888570D01*
X128473285Y-65888570D02*
X128509000Y-65852855D01*
X128509000Y-65852855D02*
X128544714Y-65781427D01*
X128544714Y-65781427D02*
X128544714Y-65638570D01*
X128544714Y-65638570D02*
X128509000Y-65567141D01*
X128509000Y-66567141D02*
X128544714Y-66495712D01*
X128544714Y-66495712D02*
X128544714Y-66352855D01*
X128544714Y-66352855D02*
X128509000Y-66281426D01*
X128509000Y-66281426D02*
X128473285Y-66245712D01*
X128473285Y-66245712D02*
X128401857Y-66209998D01*
X128401857Y-66209998D02*
X128187571Y-66209998D01*
X128187571Y-66209998D02*
X128116142Y-66245712D01*
X128116142Y-66245712D02*
X128080428Y-66281426D01*
X128080428Y-66281426D02*
X128044714Y-66352855D01*
X128044714Y-66352855D02*
X128044714Y-66495712D01*
X128044714Y-66495712D02*
X128080428Y-66567141D01*
X128544714Y-66888569D02*
X127794714Y-66888569D01*
X128080428Y-66888569D02*
X128044714Y-66959998D01*
X128044714Y-66959998D02*
X128044714Y-67102855D01*
X128044714Y-67102855D02*
X128080428Y-67174283D01*
X128080428Y-67174283D02*
X128116142Y-67209998D01*
X128116142Y-67209998D02*
X128187571Y-67245712D01*
X128187571Y-67245712D02*
X128401857Y-67245712D01*
X128401857Y-67245712D02*
X128473285Y-67209998D01*
X128473285Y-67209998D02*
X128509000Y-67174283D01*
X128509000Y-67174283D02*
X128544714Y-67102855D01*
X128544714Y-67102855D02*
X128544714Y-66959998D01*
X128544714Y-66959998D02*
X128509000Y-66888569D01*
M02*
