%TF.GenerationSoftware,KiCad,Pcbnew,7.0.9*%
%TF.CreationDate,2023-11-16T11:26:24-06:00*%
%TF.ProjectId,bridge,62726964-6765-42e6-9b69-6361645f7063,D*%
%TF.SameCoordinates,Original*%
%TF.FileFunction,Legend,Top*%
%TF.FilePolarity,Positive*%
%FSLAX46Y46*%
G04 Gerber Fmt 4.6, Leading zero omitted, Abs format (unit mm)*
G04 Created by KiCad (PCBNEW 7.0.9) date 2023-11-16 11:26:24*
%MOMM*%
%LPD*%
G01*
G04 APERTURE LIST*
%ADD10C,0.010000*%
%ADD11C,0.120000*%
G04 APERTURE END LIST*
%TO.C,G\u002A\u002A\u002A*%
D10*
X128287179Y-57177962D02*
X128355422Y-57178205D01*
X128421620Y-57178642D01*
X128484553Y-57179272D01*
X128542999Y-57180096D01*
X128595740Y-57181113D01*
X128641555Y-57182324D01*
X128679223Y-57183729D01*
X128694180Y-57184479D01*
X128922254Y-57199294D01*
X129142657Y-57217866D01*
X129357248Y-57240426D01*
X129567882Y-57267203D01*
X129776418Y-57298425D01*
X129984712Y-57334323D01*
X130126740Y-57361438D01*
X130384528Y-57416080D01*
X130637889Y-57476867D01*
X130886551Y-57543657D01*
X131130243Y-57616310D01*
X131368694Y-57694684D01*
X131601632Y-57778637D01*
X131828785Y-57868029D01*
X132049883Y-57962716D01*
X132264653Y-58062559D01*
X132472825Y-58167415D01*
X132674126Y-58277144D01*
X132868286Y-58391603D01*
X133055033Y-58510651D01*
X133234096Y-58634147D01*
X133405202Y-58761949D01*
X133568082Y-58893916D01*
X133722462Y-59029906D01*
X133868073Y-59169778D01*
X134004641Y-59313390D01*
X134114593Y-59439711D01*
X134223660Y-59576986D01*
X134325264Y-59718201D01*
X134419063Y-59862706D01*
X134504714Y-60009851D01*
X134581876Y-60158986D01*
X134650204Y-60309460D01*
X134709358Y-60460623D01*
X134758995Y-60611826D01*
X134788312Y-60719009D01*
X134804251Y-60782656D01*
X134827083Y-60798365D01*
X134850346Y-60815409D01*
X134875671Y-60835680D01*
X134901020Y-60857376D01*
X134924358Y-60878692D01*
X134943647Y-60897825D01*
X134956850Y-60912972D01*
X134957479Y-60913817D01*
X134971595Y-60936065D01*
X134977820Y-60954722D01*
X134976570Y-60972043D01*
X134970815Y-60985819D01*
X134961444Y-60999009D01*
X134945706Y-61016697D01*
X134925330Y-61037247D01*
X134902045Y-61059018D01*
X134877582Y-61080372D01*
X134853669Y-61099670D01*
X134839911Y-61109860D01*
X134822384Y-61122635D01*
X134811308Y-61132254D01*
X134804702Y-61141229D01*
X134800586Y-61152076D01*
X134797887Y-61163200D01*
X134791853Y-61187923D01*
X134783219Y-61220084D01*
X134772636Y-61257497D01*
X134760759Y-61297976D01*
X134748241Y-61339334D01*
X134735736Y-61379386D01*
X134723897Y-61415945D01*
X134713377Y-61446826D01*
X134711629Y-61451738D01*
X134646883Y-61617169D01*
X134572418Y-61779721D01*
X134488275Y-61939341D01*
X134394493Y-62095977D01*
X134291114Y-62249578D01*
X134178177Y-62400090D01*
X134055722Y-62547463D01*
X133923790Y-62691643D01*
X133782420Y-62832578D01*
X133631654Y-62970217D01*
X133471531Y-63104506D01*
X133388100Y-63170281D01*
X133219017Y-63295605D01*
X133040870Y-63417423D01*
X132854241Y-63535411D01*
X132659715Y-63649246D01*
X132457873Y-63758603D01*
X132249302Y-63863160D01*
X132034583Y-63962593D01*
X131814300Y-64056577D01*
X131726940Y-64091711D01*
X131460042Y-64192075D01*
X131187710Y-64284365D01*
X130910589Y-64368491D01*
X130629325Y-64444368D01*
X130344562Y-64511907D01*
X130056947Y-64571022D01*
X129767126Y-64621624D01*
X129475744Y-64663627D01*
X129183446Y-64696942D01*
X128890879Y-64721483D01*
X128598688Y-64737162D01*
X128326462Y-64743453D01*
X128307519Y-64743891D01*
X128018017Y-64741583D01*
X127730827Y-64730151D01*
X127446597Y-64709507D01*
X127284480Y-64693401D01*
X127066578Y-64666069D01*
X126853304Y-64632277D01*
X126645035Y-64592149D01*
X126442147Y-64545808D01*
X126245017Y-64493377D01*
X126054021Y-64434981D01*
X125869535Y-64370742D01*
X125691937Y-64300784D01*
X125521602Y-64225231D01*
X125358908Y-64144204D01*
X125204230Y-64057829D01*
X125057945Y-63966229D01*
X125050407Y-63961212D01*
X124918941Y-63868400D01*
X124795445Y-63770872D01*
X124680085Y-63668872D01*
X124573029Y-63562648D01*
X124474443Y-63452445D01*
X124384494Y-63338510D01*
X124303350Y-63221089D01*
X124231175Y-63100427D01*
X124168139Y-62976770D01*
X124114407Y-62850365D01*
X124070146Y-62721458D01*
X124035523Y-62590295D01*
X124010705Y-62457121D01*
X124005662Y-62420500D01*
X124002812Y-62395699D01*
X123999758Y-62365051D01*
X123996688Y-62330915D01*
X123993789Y-62295652D01*
X123991248Y-62261621D01*
X123989253Y-62231181D01*
X123987992Y-62206693D01*
X123987638Y-62193513D01*
X123984250Y-62181774D01*
X124114620Y-62181774D01*
X124118108Y-62291084D01*
X124129403Y-62406515D01*
X124132637Y-62430660D01*
X124156419Y-62564334D01*
X124190036Y-62695810D01*
X124233322Y-62824695D01*
X124286112Y-62950597D01*
X124348242Y-63073121D01*
X124419548Y-63191876D01*
X124498837Y-63305104D01*
X124539024Y-63355995D01*
X124585650Y-63410822D01*
X124636866Y-63467648D01*
X124690821Y-63524537D01*
X124745666Y-63579549D01*
X124799549Y-63630749D01*
X124850621Y-63676197D01*
X124863860Y-63687373D01*
X124994706Y-63790077D01*
X125133891Y-63887119D01*
X125281287Y-63978455D01*
X125436768Y-64064047D01*
X125600210Y-64143851D01*
X125771486Y-64217827D01*
X125950469Y-64285932D01*
X126137036Y-64348126D01*
X126331059Y-64404368D01*
X126532413Y-64454615D01*
X126740972Y-64498827D01*
X126956610Y-64536961D01*
X127179202Y-64568977D01*
X127408621Y-64594833D01*
X127644742Y-64614487D01*
X127688340Y-64617389D01*
X127839537Y-64625451D01*
X127997989Y-64630856D01*
X128161147Y-64633608D01*
X128326462Y-64633713D01*
X128491384Y-64631178D01*
X128653364Y-64626007D01*
X128809853Y-64618207D01*
X128864360Y-64614756D01*
X129171241Y-64589382D01*
X129475647Y-64554658D01*
X129777270Y-64510652D01*
X130075805Y-64457433D01*
X130370945Y-64395070D01*
X130662384Y-64323633D01*
X130949816Y-64243189D01*
X131232935Y-64153808D01*
X131511434Y-64055558D01*
X131733931Y-63969316D01*
X131889947Y-63904043D01*
X132047661Y-63833614D01*
X132204941Y-63759086D01*
X132359656Y-63681512D01*
X132509674Y-63601949D01*
X132652864Y-63521451D01*
X132728182Y-63477015D01*
X132915112Y-63360193D01*
X133093375Y-63239583D01*
X133262884Y-63115281D01*
X133423555Y-62987384D01*
X133575304Y-62855989D01*
X133718046Y-62721193D01*
X133851697Y-62583093D01*
X133976171Y-62441786D01*
X134091386Y-62297368D01*
X134197255Y-62149937D01*
X134293695Y-61999589D01*
X134380620Y-61846422D01*
X134457947Y-61690533D01*
X134525591Y-61532017D01*
X134583467Y-61370973D01*
X134594023Y-61337957D01*
X134602486Y-61310619D01*
X134609788Y-61286448D01*
X134615411Y-61267203D01*
X134618839Y-61254643D01*
X134619656Y-61250762D01*
X134617383Y-61247612D01*
X134608908Y-61249503D01*
X134600950Y-61252791D01*
X134575084Y-61263253D01*
X134542389Y-61274991D01*
X134505943Y-61287029D01*
X134468824Y-61298394D01*
X134434111Y-61308111D01*
X134404883Y-61315205D01*
X134401560Y-61315902D01*
X134373076Y-61320734D01*
X134338556Y-61325067D01*
X134302119Y-61328436D01*
X134275042Y-61330097D01*
X134207868Y-61333110D01*
X134201864Y-61333380D01*
X134167256Y-61419409D01*
X134103754Y-61564078D01*
X134030378Y-61707061D01*
X133947310Y-61848112D01*
X133854733Y-61986984D01*
X133847097Y-61997208D01*
X133752830Y-62123430D01*
X133641783Y-62257204D01*
X133521776Y-62388059D01*
X133392992Y-62515749D01*
X133273800Y-62624205D01*
X133119190Y-62753445D01*
X132955430Y-62878665D01*
X132782752Y-62999738D01*
X132601391Y-63116538D01*
X132411579Y-63228939D01*
X132213551Y-63336815D01*
X132158300Y-63364498D01*
X132007539Y-63440038D01*
X131793778Y-63538483D01*
X131572500Y-63632022D01*
X131343940Y-63720531D01*
X131108330Y-63803881D01*
X131073887Y-63815434D01*
X130791570Y-63904344D01*
X130506332Y-63983916D01*
X130217918Y-64054196D01*
X129926075Y-64115235D01*
X129630550Y-64167079D01*
X129331091Y-64209777D01*
X129027443Y-64243377D01*
X128719354Y-64267927D01*
X128686560Y-64269993D01*
X128639279Y-64272472D01*
X128583448Y-64274683D01*
X128520673Y-64276610D01*
X128452562Y-64278239D01*
X128380721Y-64279552D01*
X128306756Y-64280536D01*
X128232275Y-64281174D01*
X128190027Y-64281332D01*
X128158884Y-64281450D01*
X128088190Y-64281349D01*
X128021799Y-64280857D01*
X127961319Y-64279956D01*
X127908355Y-64278632D01*
X127883920Y-64277754D01*
X127665513Y-64265725D01*
X127652569Y-64265012D01*
X127427257Y-64245894D01*
X127208179Y-64220451D01*
X126995535Y-64188734D01*
X126834816Y-64159135D01*
X127747252Y-64159135D01*
X127771136Y-64162300D01*
X127786101Y-64163580D01*
X127810087Y-64164745D01*
X127841953Y-64165790D01*
X127880563Y-64166707D01*
X127924776Y-64167491D01*
X127973453Y-64168135D01*
X128025456Y-64168633D01*
X128079645Y-64168980D01*
X128134881Y-64169169D01*
X128190027Y-64169194D01*
X128243941Y-64169048D01*
X128295486Y-64168726D01*
X128343522Y-64168221D01*
X128386911Y-64167527D01*
X128424514Y-64166638D01*
X128445260Y-64165955D01*
X128745146Y-64150077D01*
X129042769Y-64125274D01*
X129337784Y-64091629D01*
X129629845Y-64049222D01*
X129918607Y-63998137D01*
X130203725Y-63938456D01*
X130484853Y-63870260D01*
X130761646Y-63793633D01*
X131033759Y-63708655D01*
X131300846Y-63615409D01*
X131562562Y-63513978D01*
X131818562Y-63404444D01*
X131999990Y-63320204D01*
X132031367Y-63304827D01*
X132054212Y-63292861D01*
X132069367Y-63283807D01*
X132077676Y-63277163D01*
X132080000Y-63272748D01*
X132078791Y-63264731D01*
X132075473Y-63248935D01*
X132070508Y-63227415D01*
X132064358Y-63202221D01*
X132062154Y-63193477D01*
X132031723Y-63085946D01*
X131996525Y-62983644D01*
X131956949Y-62887412D01*
X131913390Y-62798094D01*
X131866237Y-62716532D01*
X131815885Y-62643571D01*
X131792922Y-62614537D01*
X131764364Y-62579973D01*
X131725332Y-62601502D01*
X131672111Y-62630717D01*
X131623632Y-62656992D01*
X131577552Y-62681552D01*
X131531530Y-62705623D01*
X131483222Y-62730431D01*
X131430287Y-62757201D01*
X131373880Y-62785418D01*
X131276946Y-62833160D01*
X131187014Y-62876217D01*
X131102460Y-62915274D01*
X131021661Y-62951016D01*
X130942992Y-62984127D01*
X130864831Y-63015294D01*
X130785554Y-63045200D01*
X130703536Y-63074530D01*
X130624580Y-63101488D01*
X130391193Y-63174857D01*
X130158055Y-63238555D01*
X129924148Y-63292781D01*
X129688454Y-63337738D01*
X129449955Y-63373628D01*
X129207631Y-63400650D01*
X129044700Y-63413754D01*
X128979650Y-63417533D01*
X128907893Y-63420512D01*
X128831218Y-63422690D01*
X128751416Y-63424066D01*
X128744520Y-63424114D01*
X128670278Y-63424641D01*
X128589594Y-63424414D01*
X128511156Y-63423384D01*
X128436753Y-63421552D01*
X128368176Y-63418918D01*
X128307217Y-63415480D01*
X128285240Y-63413870D01*
X128245794Y-63410556D01*
X128203691Y-63406679D01*
X128160609Y-63402423D01*
X128118227Y-63397975D01*
X128078225Y-63393518D01*
X128042281Y-63389237D01*
X128012074Y-63385318D01*
X127989284Y-63381944D01*
X127979702Y-63380226D01*
X127972363Y-63379254D01*
X127968017Y-63381489D01*
X127965448Y-63389045D01*
X127963439Y-63404036D01*
X127962845Y-63409544D01*
X127958870Y-63442193D01*
X127953307Y-63481597D01*
X127946653Y-63524702D01*
X127939406Y-63568457D01*
X127932064Y-63609808D01*
X127925122Y-63645704D01*
X127921839Y-63661191D01*
X127903949Y-63735153D01*
X127882659Y-63811417D01*
X127858721Y-63887772D01*
X127832891Y-63962009D01*
X127805923Y-64031920D01*
X127778569Y-64095293D01*
X127761635Y-64130558D01*
X127747252Y-64159135D01*
X126834816Y-64159135D01*
X126789520Y-64150793D01*
X126590334Y-64106679D01*
X126398173Y-64056442D01*
X126213234Y-64000133D01*
X126035716Y-63937802D01*
X125865815Y-63869501D01*
X125703730Y-63795278D01*
X125549658Y-63715185D01*
X125442980Y-63653416D01*
X125315567Y-63571586D01*
X125301988Y-63561768D01*
X125196910Y-63485792D01*
X125189643Y-63479858D01*
X125369069Y-63479858D01*
X125441584Y-63527381D01*
X125573724Y-63608617D01*
X125714396Y-63684799D01*
X125863259Y-63755823D01*
X126019972Y-63821585D01*
X126184195Y-63881980D01*
X126355587Y-63936904D01*
X126533807Y-63986253D01*
X126718513Y-64029923D01*
X126909367Y-64067810D01*
X127106026Y-64099810D01*
X127308149Y-64125817D01*
X127444500Y-64139661D01*
X127481347Y-64142939D01*
X127518672Y-64146129D01*
X127553925Y-64149023D01*
X127584558Y-64151410D01*
X127608024Y-64153085D01*
X127610886Y-64153269D01*
X127665513Y-64156709D01*
X127695560Y-64093785D01*
X127745575Y-63980157D01*
X127788575Y-63863137D01*
X127824864Y-63741630D01*
X127854745Y-63614541D01*
X127878523Y-63480776D01*
X127890724Y-63390780D01*
X127892268Y-63378737D01*
X127893318Y-63371827D01*
X127889680Y-63368039D01*
X127882650Y-63365653D01*
X127873124Y-63363718D01*
X127856197Y-63360387D01*
X127834447Y-63356163D01*
X127815340Y-63352488D01*
X127741915Y-63336795D01*
X127662531Y-63316909D01*
X127580047Y-63293680D01*
X127497322Y-63267959D01*
X127417217Y-63240596D01*
X127342590Y-63212442D01*
X127336877Y-63210155D01*
X127296456Y-63193121D01*
X127249766Y-63172159D01*
X127199297Y-63148485D01*
X127147541Y-63123318D01*
X127096989Y-63097873D01*
X127050131Y-63073368D01*
X127009460Y-63051021D01*
X126999718Y-63045431D01*
X126892927Y-62979562D01*
X126789935Y-62908317D01*
X126691865Y-62832645D01*
X126599842Y-62753493D01*
X126514988Y-62671811D01*
X126438428Y-62588548D01*
X126392940Y-62533128D01*
X126376632Y-62512439D01*
X126362537Y-62494918D01*
X126351820Y-62481983D01*
X126345648Y-62475057D01*
X126344680Y-62474279D01*
X126341189Y-62478228D01*
X126333986Y-62489060D01*
X126324348Y-62504810D01*
X126319385Y-62513273D01*
X126304350Y-62538233D01*
X126284535Y-62569622D01*
X126261140Y-62605655D01*
X126235364Y-62644547D01*
X126208409Y-62684515D01*
X126181473Y-62723774D01*
X126155758Y-62760539D01*
X126132464Y-62793026D01*
X126118696Y-62811660D01*
X126043776Y-62907425D01*
X125966412Y-62998662D01*
X125887314Y-63084718D01*
X125807192Y-63164937D01*
X125726754Y-63238665D01*
X125646712Y-63305246D01*
X125567774Y-63364025D01*
X125490649Y-63414348D01*
X125427206Y-63449903D01*
X125369069Y-63479858D01*
X125189643Y-63479858D01*
X125087151Y-63396168D01*
X124986432Y-63302853D01*
X124894894Y-63205981D01*
X124812678Y-63105689D01*
X124739928Y-63002113D01*
X124704442Y-62944546D01*
X124648355Y-62839561D01*
X124602137Y-62732360D01*
X124565657Y-62622516D01*
X124538783Y-62509602D01*
X124521384Y-62393191D01*
X124516068Y-62331600D01*
X124513868Y-62253701D01*
X124518219Y-62182873D01*
X124529455Y-62118156D01*
X124547907Y-62058589D01*
X124573906Y-62003210D01*
X124607786Y-61951058D01*
X124649878Y-61901171D01*
X124672699Y-61878132D01*
X124729706Y-61829167D01*
X124791793Y-61787539D01*
X124859786Y-61752831D01*
X124934513Y-61724626D01*
X125016800Y-61702506D01*
X125023880Y-61700955D01*
X125042916Y-61697103D01*
X125060747Y-61694201D01*
X125079304Y-61692116D01*
X125100520Y-61690717D01*
X125126327Y-61689871D01*
X125158659Y-61689446D01*
X125194060Y-61689315D01*
X125244289Y-61689643D01*
X125286704Y-61690963D01*
X125323629Y-61693580D01*
X125357387Y-61697795D01*
X125390301Y-61703912D01*
X125424694Y-61712233D01*
X125462889Y-61723060D01*
X125470428Y-61725323D01*
X125522612Y-61743225D01*
X125574517Y-61764999D01*
X125624012Y-61789537D01*
X125668965Y-61815731D01*
X125707247Y-61842473D01*
X125726197Y-61858383D01*
X125745827Y-61874505D01*
X125763702Y-61885803D01*
X125777961Y-61891235D01*
X125784610Y-61891060D01*
X125788880Y-61884390D01*
X125790667Y-61869232D01*
X125790110Y-61846915D01*
X125787348Y-61818766D01*
X125782518Y-61786115D01*
X125775761Y-61750289D01*
X125767214Y-61712617D01*
X125765109Y-61704220D01*
X125739490Y-61619985D01*
X125707304Y-61541745D01*
X125668914Y-61470000D01*
X125624684Y-61405253D01*
X125574975Y-61348007D01*
X125520151Y-61298763D01*
X125460574Y-61258023D01*
X125430956Y-61241916D01*
X125370404Y-61215687D01*
X125307223Y-61196641D01*
X125240571Y-61184714D01*
X125169609Y-61179842D01*
X125093495Y-61181960D01*
X125011388Y-61191003D01*
X124936762Y-61203987D01*
X124834027Y-61228817D01*
X124737849Y-61261132D01*
X124647537Y-61301294D01*
X124562402Y-61349664D01*
X124481756Y-61406604D01*
X124404909Y-61472476D01*
X124380575Y-61495928D01*
X124340398Y-61536942D01*
X124307037Y-61573950D01*
X124279049Y-61608861D01*
X124254991Y-61643588D01*
X124233422Y-61680042D01*
X124215788Y-61714175D01*
X124179598Y-61798392D01*
X124151429Y-61886893D01*
X124131238Y-61980046D01*
X124118982Y-62078217D01*
X124114620Y-62181774D01*
X123984250Y-62181774D01*
X123984034Y-62181025D01*
X123977467Y-62176682D01*
X123964240Y-62170521D01*
X123945294Y-62159143D01*
X123922609Y-62143960D01*
X123898162Y-62126386D01*
X123873933Y-62107834D01*
X123851902Y-62089715D01*
X123837381Y-62076666D01*
X123775762Y-62011230D01*
X123721531Y-61939123D01*
X123675074Y-61861037D01*
X123636779Y-61777665D01*
X123607034Y-61689701D01*
X123595479Y-61644169D01*
X123588780Y-61614597D01*
X123579611Y-61611535D01*
X123550680Y-61601873D01*
X123529002Y-61593823D01*
X123502587Y-61582828D01*
X123475678Y-61570692D01*
X123463057Y-61564609D01*
X123387440Y-61522069D01*
X123358897Y-61501535D01*
X123695066Y-61501535D01*
X123695548Y-61575557D01*
X123705852Y-61648769D01*
X123725896Y-61720457D01*
X123755596Y-61789908D01*
X123779784Y-61833099D01*
X123805885Y-61870369D01*
X123838277Y-61908544D01*
X123874808Y-61945585D01*
X123913330Y-61979453D01*
X123951691Y-62008108D01*
X123985940Y-62028601D01*
X124002100Y-62036860D01*
X124007878Y-62007700D01*
X124011418Y-61991404D01*
X124016842Y-61968306D01*
X124023424Y-61941421D01*
X124030441Y-61913766D01*
X124030768Y-61912500D01*
X124055864Y-61824978D01*
X124083789Y-61746097D01*
X124115229Y-61674567D01*
X124150871Y-61609099D01*
X124191401Y-61548403D01*
X124237506Y-61491189D01*
X124277967Y-61447960D01*
X124362482Y-61369979D01*
X124452525Y-61300455D01*
X124547739Y-61239563D01*
X124647767Y-61187477D01*
X124752250Y-61144373D01*
X124860831Y-61110427D01*
X124973152Y-61085813D01*
X125036580Y-61076293D01*
X125075234Y-61072682D01*
X125119936Y-61070579D01*
X125167987Y-61069944D01*
X125216684Y-61070733D01*
X125263328Y-61072904D01*
X125305218Y-61076414D01*
X125338840Y-61081073D01*
X125420939Y-61100233D01*
X125496417Y-61127080D01*
X125565436Y-61161734D01*
X125628156Y-61204317D01*
X125684738Y-61254949D01*
X125735344Y-61313753D01*
X125780133Y-61380848D01*
X125809097Y-61434821D01*
X125833969Y-61488980D01*
X125853852Y-61540396D01*
X125870252Y-61593400D01*
X125884362Y-61650880D01*
X125893545Y-61694698D01*
X125900779Y-61735139D01*
X125906270Y-61774380D01*
X125910220Y-61814595D01*
X125912836Y-61857959D01*
X125914319Y-61906647D01*
X125914876Y-61962833D01*
X125914895Y-61976000D01*
X125914531Y-62037490D01*
X125913361Y-62089717D01*
X125911305Y-62133552D01*
X125908283Y-62169866D01*
X125904215Y-62199532D01*
X125899022Y-62223419D01*
X125892623Y-62242400D01*
X125889930Y-62248361D01*
X125867596Y-62282970D01*
X125835904Y-62315023D01*
X125795399Y-62344245D01*
X125746624Y-62370356D01*
X125690123Y-62393081D01*
X125626440Y-62412142D01*
X125556119Y-62427261D01*
X125530883Y-62431441D01*
X125493743Y-62435778D01*
X125449384Y-62438755D01*
X125400527Y-62440371D01*
X125349893Y-62440624D01*
X125300207Y-62439515D01*
X125254188Y-62437042D01*
X125214561Y-62433205D01*
X125202676Y-62431535D01*
X125129739Y-62417639D01*
X125063306Y-62399764D01*
X125003905Y-62378181D01*
X124952060Y-62353162D01*
X124908297Y-62324979D01*
X124873142Y-62293904D01*
X124847120Y-62260208D01*
X124837880Y-62242862D01*
X124831106Y-62226560D01*
X124827371Y-62212177D01*
X124826040Y-62195761D01*
X124826475Y-62173357D01*
X124826520Y-62172276D01*
X124833167Y-62127833D01*
X124848756Y-62087048D01*
X124872644Y-62050214D01*
X124904188Y-62017621D01*
X124942745Y-61989561D01*
X124987671Y-61966323D01*
X125038323Y-61948200D01*
X125094059Y-61935481D01*
X125154236Y-61928459D01*
X125218209Y-61927423D01*
X125285335Y-61932665D01*
X125337822Y-61940980D01*
X125392019Y-61953633D01*
X125442545Y-61969725D01*
X125488748Y-61988728D01*
X125529977Y-62010115D01*
X125565579Y-62033358D01*
X125594904Y-62057931D01*
X125617299Y-62083305D01*
X125632113Y-62108953D01*
X125638693Y-62134349D01*
X125636390Y-62158964D01*
X125628611Y-62176317D01*
X125612002Y-62195634D01*
X125586815Y-62214829D01*
X125554610Y-62233055D01*
X125516943Y-62249468D01*
X125475372Y-62263222D01*
X125461823Y-62266842D01*
X125441849Y-62271405D01*
X125422572Y-62274561D01*
X125401394Y-62276541D01*
X125375714Y-62277572D01*
X125342937Y-62277884D01*
X125336300Y-62277881D01*
X125304199Y-62277670D01*
X125280135Y-62277000D01*
X125261987Y-62275659D01*
X125247635Y-62273435D01*
X125234959Y-62270116D01*
X125225278Y-62266781D01*
X125190443Y-62250622D01*
X125165115Y-62231429D01*
X125149382Y-62209293D01*
X125143331Y-62184307D01*
X125143260Y-62181103D01*
X125145881Y-62162017D01*
X125154819Y-62147406D01*
X125155493Y-62146677D01*
X125166531Y-62136445D01*
X125177080Y-62131406D01*
X125189401Y-62131610D01*
X125205754Y-62137105D01*
X125228402Y-62147940D01*
X125229068Y-62148280D01*
X125261668Y-62162603D01*
X125296574Y-62174033D01*
X125330188Y-62181564D01*
X125357639Y-62184192D01*
X125391424Y-62181402D01*
X125417943Y-62173303D01*
X125436808Y-62160908D01*
X125447631Y-62145230D01*
X125450025Y-62127283D01*
X125443602Y-62108080D01*
X125427973Y-62088634D01*
X125402751Y-62069958D01*
X125401622Y-62069292D01*
X125364118Y-62052182D01*
X125319843Y-62040014D01*
X125270897Y-62032778D01*
X125219379Y-62030460D01*
X125167390Y-62033049D01*
X125117029Y-62040535D01*
X125070395Y-62052904D01*
X125029589Y-62070146D01*
X125027307Y-62071370D01*
X125000320Y-62089969D01*
X124978748Y-62112635D01*
X124963499Y-62137667D01*
X124955476Y-62163362D01*
X124955586Y-62188021D01*
X124959059Y-62199637D01*
X124976089Y-62227782D01*
X125002287Y-62253932D01*
X125036793Y-62277731D01*
X125078747Y-62298822D01*
X125127291Y-62316847D01*
X125181565Y-62331450D01*
X125240710Y-62342274D01*
X125303865Y-62348962D01*
X125321060Y-62349990D01*
X125388087Y-62350510D01*
X125452590Y-62345455D01*
X125513611Y-62335163D01*
X125570191Y-62319973D01*
X125621370Y-62300223D01*
X125666191Y-62276251D01*
X125703694Y-62248396D01*
X125732921Y-62216995D01*
X125743679Y-62200847D01*
X125755303Y-62171999D01*
X125760229Y-62138384D01*
X125758302Y-62103005D01*
X125750256Y-62071229D01*
X125737884Y-62041451D01*
X125723510Y-62016434D01*
X125704675Y-61992351D01*
X125688315Y-61974811D01*
X125639320Y-61931581D01*
X125582702Y-61893695D01*
X125519664Y-61861470D01*
X125451412Y-61835221D01*
X125379151Y-61815266D01*
X125304085Y-61801920D01*
X125227419Y-61795499D01*
X125150357Y-61796320D01*
X125074105Y-61804698D01*
X125053820Y-61808296D01*
X124981201Y-61826058D01*
X124913476Y-61850224D01*
X124851362Y-61880296D01*
X124795574Y-61915774D01*
X124746827Y-61956160D01*
X124705835Y-62000954D01*
X124673316Y-62049657D01*
X124655972Y-62085818D01*
X124644110Y-62119044D01*
X124635784Y-62152666D01*
X124630685Y-62188987D01*
X124628503Y-62230311D01*
X124628932Y-62278939D01*
X124629162Y-62285880D01*
X124638109Y-62395759D01*
X124657014Y-62504614D01*
X124685697Y-62612126D01*
X124723980Y-62717976D01*
X124771685Y-62821846D01*
X124828632Y-62923417D01*
X124894645Y-63022370D01*
X124969543Y-63118386D01*
X125053149Y-63211146D01*
X125145284Y-63300332D01*
X125244083Y-63384281D01*
X125266506Y-63401727D01*
X125282730Y-63413185D01*
X125294107Y-63419469D01*
X125301988Y-63421391D01*
X125305043Y-63420969D01*
X125322181Y-63414519D01*
X125345922Y-63403590D01*
X125374339Y-63389219D01*
X125405505Y-63372445D01*
X125437491Y-63354308D01*
X125468372Y-63335844D01*
X125496218Y-63318092D01*
X125497150Y-63317472D01*
X125592471Y-63248944D01*
X125687227Y-63170848D01*
X125780882Y-63083774D01*
X125872900Y-62988314D01*
X125962744Y-62885060D01*
X126049879Y-62774602D01*
X126133768Y-62657532D01*
X126213874Y-62534442D01*
X126227699Y-62511940D01*
X126242939Y-62487085D01*
X126257983Y-62462844D01*
X126271221Y-62441792D01*
X126281042Y-62426507D01*
X126282044Y-62424988D01*
X126299263Y-62398996D01*
X126263419Y-62308430D01*
X126240617Y-62249506D01*
X126221837Y-62197597D01*
X126206563Y-62150627D01*
X126194281Y-62106520D01*
X126184477Y-62063199D01*
X126176636Y-62018589D01*
X126170245Y-61970613D01*
X126164787Y-61917194D01*
X126163833Y-61906479D01*
X126160313Y-61854987D01*
X126158340Y-61800557D01*
X126157879Y-61745458D01*
X126158715Y-61701485D01*
X126304627Y-61701485D01*
X126305408Y-61752007D01*
X126305585Y-61757509D01*
X126312190Y-61862826D01*
X126324660Y-61965151D01*
X126342720Y-62062971D01*
X126366092Y-62154775D01*
X126393099Y-62235394D01*
X126428932Y-62316512D01*
X126474397Y-62397413D01*
X126528973Y-62477475D01*
X126592139Y-62556076D01*
X126663376Y-62632596D01*
X126742162Y-62706412D01*
X126827977Y-62776903D01*
X126877213Y-62813480D01*
X126979568Y-62881413D01*
X127090512Y-62944747D01*
X127209480Y-63003288D01*
X127335907Y-63056843D01*
X127469227Y-63105219D01*
X127608875Y-63148223D01*
X127754285Y-63185661D01*
X127904891Y-63217341D01*
X128060129Y-63243068D01*
X128178560Y-63258262D01*
X128309860Y-63270536D01*
X128448966Y-63278771D01*
X128594358Y-63282966D01*
X128744520Y-63283122D01*
X128897933Y-63279237D01*
X129053080Y-63271313D01*
X129208444Y-63259349D01*
X129219960Y-63258299D01*
X129424471Y-63235639D01*
X129630128Y-63205413D01*
X129835734Y-63167933D01*
X130040091Y-63123508D01*
X130242001Y-63072449D01*
X130440268Y-63015066D01*
X130633694Y-62951670D01*
X130821081Y-62882572D01*
X131001233Y-62808082D01*
X131063638Y-62780209D01*
X131254834Y-62690118D01*
X131441349Y-62596355D01*
X131547463Y-62539519D01*
X131835044Y-62539519D01*
X131836363Y-62544564D01*
X131842970Y-62555461D01*
X131853628Y-62570277D01*
X131859714Y-62578080D01*
X131915366Y-62654625D01*
X131967183Y-62739890D01*
X132014775Y-62833037D01*
X132057752Y-62933228D01*
X132095724Y-63039624D01*
X132128300Y-63151388D01*
X132130432Y-63159640D01*
X132138725Y-63191014D01*
X132145316Y-63213472D01*
X132150573Y-63228046D01*
X132154865Y-63235768D01*
X132158300Y-63237705D01*
X132165153Y-63235074D01*
X132179587Y-63228099D01*
X132200351Y-63217458D01*
X132226195Y-63203830D01*
X132255870Y-63187895D01*
X132288124Y-63170330D01*
X132321707Y-63151817D01*
X132355370Y-63133032D01*
X132387860Y-63114655D01*
X132417930Y-63097366D01*
X132433509Y-63088256D01*
X132596428Y-62989009D01*
X132750012Y-62888635D01*
X132895076Y-62786523D01*
X133032430Y-62682065D01*
X133162887Y-62574650D01*
X133287261Y-62463668D01*
X133367113Y-62387480D01*
X133472949Y-62280014D01*
X133569749Y-62173764D01*
X133658390Y-62067720D01*
X133739749Y-61960867D01*
X133755793Y-61938509D01*
X133773508Y-61913283D01*
X133785824Y-61894894D01*
X133793441Y-61882052D01*
X133797061Y-61873471D01*
X133797386Y-61867862D01*
X133795904Y-61864849D01*
X133790226Y-61857771D01*
X133779636Y-61844793D01*
X133765705Y-61827836D01*
X133751727Y-61810900D01*
X133735743Y-61792404D01*
X133714426Y-61768934D01*
X133689739Y-61742588D01*
X133663646Y-61715462D01*
X133639905Y-61691441D01*
X133566090Y-61621425D01*
X133493871Y-61560271D01*
X133422037Y-61507080D01*
X133349376Y-61460948D01*
X133279309Y-61423252D01*
X133211158Y-61389579D01*
X133200569Y-61404333D01*
X133193867Y-61413243D01*
X133182150Y-61428390D01*
X133166744Y-61448073D01*
X133148979Y-61470593D01*
X133136640Y-61486143D01*
X133047045Y-61592771D01*
X132947703Y-61699748D01*
X132839006Y-61806753D01*
X132721343Y-61913463D01*
X132595106Y-62019556D01*
X132460686Y-62124709D01*
X132318473Y-62228599D01*
X132168858Y-62330906D01*
X132012233Y-62431304D01*
X131930140Y-62481454D01*
X131902689Y-62497996D01*
X131878183Y-62512841D01*
X131857966Y-62525170D01*
X131843379Y-62534164D01*
X131835765Y-62539002D01*
X131835044Y-62539519D01*
X131547463Y-62539519D01*
X131622410Y-62499376D01*
X131797245Y-62399636D01*
X131965082Y-62297593D01*
X132125150Y-62193700D01*
X132276677Y-62088414D01*
X132418891Y-61982191D01*
X132430520Y-61973138D01*
X132530966Y-61891864D01*
X132629123Y-61806924D01*
X132723653Y-61719613D01*
X132813222Y-61631224D01*
X132896491Y-61543053D01*
X132972127Y-61456394D01*
X133003560Y-61417931D01*
X133029068Y-61384792D01*
X133057545Y-61345743D01*
X133087486Y-61303017D01*
X133117383Y-61258845D01*
X133145732Y-61215459D01*
X133171027Y-61175093D01*
X133191762Y-61139977D01*
X133195173Y-61133882D01*
X133208482Y-61109094D01*
X133222539Y-61081651D01*
X133236563Y-61053221D01*
X133249774Y-61025474D01*
X133261391Y-61000080D01*
X133270635Y-60978709D01*
X133276724Y-60963030D01*
X133278880Y-60954777D01*
X133276696Y-60948072D01*
X133270593Y-60933765D01*
X133261244Y-60913317D01*
X133249321Y-60888188D01*
X133235497Y-60859839D01*
X133230933Y-60850630D01*
X133206876Y-60804214D01*
X133194989Y-60781278D01*
X133158263Y-60716611D01*
X133119245Y-60654300D01*
X133076420Y-60592012D01*
X133070892Y-60584595D01*
X133253949Y-60584595D01*
X133259877Y-60597168D01*
X133272208Y-60617450D01*
X133285542Y-60637558D01*
X133306350Y-60669378D01*
X133328019Y-60704609D01*
X133349886Y-60741974D01*
X133371286Y-60780194D01*
X133391556Y-60817992D01*
X133410033Y-60854090D01*
X133426052Y-60887209D01*
X133438951Y-60916072D01*
X133448065Y-60939400D01*
X133452730Y-60955917D01*
X133453204Y-60960433D01*
X133450736Y-60971994D01*
X133443681Y-60990962D01*
X133432715Y-61016052D01*
X133418513Y-61045981D01*
X133401752Y-61079463D01*
X133383107Y-61115216D01*
X133363254Y-61151954D01*
X133342867Y-61188393D01*
X133322624Y-61223250D01*
X133303200Y-61255240D01*
X133285270Y-61283078D01*
X133277398Y-61294581D01*
X133254725Y-61326902D01*
X133322342Y-61361099D01*
X133401312Y-61405267D01*
X133481398Y-61458171D01*
X133561233Y-61518692D01*
X133639453Y-61585713D01*
X133714694Y-61658117D01*
X133785592Y-61734785D01*
X133802146Y-61754094D01*
X133820053Y-61774928D01*
X133832802Y-61788687D01*
X133841460Y-61796322D01*
X133847097Y-61798788D01*
X133850565Y-61797274D01*
X133858102Y-61787269D01*
X133869446Y-61769560D01*
X133883829Y-61745514D01*
X133900483Y-61716498D01*
X133918639Y-61683880D01*
X133937529Y-61649026D01*
X133956384Y-61613305D01*
X133974437Y-61578082D01*
X133979958Y-61567060D01*
X133993918Y-61538468D01*
X134008819Y-61506992D01*
X134024026Y-61474077D01*
X134038903Y-61441168D01*
X134052815Y-61409708D01*
X134065124Y-61381141D01*
X134075195Y-61356913D01*
X134082392Y-61338466D01*
X134086079Y-61327245D01*
X134086422Y-61325299D01*
X134082025Y-61322628D01*
X134070521Y-61318943D01*
X134059930Y-61316315D01*
X134019272Y-61302084D01*
X133982049Y-61278707D01*
X133948653Y-61246732D01*
X133919474Y-61206706D01*
X133894904Y-61159176D01*
X133875332Y-61104689D01*
X133861151Y-61043793D01*
X133859850Y-61036200D01*
X133854661Y-60982519D01*
X133855567Y-60943347D01*
X133966075Y-60943347D01*
X133966554Y-60988475D01*
X133972308Y-61032822D01*
X133982741Y-61075061D01*
X133997259Y-61113865D01*
X134015267Y-61147906D01*
X134036170Y-61175859D01*
X134059373Y-61196395D01*
X134084282Y-61208188D01*
X134084869Y-61208346D01*
X134120474Y-61215563D01*
X134162620Y-61220575D01*
X134207868Y-61223095D01*
X134252783Y-61222837D01*
X134256780Y-61222663D01*
X134343631Y-61213573D01*
X134430713Y-61194536D01*
X134517497Y-61165736D01*
X134603460Y-61127358D01*
X134688074Y-61079587D01*
X134716601Y-61061133D01*
X134753751Y-61035674D01*
X134782462Y-61014266D01*
X134803208Y-60996083D01*
X134816465Y-60980301D01*
X134822707Y-60966093D01*
X134822408Y-60952635D01*
X134816043Y-60939101D01*
X134804087Y-60924666D01*
X134798369Y-60918960D01*
X134778242Y-60901647D01*
X134751034Y-60881252D01*
X134718807Y-60859116D01*
X134683627Y-60836580D01*
X134647558Y-60814986D01*
X134612663Y-60795676D01*
X134594235Y-60786277D01*
X134525853Y-60756003D01*
X134454860Y-60730709D01*
X134385495Y-60711892D01*
X134380877Y-60710871D01*
X134339133Y-60703752D01*
X134292440Y-60699118D01*
X134243358Y-60696966D01*
X134194448Y-60697293D01*
X134148270Y-60700096D01*
X134107385Y-60705372D01*
X134080745Y-60711221D01*
X134059399Y-60721879D01*
X134038104Y-60741244D01*
X134017838Y-60767905D01*
X133999578Y-60800451D01*
X133984301Y-60837473D01*
X133977055Y-60860940D01*
X133973112Y-60879843D01*
X133969526Y-60904741D01*
X133966852Y-60931473D01*
X133966075Y-60943347D01*
X133855567Y-60943347D01*
X133855953Y-60926671D01*
X133863256Y-60870478D01*
X133876100Y-60815763D01*
X133894013Y-60764348D01*
X133916526Y-60718056D01*
X133943169Y-60678710D01*
X133955828Y-60664328D01*
X133981554Y-60641689D01*
X134011093Y-60622353D01*
X134041244Y-60608152D01*
X134065893Y-60601333D01*
X134078718Y-60598836D01*
X134085984Y-60596554D01*
X134086600Y-60595956D01*
X134084515Y-60587742D01*
X134078667Y-60571757D01*
X134069666Y-60549401D01*
X134058122Y-60522076D01*
X134044645Y-60491182D01*
X134029845Y-60458119D01*
X134014332Y-60424287D01*
X133998715Y-60391087D01*
X133985173Y-60363100D01*
X133969288Y-60331453D01*
X133951719Y-60297586D01*
X133933227Y-60262860D01*
X133914571Y-60228631D01*
X133896513Y-60196259D01*
X133879812Y-60167101D01*
X133865230Y-60142517D01*
X133853527Y-60123863D01*
X133845462Y-60112500D01*
X133843895Y-60110744D01*
X133839148Y-60112541D01*
X133830037Y-60120770D01*
X133818345Y-60133769D01*
X133815641Y-60137058D01*
X133763521Y-60197591D01*
X133704794Y-60259046D01*
X133641641Y-60319431D01*
X133576242Y-60376755D01*
X133510777Y-60429024D01*
X133447428Y-60474248D01*
X133443980Y-60476537D01*
X133425465Y-60488189D01*
X133401860Y-60502182D01*
X133375036Y-60517497D01*
X133346863Y-60533118D01*
X133319213Y-60548027D01*
X133293958Y-60561205D01*
X133272969Y-60571635D01*
X133258117Y-60578299D01*
X133254386Y-60579659D01*
X133253949Y-60584595D01*
X133070892Y-60584595D01*
X133028277Y-60527415D01*
X132988855Y-60477400D01*
X132896166Y-60368481D01*
X132793560Y-60259930D01*
X132681280Y-60151922D01*
X132559566Y-60044636D01*
X132428662Y-59938246D01*
X132288808Y-59832930D01*
X132140247Y-59728864D01*
X131983219Y-59626225D01*
X131817968Y-59525189D01*
X131756941Y-59490223D01*
X131644735Y-59425933D01*
X131550562Y-59375302D01*
X131829445Y-59375302D01*
X131829451Y-59375308D01*
X131834844Y-59378988D01*
X131847665Y-59387080D01*
X131866619Y-59398789D01*
X131890411Y-59413316D01*
X131917746Y-59429866D01*
X131932680Y-59438855D01*
X132031050Y-59499425D01*
X132132208Y-59564479D01*
X132233657Y-59632319D01*
X132332900Y-59701249D01*
X132427441Y-59769571D01*
X132505515Y-59828419D01*
X132617753Y-59917847D01*
X132725723Y-60009684D01*
X132828495Y-60103029D01*
X132925141Y-60196985D01*
X133014733Y-60290651D01*
X133096342Y-60383128D01*
X133161682Y-60463930D01*
X133177263Y-60483802D01*
X133190729Y-60500391D01*
X133200841Y-60512215D01*
X133206362Y-60517792D01*
X133206876Y-60518037D01*
X133212428Y-60515915D01*
X133225371Y-60510083D01*
X133243995Y-60501337D01*
X133266586Y-60490476D01*
X133276340Y-60485722D01*
X133362364Y-60438638D01*
X133447947Y-60381757D01*
X133533214Y-60314981D01*
X133618292Y-60238214D01*
X133680990Y-60175140D01*
X133695913Y-60159135D01*
X133713209Y-60140056D01*
X133731623Y-60119348D01*
X133749903Y-60098461D01*
X133766796Y-60078839D01*
X133781049Y-60061932D01*
X133791409Y-60049185D01*
X133796622Y-60042047D01*
X133797000Y-60041166D01*
X133794293Y-60036435D01*
X133787063Y-60025530D01*
X133776702Y-60010534D01*
X133773232Y-60005606D01*
X133669271Y-59866987D01*
X133555744Y-59731568D01*
X133432753Y-59599435D01*
X133300404Y-59470674D01*
X133158800Y-59345371D01*
X133008045Y-59223612D01*
X132848244Y-59105483D01*
X132679500Y-58991068D01*
X132501917Y-58880455D01*
X132315599Y-58773729D01*
X132216066Y-58720201D01*
X132146392Y-58683527D01*
X132143183Y-58697814D01*
X132118449Y-58794940D01*
X132088365Y-58890832D01*
X132053554Y-58984099D01*
X132014639Y-59073346D01*
X131972243Y-59157180D01*
X131926990Y-59234208D01*
X131879501Y-59303036D01*
X131863090Y-59324156D01*
X131848750Y-59342755D01*
X131837628Y-59358595D01*
X131830826Y-59370003D01*
X131829445Y-59375302D01*
X131550562Y-59375302D01*
X131463761Y-59328634D01*
X131305300Y-59248227D01*
X131218835Y-59205871D01*
X131139538Y-59167887D01*
X131065774Y-59133578D01*
X130995907Y-59102245D01*
X130928301Y-59073190D01*
X130861321Y-59045713D01*
X130793331Y-59019116D01*
X130722695Y-58992700D01*
X130647779Y-58965768D01*
X130626154Y-58958158D01*
X130444896Y-58898356D01*
X130259101Y-58844236D01*
X130069705Y-58795906D01*
X129877642Y-58753471D01*
X129683849Y-58717036D01*
X129489259Y-58686707D01*
X129294810Y-58662590D01*
X129101434Y-58644789D01*
X128910069Y-58633412D01*
X128721649Y-58628562D01*
X128537109Y-58630346D01*
X128357385Y-58638870D01*
X128183411Y-58654239D01*
X128065597Y-58669119D01*
X127902290Y-58695982D01*
X127745552Y-58728887D01*
X127595577Y-58767731D01*
X127452558Y-58812415D01*
X127316689Y-58862836D01*
X127188162Y-58918894D01*
X127067170Y-58980488D01*
X126953908Y-59047516D01*
X126848567Y-59119877D01*
X126751341Y-59197471D01*
X126662423Y-59280194D01*
X126582006Y-59367948D01*
X126510284Y-59460630D01*
X126485454Y-59496960D01*
X126445585Y-59563632D01*
X126410943Y-59635129D01*
X126381229Y-59712344D01*
X126356148Y-59796173D01*
X126344217Y-59848700D01*
X126335402Y-59887510D01*
X126318694Y-59987249D01*
X126315915Y-60007500D01*
X126312044Y-60044947D01*
X126309209Y-60089583D01*
X126307412Y-60139065D01*
X126306654Y-60191051D01*
X126306938Y-60243196D01*
X126308264Y-60293159D01*
X126310636Y-60338595D01*
X126314053Y-60377161D01*
X126315632Y-60389560D01*
X126324800Y-60448002D01*
X126336317Y-60509841D01*
X126350554Y-60576888D01*
X126367881Y-60650954D01*
X126375174Y-60680600D01*
X126390102Y-60741465D01*
X126402359Y-60793716D01*
X126412105Y-60838498D01*
X126419498Y-60876958D01*
X126424696Y-60910239D01*
X126427859Y-60939488D01*
X126429145Y-60965848D01*
X126428712Y-60990465D01*
X126426720Y-61014484D01*
X126424128Y-61033918D01*
X126420873Y-61052038D01*
X126415476Y-61078231D01*
X126408335Y-61110732D01*
X126399849Y-61147777D01*
X126390416Y-61187602D01*
X126380434Y-61228442D01*
X126377976Y-61238295D01*
X126359241Y-61315046D01*
X126343631Y-61383600D01*
X126330950Y-61445362D01*
X126321003Y-61501739D01*
X126313593Y-61554134D01*
X126308524Y-61603953D01*
X126305601Y-61652602D01*
X126304627Y-61701485D01*
X126158715Y-61701485D01*
X126158896Y-61691958D01*
X126161357Y-61642324D01*
X126165226Y-61598824D01*
X126168949Y-61572070D01*
X126171616Y-61558098D01*
X126176330Y-61535381D01*
X126182835Y-61505073D01*
X126190879Y-61468326D01*
X126200205Y-61426292D01*
X126210561Y-61380124D01*
X126221691Y-61330973D01*
X126233341Y-61279993D01*
X126235681Y-61269810D01*
X126250094Y-61206966D01*
X126262326Y-61153127D01*
X126272540Y-61107412D01*
X126280895Y-61068940D01*
X126287554Y-61036828D01*
X126292677Y-61010196D01*
X126296426Y-60988162D01*
X126298961Y-60969846D01*
X126300445Y-60954365D01*
X126301038Y-60940838D01*
X126300902Y-60928384D01*
X126300249Y-60916820D01*
X126298625Y-60905825D01*
X126294833Y-60886062D01*
X126289117Y-60858636D01*
X126281721Y-60824649D01*
X126272889Y-60785205D01*
X126262864Y-60741407D01*
X126251891Y-60694356D01*
X126240214Y-60645157D01*
X126239578Y-60642500D01*
X126227722Y-60592873D01*
X126216373Y-60545067D01*
X126205798Y-60500230D01*
X126196264Y-60459510D01*
X126188038Y-60424053D01*
X126181388Y-60395006D01*
X126176581Y-60373517D01*
X126173886Y-60360732D01*
X126173853Y-60360560D01*
X126169112Y-60327462D01*
X126165719Y-60285875D01*
X126163654Y-60237377D01*
X126162898Y-60183548D01*
X126163430Y-60125967D01*
X126165232Y-60066211D01*
X126168283Y-60005860D01*
X126172564Y-59946492D01*
X126178054Y-59889687D01*
X126179936Y-59873363D01*
X126194183Y-59781885D01*
X126214229Y-59697666D01*
X126240448Y-59619374D01*
X126270527Y-59551064D01*
X126297181Y-59497160D01*
X126253560Y-59427210D01*
X126180333Y-59313905D01*
X126107155Y-59209165D01*
X126032852Y-59111470D01*
X125956247Y-59019299D01*
X125876165Y-58931131D01*
X125844437Y-58898218D01*
X125766597Y-58821777D01*
X125689082Y-58751610D01*
X125612547Y-58688206D01*
X125537644Y-58632055D01*
X125465028Y-58583645D01*
X125395352Y-58543467D01*
X125329270Y-58512008D01*
X125327651Y-58511330D01*
X125288522Y-58494994D01*
X125233671Y-58539694D01*
X125206658Y-58562757D01*
X125174841Y-58591635D01*
X125139802Y-58624748D01*
X125103121Y-58660512D01*
X125066378Y-58697346D01*
X125031154Y-58733668D01*
X124999029Y-58767895D01*
X124971585Y-58798445D01*
X124952380Y-58821255D01*
X124878523Y-58920240D01*
X124813938Y-59021679D01*
X124758757Y-59125242D01*
X124713111Y-59230599D01*
X124677132Y-59337419D01*
X124650950Y-59445371D01*
X124634698Y-59554124D01*
X124629168Y-59634177D01*
X124628692Y-59690670D01*
X124631842Y-59739451D01*
X124639073Y-59782458D01*
X124650837Y-59821631D01*
X124667589Y-59858910D01*
X124689783Y-59896233D01*
X124690845Y-59897838D01*
X124728168Y-59945003D01*
X124774309Y-59987742D01*
X124828793Y-60025733D01*
X124891142Y-60058648D01*
X124960879Y-60086165D01*
X124973535Y-60090315D01*
X125050091Y-60109655D01*
X125130480Y-60120522D01*
X125213100Y-60123023D01*
X125296344Y-60117268D01*
X125378609Y-60103364D01*
X125458291Y-60081419D01*
X125531288Y-60052694D01*
X125577209Y-60028624D01*
X125620902Y-60000030D01*
X125660806Y-59968271D01*
X125695358Y-59934708D01*
X125722996Y-59900701D01*
X125741077Y-59869974D01*
X125753838Y-59834650D01*
X125760005Y-59798737D01*
X125759387Y-59764789D01*
X125751793Y-59735357D01*
X125751247Y-59734095D01*
X125734919Y-59703942D01*
X125713850Y-59678383D01*
X125685555Y-59654478D01*
X125681370Y-59651448D01*
X125639942Y-59626732D01*
X125590302Y-59605482D01*
X125533962Y-59588227D01*
X125472438Y-59575497D01*
X125458220Y-59573337D01*
X125411931Y-59569111D01*
X125359343Y-59568253D01*
X125303664Y-59570550D01*
X125248103Y-59575787D01*
X125195866Y-59583752D01*
X125152058Y-59593702D01*
X125107942Y-59608182D01*
X125067089Y-59625995D01*
X125030758Y-59646302D01*
X125000207Y-59668265D01*
X124976694Y-59691043D01*
X124961477Y-59713799D01*
X124957841Y-59723221D01*
X124954729Y-59750714D01*
X124961089Y-59777819D01*
X124976244Y-59803637D01*
X124999518Y-59827268D01*
X125030237Y-59847813D01*
X125062398Y-59862441D01*
X125104785Y-59874889D01*
X125152636Y-59883199D01*
X125203162Y-59887290D01*
X125253574Y-59887081D01*
X125301084Y-59882488D01*
X125342903Y-59873431D01*
X125350860Y-59870900D01*
X125390373Y-59854776D01*
X125419949Y-59836636D01*
X125439617Y-59816456D01*
X125449403Y-59794212D01*
X125450600Y-59782480D01*
X125446822Y-59767180D01*
X125434918Y-59755021D01*
X125414028Y-59745223D01*
X125407093Y-59742988D01*
X125368751Y-59736459D01*
X125326574Y-59738343D01*
X125282077Y-59748416D01*
X125236776Y-59766456D01*
X125232268Y-59768686D01*
X125213727Y-59777288D01*
X125197309Y-59783614D01*
X125186178Y-59786466D01*
X125185157Y-59786520D01*
X125167552Y-59781737D01*
X125152843Y-59768527D01*
X125145774Y-59755980D01*
X125142257Y-59735082D01*
X125147888Y-59713636D01*
X125161803Y-59692826D01*
X125183139Y-59673836D01*
X125211034Y-59657853D01*
X125220065Y-59654013D01*
X125232074Y-59649605D01*
X125243665Y-59646436D01*
X125256837Y-59644299D01*
X125273586Y-59642986D01*
X125295913Y-59642290D01*
X125325815Y-59642005D01*
X125336300Y-59641969D01*
X125372175Y-59642131D01*
X125400135Y-59642945D01*
X125422412Y-59644582D01*
X125441240Y-59647213D01*
X125458850Y-59651007D01*
X125460676Y-59651468D01*
X125509604Y-59666275D01*
X125551582Y-59683692D01*
X125586009Y-59703288D01*
X125612284Y-59724633D01*
X125629805Y-59747297D01*
X125637972Y-59770850D01*
X125638512Y-59778810D01*
X125634243Y-59801516D01*
X125622494Y-59826594D01*
X125604710Y-59851558D01*
X125584190Y-59872347D01*
X125561156Y-59889339D01*
X125530884Y-59907493D01*
X125495988Y-59925482D01*
X125459080Y-59941981D01*
X125422772Y-59955662D01*
X125415040Y-59958189D01*
X125350684Y-59974935D01*
X125283576Y-59985713D01*
X125215788Y-59990489D01*
X125149394Y-59989231D01*
X125086464Y-59981907D01*
X125029071Y-59968484D01*
X125016636Y-59964450D01*
X124966797Y-59943005D01*
X124922810Y-59915320D01*
X124885768Y-59882287D01*
X124856769Y-59844800D01*
X124845988Y-59825406D01*
X124836467Y-59803990D01*
X124830796Y-59784922D01*
X124827755Y-59763315D01*
X124826754Y-59748454D01*
X124826001Y-59725918D01*
X124826962Y-59709637D01*
X124830221Y-59695767D01*
X124836366Y-59680466D01*
X124837494Y-59677981D01*
X124859502Y-59641757D01*
X124890620Y-59608494D01*
X124930173Y-59578433D01*
X124977483Y-59551811D01*
X125031874Y-59528867D01*
X125092669Y-59509839D01*
X125159191Y-59494966D01*
X125230764Y-59484485D01*
X125306710Y-59478636D01*
X125386353Y-59477657D01*
X125404880Y-59478137D01*
X125482810Y-59483130D01*
X125555995Y-59492655D01*
X125623854Y-59506456D01*
X125685807Y-59524275D01*
X125741274Y-59545857D01*
X125789675Y-59570943D01*
X125830431Y-59599278D01*
X125862961Y-59630603D01*
X125886685Y-59664663D01*
X125900051Y-59697521D01*
X125903966Y-59716845D01*
X125907554Y-59744529D01*
X125910716Y-59778773D01*
X125913355Y-59817778D01*
X125915372Y-59859746D01*
X125916669Y-59902879D01*
X125917149Y-59945378D01*
X125916713Y-59985444D01*
X125916372Y-59997245D01*
X125909267Y-60107678D01*
X125895681Y-60210374D01*
X125875572Y-60305456D01*
X125848897Y-60393045D01*
X125815615Y-60473265D01*
X125775684Y-60546238D01*
X125729060Y-60612085D01*
X125688852Y-60657721D01*
X125632706Y-60709250D01*
X125571902Y-60752355D01*
X125505787Y-60787377D01*
X125433708Y-60814654D01*
X125355012Y-60834528D01*
X125346460Y-60836177D01*
X125314680Y-60840619D01*
X125275040Y-60843792D01*
X125229755Y-60845709D01*
X125181043Y-60846383D01*
X125178907Y-60846360D01*
X125131122Y-60845828D01*
X125082208Y-60844059D01*
X125036519Y-60841088D01*
X124996272Y-60836931D01*
X124975620Y-60833866D01*
X124859524Y-60809590D01*
X124749710Y-60777543D01*
X124645615Y-60737461D01*
X124546675Y-60689082D01*
X124452330Y-60632144D01*
X124362016Y-60566385D01*
X124310767Y-60523669D01*
X124249220Y-60465184D01*
X124196963Y-60405168D01*
X124153134Y-60342522D01*
X124117155Y-60276740D01*
X124101709Y-60243580D01*
X124088711Y-60213320D01*
X124077198Y-60183313D01*
X124066206Y-60150912D01*
X124054771Y-60113472D01*
X124044088Y-60076080D01*
X124037751Y-60052203D01*
X124030880Y-60024255D01*
X124023910Y-59994255D01*
X124017276Y-59964221D01*
X124011414Y-59936172D01*
X124006759Y-59912125D01*
X124003747Y-59894099D01*
X124002799Y-59884692D01*
X123999126Y-59883305D01*
X123989041Y-59887431D01*
X123973951Y-59896095D01*
X123955260Y-59908318D01*
X123934374Y-59923123D01*
X123912698Y-59939533D01*
X123891636Y-59956570D01*
X123872594Y-59973258D01*
X123864688Y-59980755D01*
X123814739Y-60036693D01*
X123772528Y-60098957D01*
X123738406Y-60166896D01*
X123712722Y-60239861D01*
X123702337Y-60281820D01*
X123699048Y-60304588D01*
X123696915Y-60334527D01*
X123695933Y-60368713D01*
X123696101Y-60404225D01*
X123697416Y-60438140D01*
X123699876Y-60467534D01*
X123702503Y-60485020D01*
X123722155Y-60561553D01*
X123749539Y-60631554D01*
X123784736Y-60695120D01*
X123827827Y-60752345D01*
X123878894Y-60803327D01*
X123938020Y-60848162D01*
X124005285Y-60886945D01*
X124067268Y-60914574D01*
X124093135Y-60925160D01*
X124110840Y-60933582D01*
X124121854Y-60940896D01*
X124127648Y-60948161D01*
X124129695Y-60956436D01*
X124129799Y-60959533D01*
X124128506Y-60968741D01*
X124123634Y-60976495D01*
X124113693Y-60983858D01*
X124097196Y-60991895D01*
X124072653Y-61001670D01*
X124068840Y-61003107D01*
X123996728Y-61034267D01*
X123933125Y-61070653D01*
X123877548Y-61112753D01*
X123829516Y-61161057D01*
X123788549Y-61216054D01*
X123754164Y-61278234D01*
X123725882Y-61348085D01*
X123723902Y-61353918D01*
X123704490Y-61427417D01*
X123695066Y-61501535D01*
X123358897Y-61501535D01*
X123319810Y-61473415D01*
X123260289Y-61418801D01*
X123208999Y-61358382D01*
X123166061Y-61292311D01*
X123131598Y-61220743D01*
X123105731Y-61143833D01*
X123094965Y-61098086D01*
X123090085Y-61064839D01*
X123086980Y-61024381D01*
X123085625Y-60979501D01*
X123085761Y-60962255D01*
X123205010Y-60962255D01*
X123205821Y-61004771D01*
X123208287Y-61043993D01*
X123212407Y-61076592D01*
X123212460Y-61076889D01*
X123230217Y-61150462D01*
X123256437Y-61218635D01*
X123290967Y-61281156D01*
X123333655Y-61337773D01*
X123384351Y-61388236D01*
X123415218Y-61412999D01*
X123438061Y-61428711D01*
X123464575Y-61444948D01*
X123492450Y-61460492D01*
X123519377Y-61474124D01*
X123543045Y-61484628D01*
X123561145Y-61490784D01*
X123563875Y-61491383D01*
X123579611Y-61494361D01*
X123583056Y-61457051D01*
X123588433Y-61420910D01*
X123597910Y-61379543D01*
X123610462Y-61336494D01*
X123625064Y-61295310D01*
X123639357Y-61262260D01*
X123672317Y-61203952D01*
X123713796Y-61146595D01*
X123762188Y-61091977D01*
X123815886Y-61041888D01*
X123873285Y-60998117D01*
X123881313Y-60992735D01*
X123903119Y-60978140D01*
X123917366Y-60967905D01*
X123925128Y-60961036D01*
X123927480Y-60956537D01*
X123925498Y-60953413D01*
X123924498Y-60952759D01*
X123916491Y-60947746D01*
X123902289Y-60938629D01*
X123884185Y-60926886D01*
X123871436Y-60918561D01*
X123803410Y-60868623D01*
X123744197Y-60813665D01*
X123693818Y-60753722D01*
X123652297Y-60688829D01*
X123619657Y-60619020D01*
X123595920Y-60544330D01*
X123583653Y-60483050D01*
X123580274Y-60462205D01*
X123577188Y-60445452D01*
X123574845Y-60435122D01*
X123574026Y-60433014D01*
X123566699Y-60432312D01*
X123552468Y-60436343D01*
X123532942Y-60444296D01*
X123509732Y-60455361D01*
X123484449Y-60468728D01*
X123458703Y-60483587D01*
X123434105Y-60499128D01*
X123412899Y-60514061D01*
X123358188Y-60561431D01*
X123311420Y-60615070D01*
X123272744Y-60674730D01*
X123242308Y-60740165D01*
X123220261Y-60811127D01*
X123212493Y-60848240D01*
X123208346Y-60880660D01*
X123205851Y-60919775D01*
X123205010Y-60962255D01*
X123085761Y-60962255D01*
X123085991Y-60932986D01*
X123088052Y-60887625D01*
X123091780Y-60846206D01*
X123097150Y-60811517D01*
X123097759Y-60808605D01*
X123119497Y-60729365D01*
X123149438Y-60655991D01*
X123187785Y-60588170D01*
X123234739Y-60525586D01*
X123290504Y-60467923D01*
X123346889Y-60421105D01*
X123378620Y-60399038D01*
X123415879Y-60376066D01*
X123455914Y-60353668D01*
X123495972Y-60333318D01*
X123533301Y-60316494D01*
X123562197Y-60305617D01*
X123578109Y-60300160D01*
X123589714Y-60295704D01*
X123593967Y-60293566D01*
X123596133Y-60287618D01*
X123599240Y-60274699D01*
X123601959Y-60261058D01*
X123611382Y-60220809D01*
X123625437Y-60175476D01*
X123642992Y-60128341D01*
X123662915Y-60082686D01*
X123664931Y-60078459D01*
X123704295Y-60005866D01*
X123749714Y-59938648D01*
X123800300Y-59877809D01*
X123855169Y-59824356D01*
X123913433Y-59779296D01*
X123947007Y-59758222D01*
X123975586Y-59741738D01*
X124114560Y-59741738D01*
X124118052Y-59831251D01*
X124128295Y-59919288D01*
X124144934Y-60004651D01*
X124167617Y-60086137D01*
X124195991Y-60162549D01*
X124229702Y-60232685D01*
X124268398Y-60295346D01*
X124283461Y-60315817D01*
X124351195Y-60395486D01*
X124425151Y-60467173D01*
X124505148Y-60530784D01*
X124591002Y-60586225D01*
X124682531Y-60633399D01*
X124779552Y-60672214D01*
X124881882Y-60702573D01*
X124989339Y-60724381D01*
X125094973Y-60737010D01*
X125178907Y-60739511D01*
X125260268Y-60733309D01*
X125338194Y-60718591D01*
X125411823Y-60695543D01*
X125480292Y-60664353D01*
X125510564Y-60646861D01*
X125543662Y-60623413D01*
X125579076Y-60593347D01*
X125614403Y-60559040D01*
X125647238Y-60522872D01*
X125675178Y-60487221D01*
X125682218Y-60477023D01*
X125723780Y-60406482D01*
X125757958Y-60331317D01*
X125784129Y-60253363D01*
X125801667Y-60174457D01*
X125809622Y-60102902D01*
X125810768Y-60074119D01*
X125810195Y-60053963D01*
X125807462Y-60040979D01*
X125802126Y-60033715D01*
X125793745Y-60030718D01*
X125787545Y-60030360D01*
X125768272Y-60034706D01*
X125744482Y-60047538D01*
X125719840Y-60065968D01*
X125660050Y-60109292D01*
X125593256Y-60146426D01*
X125520647Y-60177184D01*
X125443413Y-60201379D01*
X125362745Y-60218825D01*
X125279833Y-60229336D01*
X125195868Y-60232727D01*
X125112041Y-60228811D01*
X125029541Y-60217403D01*
X124949559Y-60198316D01*
X124924006Y-60190329D01*
X124850384Y-60161343D01*
X124782506Y-60125440D01*
X124720942Y-60083184D01*
X124666261Y-60035139D01*
X124619032Y-59981868D01*
X124579827Y-59923934D01*
X124549215Y-59861902D01*
X124528493Y-59799220D01*
X124519381Y-59750738D01*
X124514503Y-59694597D01*
X124513766Y-59632330D01*
X124517077Y-59565471D01*
X124524343Y-59495554D01*
X124535471Y-59424111D01*
X124550368Y-59352676D01*
X124557277Y-59324773D01*
X124589551Y-59219855D01*
X124631594Y-59115760D01*
X124683020Y-59013027D01*
X124743444Y-58912198D01*
X124812479Y-58813810D01*
X124889738Y-58718405D01*
X124974836Y-58626521D01*
X125067386Y-58538699D01*
X125167002Y-58455478D01*
X125186722Y-58440285D01*
X125364286Y-58440285D01*
X125368611Y-58443370D01*
X125380179Y-58449526D01*
X125396952Y-58457698D01*
X125407517Y-58462607D01*
X125471549Y-58495251D01*
X125539291Y-58536124D01*
X125609721Y-58584463D01*
X125681818Y-58639504D01*
X125754561Y-58700486D01*
X125826928Y-58766645D01*
X125867252Y-58806013D01*
X125972748Y-58917573D01*
X126073436Y-59036612D01*
X126169836Y-59163795D01*
X126262472Y-59299785D01*
X126291310Y-59345117D01*
X126307188Y-59370363D01*
X126321360Y-59392668D01*
X126332894Y-59410582D01*
X126340855Y-59422651D01*
X126344217Y-59427342D01*
X126348918Y-59425590D01*
X126357659Y-59417236D01*
X126368666Y-59404010D01*
X126370232Y-59401942D01*
X126447515Y-59306679D01*
X126533826Y-59214996D01*
X126628547Y-59127273D01*
X126731061Y-59043892D01*
X126840752Y-58965236D01*
X126957002Y-58891685D01*
X127079194Y-58823623D01*
X127206713Y-58761430D01*
X127338939Y-58705489D01*
X127475258Y-58656181D01*
X127615052Y-58613888D01*
X127664465Y-58600870D01*
X127690066Y-58594575D01*
X127719591Y-58587628D01*
X127751310Y-58580402D01*
X127783493Y-58573270D01*
X127814408Y-58566605D01*
X127842325Y-58560780D01*
X127865513Y-58556169D01*
X127882243Y-58553145D01*
X127890716Y-58552080D01*
X127890996Y-58547348D01*
X127889973Y-58534314D01*
X127887869Y-58514718D01*
X127884905Y-58490305D01*
X127881301Y-58462816D01*
X127877280Y-58433993D01*
X127873062Y-58405579D01*
X127868869Y-58379316D01*
X127868451Y-58376820D01*
X127856901Y-58316345D01*
X127841845Y-58250002D01*
X127824126Y-58181108D01*
X127804590Y-58112976D01*
X127787579Y-58059320D01*
X127774233Y-58020870D01*
X127758837Y-57979222D01*
X127742222Y-57936411D01*
X127725219Y-57894472D01*
X127708658Y-57855440D01*
X127693370Y-57821349D01*
X127680185Y-57794236D01*
X127676641Y-57787540D01*
X127662999Y-57762459D01*
X127751566Y-57762459D01*
X127752506Y-57768807D01*
X127756914Y-57780220D01*
X127765156Y-57798537D01*
X127767910Y-57804525D01*
X127826043Y-57942887D01*
X127874761Y-58084879D01*
X127913901Y-58229937D01*
X127943303Y-58377496D01*
X127955042Y-58457773D01*
X127958603Y-58485143D01*
X127961784Y-58508668D01*
X127964343Y-58526641D01*
X127966039Y-58537353D01*
X127966566Y-58539612D01*
X127971739Y-58539300D01*
X127985125Y-58537830D01*
X128004869Y-58535423D01*
X128029119Y-58532298D01*
X128037283Y-58531216D01*
X128191804Y-58513792D01*
X128353702Y-58501671D01*
X128521689Y-58494851D01*
X128694477Y-58493328D01*
X128870779Y-58497098D01*
X129049308Y-58506159D01*
X129228776Y-58520507D01*
X129362200Y-58534616D01*
X129573830Y-58563165D01*
X129785478Y-58599196D01*
X129995989Y-58642397D01*
X130204211Y-58692456D01*
X130408989Y-58749064D01*
X130609169Y-58811909D01*
X130803598Y-58880679D01*
X130991121Y-58955065D01*
X131104640Y-59004419D01*
X131139786Y-59020587D01*
X131182191Y-59040650D01*
X131230341Y-59063850D01*
X131282721Y-59089429D01*
X131337815Y-59116628D01*
X131394110Y-59144691D01*
X131450089Y-59172858D01*
X131504240Y-59200371D01*
X131555045Y-59226473D01*
X131600992Y-59250405D01*
X131640565Y-59271408D01*
X131668280Y-59286516D01*
X131756941Y-59335714D01*
X131773856Y-59316007D01*
X131834342Y-59238228D01*
X131889853Y-59151647D01*
X131940351Y-59056341D01*
X131985799Y-58952389D01*
X132026157Y-58839868D01*
X132056931Y-58735697D01*
X132063476Y-58710565D01*
X132068942Y-58688105D01*
X132072799Y-58670593D01*
X132074520Y-58660310D01*
X132074558Y-58659656D01*
X132073761Y-58655212D01*
X132070342Y-58650518D01*
X132063172Y-58644887D01*
X132051125Y-58637627D01*
X132033072Y-58628052D01*
X132007886Y-58615471D01*
X131980126Y-58601948D01*
X131847865Y-58540049D01*
X131707227Y-58478295D01*
X131559978Y-58417400D01*
X131407882Y-58358075D01*
X131252708Y-58301035D01*
X131125389Y-58256799D01*
X130837269Y-58164616D01*
X130544822Y-58081526D01*
X130248364Y-58007588D01*
X129948213Y-57942861D01*
X129644688Y-57887401D01*
X129338106Y-57841268D01*
X129028786Y-57804519D01*
X128717045Y-57777213D01*
X128409700Y-57759679D01*
X128383007Y-57758755D01*
X128349543Y-57757914D01*
X128310373Y-57757161D01*
X128266560Y-57756499D01*
X128219168Y-57755931D01*
X128169259Y-57755460D01*
X128117899Y-57755089D01*
X128066149Y-57754824D01*
X128015074Y-57754665D01*
X127965738Y-57754618D01*
X127919204Y-57754685D01*
X127876535Y-57754869D01*
X127838796Y-57755175D01*
X127807050Y-57755606D01*
X127782360Y-57756164D01*
X127765789Y-57756854D01*
X127758640Y-57757604D01*
X127753732Y-57759338D01*
X127751566Y-57762459D01*
X127662999Y-57762459D01*
X127662825Y-57762140D01*
X127619702Y-57763705D01*
X127600496Y-57764606D01*
X127573725Y-57766145D01*
X127541951Y-57768160D01*
X127507739Y-57770488D01*
X127477520Y-57772678D01*
X127269667Y-57791766D01*
X127066959Y-57817514D01*
X126869702Y-57849826D01*
X126678204Y-57888611D01*
X126492771Y-57933774D01*
X126313712Y-57985222D01*
X126141333Y-58042862D01*
X125975941Y-58106600D01*
X125817845Y-58176343D01*
X125667350Y-58251997D01*
X125524765Y-58333470D01*
X125426470Y-58396150D01*
X125404589Y-58410930D01*
X125386083Y-58423749D01*
X125372431Y-58433558D01*
X125365116Y-58439304D01*
X125364286Y-58440285D01*
X125186722Y-58440285D01*
X125194648Y-58434178D01*
X125326751Y-58340116D01*
X125467126Y-58251673D01*
X125615541Y-58168908D01*
X125771766Y-58091876D01*
X125935568Y-58020637D01*
X126106718Y-57955248D01*
X126284984Y-57895766D01*
X126470135Y-57842249D01*
X126661940Y-57794755D01*
X126860168Y-57753340D01*
X127064588Y-57718064D01*
X127274969Y-57688983D01*
X127491079Y-57666155D01*
X127712689Y-57649637D01*
X127939565Y-57639488D01*
X128171479Y-57635765D01*
X128388147Y-57638042D01*
X128680796Y-57649496D01*
X128973527Y-57670369D01*
X129265737Y-57700539D01*
X129556822Y-57739884D01*
X129846179Y-57788284D01*
X130133205Y-57845616D01*
X130417296Y-57911760D01*
X130697849Y-57986594D01*
X130974261Y-58069996D01*
X131245927Y-58161845D01*
X131512245Y-58262019D01*
X131537264Y-58271971D01*
X131749656Y-58360516D01*
X131955163Y-58453556D01*
X132153567Y-58550934D01*
X132344654Y-58652492D01*
X132528207Y-58758073D01*
X132704008Y-58867519D01*
X132871844Y-58980672D01*
X133031496Y-59097376D01*
X133182749Y-59217472D01*
X133325387Y-59340803D01*
X133459193Y-59467211D01*
X133583952Y-59596540D01*
X133699446Y-59728630D01*
X133805460Y-59863325D01*
X133894642Y-59989720D01*
X133953778Y-60082069D01*
X134010130Y-60177400D01*
X134062566Y-60273596D01*
X134109953Y-60368541D01*
X134151161Y-60460117D01*
X134167854Y-60500842D01*
X134200279Y-60582703D01*
X134263911Y-60586238D01*
X134355984Y-60595372D01*
X134443505Y-60612537D01*
X134528735Y-60638226D01*
X134565390Y-60652074D01*
X134586790Y-60660462D01*
X134604255Y-60666961D01*
X134615938Y-60670908D01*
X134620000Y-60671680D01*
X134618665Y-60666168D01*
X134615055Y-60653033D01*
X134609765Y-60634402D01*
X134604980Y-60617859D01*
X134560490Y-60480223D01*
X134506929Y-60341016D01*
X134444955Y-60201592D01*
X134375229Y-60063301D01*
X134298409Y-59927497D01*
X134215155Y-59795531D01*
X134176235Y-59738429D01*
X134105500Y-59640260D01*
X134033335Y-59546657D01*
X133958081Y-59455656D01*
X133878079Y-59365294D01*
X133791668Y-59273606D01*
X133733789Y-59214874D01*
X133587998Y-59075457D01*
X133434605Y-58940992D01*
X133273281Y-58811233D01*
X133103695Y-58685935D01*
X132925517Y-58564853D01*
X132738418Y-58447740D01*
X132572760Y-58351491D01*
X132350089Y-58231763D01*
X132119900Y-58118454D01*
X131882660Y-58011699D01*
X131638835Y-57911636D01*
X131388892Y-57818399D01*
X131133297Y-57732124D01*
X130872517Y-57652949D01*
X130607020Y-57581009D01*
X130337270Y-57516440D01*
X130063736Y-57459379D01*
X129786883Y-57409960D01*
X129507179Y-57368321D01*
X129225090Y-57334598D01*
X129019300Y-57315171D01*
X128794724Y-57299262D01*
X128568246Y-57288935D01*
X128341067Y-57284146D01*
X128114389Y-57284849D01*
X127889413Y-57290999D01*
X127667342Y-57302550D01*
X127449376Y-57319457D01*
X127236719Y-57341675D01*
X127030572Y-57369157D01*
X126860300Y-57396811D01*
X126655405Y-57436446D01*
X126457102Y-57481710D01*
X126265563Y-57532509D01*
X126080961Y-57588751D01*
X125903466Y-57650343D01*
X125733252Y-57717192D01*
X125570491Y-57789204D01*
X125415355Y-57866286D01*
X125268016Y-57948346D01*
X125128647Y-58035290D01*
X124997419Y-58127025D01*
X124874506Y-58223458D01*
X124760079Y-58324496D01*
X124654310Y-58430046D01*
X124557372Y-58540015D01*
X124469437Y-58654309D01*
X124431224Y-58709560D01*
X124358853Y-58826871D01*
X124295543Y-58948212D01*
X124241447Y-59073082D01*
X124196721Y-59200980D01*
X124161518Y-59331404D01*
X124135990Y-59463851D01*
X124120294Y-59597822D01*
X124114582Y-59732813D01*
X124114560Y-59741738D01*
X123975586Y-59741738D01*
X123986605Y-59735382D01*
X123989746Y-59680941D01*
X123997775Y-59574471D01*
X124009326Y-59475509D01*
X124024803Y-59381895D01*
X124044607Y-59291469D01*
X124069143Y-59202069D01*
X124092639Y-59129281D01*
X124142876Y-58998474D01*
X124202499Y-58871223D01*
X124271334Y-58747644D01*
X124349209Y-58627848D01*
X124435949Y-58511951D01*
X124531381Y-58400067D01*
X124635332Y-58292309D01*
X124747630Y-58188791D01*
X124868099Y-58089628D01*
X124996568Y-57994933D01*
X125132862Y-57904820D01*
X125276809Y-57819404D01*
X125428235Y-57738799D01*
X125586967Y-57663117D01*
X125752831Y-57592474D01*
X125925654Y-57526983D01*
X126105263Y-57466759D01*
X126291485Y-57411915D01*
X126484146Y-57362565D01*
X126683072Y-57318823D01*
X126888092Y-57280804D01*
X126908560Y-57277381D01*
X127015878Y-57260388D01*
X127122232Y-57245182D01*
X127229300Y-57231585D01*
X127338754Y-57219419D01*
X127452272Y-57208505D01*
X127571528Y-57198666D01*
X127698198Y-57189724D01*
X127782320Y-57184485D01*
X127814053Y-57182986D01*
X127854725Y-57181680D01*
X127903114Y-57180569D01*
X127958000Y-57179650D01*
X128018164Y-57178926D01*
X128082384Y-57178394D01*
X128149440Y-57178057D01*
X128218112Y-57177913D01*
X128287179Y-57177962D01*
G36*
X128287179Y-57177962D02*
G01*
X128355422Y-57178205D01*
X128421620Y-57178642D01*
X128484553Y-57179272D01*
X128542999Y-57180096D01*
X128595740Y-57181113D01*
X128641555Y-57182324D01*
X128679223Y-57183729D01*
X128694180Y-57184479D01*
X128922254Y-57199294D01*
X129142657Y-57217866D01*
X129357248Y-57240426D01*
X129567882Y-57267203D01*
X129776418Y-57298425D01*
X129984712Y-57334323D01*
X130126740Y-57361438D01*
X130384528Y-57416080D01*
X130637889Y-57476867D01*
X130886551Y-57543657D01*
X131130243Y-57616310D01*
X131368694Y-57694684D01*
X131601632Y-57778637D01*
X131828785Y-57868029D01*
X132049883Y-57962716D01*
X132264653Y-58062559D01*
X132472825Y-58167415D01*
X132674126Y-58277144D01*
X132868286Y-58391603D01*
X133055033Y-58510651D01*
X133234096Y-58634147D01*
X133405202Y-58761949D01*
X133568082Y-58893916D01*
X133722462Y-59029906D01*
X133868073Y-59169778D01*
X134004641Y-59313390D01*
X134114593Y-59439711D01*
X134223660Y-59576986D01*
X134325264Y-59718201D01*
X134419063Y-59862706D01*
X134504714Y-60009851D01*
X134581876Y-60158986D01*
X134650204Y-60309460D01*
X134709358Y-60460623D01*
X134758995Y-60611826D01*
X134788312Y-60719009D01*
X134804251Y-60782656D01*
X134827083Y-60798365D01*
X134850346Y-60815409D01*
X134875671Y-60835680D01*
X134901020Y-60857376D01*
X134924358Y-60878692D01*
X134943647Y-60897825D01*
X134956850Y-60912972D01*
X134957479Y-60913817D01*
X134971595Y-60936065D01*
X134977820Y-60954722D01*
X134976570Y-60972043D01*
X134970815Y-60985819D01*
X134961444Y-60999009D01*
X134945706Y-61016697D01*
X134925330Y-61037247D01*
X134902045Y-61059018D01*
X134877582Y-61080372D01*
X134853669Y-61099670D01*
X134839911Y-61109860D01*
X134822384Y-61122635D01*
X134811308Y-61132254D01*
X134804702Y-61141229D01*
X134800586Y-61152076D01*
X134797887Y-61163200D01*
X134791853Y-61187923D01*
X134783219Y-61220084D01*
X134772636Y-61257497D01*
X134760759Y-61297976D01*
X134748241Y-61339334D01*
X134735736Y-61379386D01*
X134723897Y-61415945D01*
X134713377Y-61446826D01*
X134711629Y-61451738D01*
X134646883Y-61617169D01*
X134572418Y-61779721D01*
X134488275Y-61939341D01*
X134394493Y-62095977D01*
X134291114Y-62249578D01*
X134178177Y-62400090D01*
X134055722Y-62547463D01*
X133923790Y-62691643D01*
X133782420Y-62832578D01*
X133631654Y-62970217D01*
X133471531Y-63104506D01*
X133388100Y-63170281D01*
X133219017Y-63295605D01*
X133040870Y-63417423D01*
X132854241Y-63535411D01*
X132659715Y-63649246D01*
X132457873Y-63758603D01*
X132249302Y-63863160D01*
X132034583Y-63962593D01*
X131814300Y-64056577D01*
X131726940Y-64091711D01*
X131460042Y-64192075D01*
X131187710Y-64284365D01*
X130910589Y-64368491D01*
X130629325Y-64444368D01*
X130344562Y-64511907D01*
X130056947Y-64571022D01*
X129767126Y-64621624D01*
X129475744Y-64663627D01*
X129183446Y-64696942D01*
X128890879Y-64721483D01*
X128598688Y-64737162D01*
X128326462Y-64743453D01*
X128307519Y-64743891D01*
X128018017Y-64741583D01*
X127730827Y-64730151D01*
X127446597Y-64709507D01*
X127284480Y-64693401D01*
X127066578Y-64666069D01*
X126853304Y-64632277D01*
X126645035Y-64592149D01*
X126442147Y-64545808D01*
X126245017Y-64493377D01*
X126054021Y-64434981D01*
X125869535Y-64370742D01*
X125691937Y-64300784D01*
X125521602Y-64225231D01*
X125358908Y-64144204D01*
X125204230Y-64057829D01*
X125057945Y-63966229D01*
X125050407Y-63961212D01*
X124918941Y-63868400D01*
X124795445Y-63770872D01*
X124680085Y-63668872D01*
X124573029Y-63562648D01*
X124474443Y-63452445D01*
X124384494Y-63338510D01*
X124303350Y-63221089D01*
X124231175Y-63100427D01*
X124168139Y-62976770D01*
X124114407Y-62850365D01*
X124070146Y-62721458D01*
X124035523Y-62590295D01*
X124010705Y-62457121D01*
X124005662Y-62420500D01*
X124002812Y-62395699D01*
X123999758Y-62365051D01*
X123996688Y-62330915D01*
X123993789Y-62295652D01*
X123991248Y-62261621D01*
X123989253Y-62231181D01*
X123987992Y-62206693D01*
X123987638Y-62193513D01*
X123984250Y-62181774D01*
X124114620Y-62181774D01*
X124118108Y-62291084D01*
X124129403Y-62406515D01*
X124132637Y-62430660D01*
X124156419Y-62564334D01*
X124190036Y-62695810D01*
X124233322Y-62824695D01*
X124286112Y-62950597D01*
X124348242Y-63073121D01*
X124419548Y-63191876D01*
X124498837Y-63305104D01*
X124539024Y-63355995D01*
X124585650Y-63410822D01*
X124636866Y-63467648D01*
X124690821Y-63524537D01*
X124745666Y-63579549D01*
X124799549Y-63630749D01*
X124850621Y-63676197D01*
X124863860Y-63687373D01*
X124994706Y-63790077D01*
X125133891Y-63887119D01*
X125281287Y-63978455D01*
X125436768Y-64064047D01*
X125600210Y-64143851D01*
X125771486Y-64217827D01*
X125950469Y-64285932D01*
X126137036Y-64348126D01*
X126331059Y-64404368D01*
X126532413Y-64454615D01*
X126740972Y-64498827D01*
X126956610Y-64536961D01*
X127179202Y-64568977D01*
X127408621Y-64594833D01*
X127644742Y-64614487D01*
X127688340Y-64617389D01*
X127839537Y-64625451D01*
X127997989Y-64630856D01*
X128161147Y-64633608D01*
X128326462Y-64633713D01*
X128491384Y-64631178D01*
X128653364Y-64626007D01*
X128809853Y-64618207D01*
X128864360Y-64614756D01*
X129171241Y-64589382D01*
X129475647Y-64554658D01*
X129777270Y-64510652D01*
X130075805Y-64457433D01*
X130370945Y-64395070D01*
X130662384Y-64323633D01*
X130949816Y-64243189D01*
X131232935Y-64153808D01*
X131511434Y-64055558D01*
X131733931Y-63969316D01*
X131889947Y-63904043D01*
X132047661Y-63833614D01*
X132204941Y-63759086D01*
X132359656Y-63681512D01*
X132509674Y-63601949D01*
X132652864Y-63521451D01*
X132728182Y-63477015D01*
X132915112Y-63360193D01*
X133093375Y-63239583D01*
X133262884Y-63115281D01*
X133423555Y-62987384D01*
X133575304Y-62855989D01*
X133718046Y-62721193D01*
X133851697Y-62583093D01*
X133976171Y-62441786D01*
X134091386Y-62297368D01*
X134197255Y-62149937D01*
X134293695Y-61999589D01*
X134380620Y-61846422D01*
X134457947Y-61690533D01*
X134525591Y-61532017D01*
X134583467Y-61370973D01*
X134594023Y-61337957D01*
X134602486Y-61310619D01*
X134609788Y-61286448D01*
X134615411Y-61267203D01*
X134618839Y-61254643D01*
X134619656Y-61250762D01*
X134617383Y-61247612D01*
X134608908Y-61249503D01*
X134600950Y-61252791D01*
X134575084Y-61263253D01*
X134542389Y-61274991D01*
X134505943Y-61287029D01*
X134468824Y-61298394D01*
X134434111Y-61308111D01*
X134404883Y-61315205D01*
X134401560Y-61315902D01*
X134373076Y-61320734D01*
X134338556Y-61325067D01*
X134302119Y-61328436D01*
X134275042Y-61330097D01*
X134207868Y-61333110D01*
X134201864Y-61333380D01*
X134167256Y-61419409D01*
X134103754Y-61564078D01*
X134030378Y-61707061D01*
X133947310Y-61848112D01*
X133854733Y-61986984D01*
X133847097Y-61997208D01*
X133752830Y-62123430D01*
X133641783Y-62257204D01*
X133521776Y-62388059D01*
X133392992Y-62515749D01*
X133273800Y-62624205D01*
X133119190Y-62753445D01*
X132955430Y-62878665D01*
X132782752Y-62999738D01*
X132601391Y-63116538D01*
X132411579Y-63228939D01*
X132213551Y-63336815D01*
X132158300Y-63364498D01*
X132007539Y-63440038D01*
X131793778Y-63538483D01*
X131572500Y-63632022D01*
X131343940Y-63720531D01*
X131108330Y-63803881D01*
X131073887Y-63815434D01*
X130791570Y-63904344D01*
X130506332Y-63983916D01*
X130217918Y-64054196D01*
X129926075Y-64115235D01*
X129630550Y-64167079D01*
X129331091Y-64209777D01*
X129027443Y-64243377D01*
X128719354Y-64267927D01*
X128686560Y-64269993D01*
X128639279Y-64272472D01*
X128583448Y-64274683D01*
X128520673Y-64276610D01*
X128452562Y-64278239D01*
X128380721Y-64279552D01*
X128306756Y-64280536D01*
X128232275Y-64281174D01*
X128190027Y-64281332D01*
X128158884Y-64281450D01*
X128088190Y-64281349D01*
X128021799Y-64280857D01*
X127961319Y-64279956D01*
X127908355Y-64278632D01*
X127883920Y-64277754D01*
X127665513Y-64265725D01*
X127652569Y-64265012D01*
X127427257Y-64245894D01*
X127208179Y-64220451D01*
X126995535Y-64188734D01*
X126834816Y-64159135D01*
X127747252Y-64159135D01*
X127771136Y-64162300D01*
X127786101Y-64163580D01*
X127810087Y-64164745D01*
X127841953Y-64165790D01*
X127880563Y-64166707D01*
X127924776Y-64167491D01*
X127973453Y-64168135D01*
X128025456Y-64168633D01*
X128079645Y-64168980D01*
X128134881Y-64169169D01*
X128190027Y-64169194D01*
X128243941Y-64169048D01*
X128295486Y-64168726D01*
X128343522Y-64168221D01*
X128386911Y-64167527D01*
X128424514Y-64166638D01*
X128445260Y-64165955D01*
X128745146Y-64150077D01*
X129042769Y-64125274D01*
X129337784Y-64091629D01*
X129629845Y-64049222D01*
X129918607Y-63998137D01*
X130203725Y-63938456D01*
X130484853Y-63870260D01*
X130761646Y-63793633D01*
X131033759Y-63708655D01*
X131300846Y-63615409D01*
X131562562Y-63513978D01*
X131818562Y-63404444D01*
X131999990Y-63320204D01*
X132031367Y-63304827D01*
X132054212Y-63292861D01*
X132069367Y-63283807D01*
X132077676Y-63277163D01*
X132080000Y-63272748D01*
X132078791Y-63264731D01*
X132075473Y-63248935D01*
X132070508Y-63227415D01*
X132064358Y-63202221D01*
X132062154Y-63193477D01*
X132031723Y-63085946D01*
X131996525Y-62983644D01*
X131956949Y-62887412D01*
X131913390Y-62798094D01*
X131866237Y-62716532D01*
X131815885Y-62643571D01*
X131792922Y-62614537D01*
X131764364Y-62579973D01*
X131725332Y-62601502D01*
X131672111Y-62630717D01*
X131623632Y-62656992D01*
X131577552Y-62681552D01*
X131531530Y-62705623D01*
X131483222Y-62730431D01*
X131430287Y-62757201D01*
X131373880Y-62785418D01*
X131276946Y-62833160D01*
X131187014Y-62876217D01*
X131102460Y-62915274D01*
X131021661Y-62951016D01*
X130942992Y-62984127D01*
X130864831Y-63015294D01*
X130785554Y-63045200D01*
X130703536Y-63074530D01*
X130624580Y-63101488D01*
X130391193Y-63174857D01*
X130158055Y-63238555D01*
X129924148Y-63292781D01*
X129688454Y-63337738D01*
X129449955Y-63373628D01*
X129207631Y-63400650D01*
X129044700Y-63413754D01*
X128979650Y-63417533D01*
X128907893Y-63420512D01*
X128831218Y-63422690D01*
X128751416Y-63424066D01*
X128744520Y-63424114D01*
X128670278Y-63424641D01*
X128589594Y-63424414D01*
X128511156Y-63423384D01*
X128436753Y-63421552D01*
X128368176Y-63418918D01*
X128307217Y-63415480D01*
X128285240Y-63413870D01*
X128245794Y-63410556D01*
X128203691Y-63406679D01*
X128160609Y-63402423D01*
X128118227Y-63397975D01*
X128078225Y-63393518D01*
X128042281Y-63389237D01*
X128012074Y-63385318D01*
X127989284Y-63381944D01*
X127979702Y-63380226D01*
X127972363Y-63379254D01*
X127968017Y-63381489D01*
X127965448Y-63389045D01*
X127963439Y-63404036D01*
X127962845Y-63409544D01*
X127958870Y-63442193D01*
X127953307Y-63481597D01*
X127946653Y-63524702D01*
X127939406Y-63568457D01*
X127932064Y-63609808D01*
X127925122Y-63645704D01*
X127921839Y-63661191D01*
X127903949Y-63735153D01*
X127882659Y-63811417D01*
X127858721Y-63887772D01*
X127832891Y-63962009D01*
X127805923Y-64031920D01*
X127778569Y-64095293D01*
X127761635Y-64130558D01*
X127747252Y-64159135D01*
X126834816Y-64159135D01*
X126789520Y-64150793D01*
X126590334Y-64106679D01*
X126398173Y-64056442D01*
X126213234Y-64000133D01*
X126035716Y-63937802D01*
X125865815Y-63869501D01*
X125703730Y-63795278D01*
X125549658Y-63715185D01*
X125442980Y-63653416D01*
X125315567Y-63571586D01*
X125301988Y-63561768D01*
X125196910Y-63485792D01*
X125189643Y-63479858D01*
X125369069Y-63479858D01*
X125441584Y-63527381D01*
X125573724Y-63608617D01*
X125714396Y-63684799D01*
X125863259Y-63755823D01*
X126019972Y-63821585D01*
X126184195Y-63881980D01*
X126355587Y-63936904D01*
X126533807Y-63986253D01*
X126718513Y-64029923D01*
X126909367Y-64067810D01*
X127106026Y-64099810D01*
X127308149Y-64125817D01*
X127444500Y-64139661D01*
X127481347Y-64142939D01*
X127518672Y-64146129D01*
X127553925Y-64149023D01*
X127584558Y-64151410D01*
X127608024Y-64153085D01*
X127610886Y-64153269D01*
X127665513Y-64156709D01*
X127695560Y-64093785D01*
X127745575Y-63980157D01*
X127788575Y-63863137D01*
X127824864Y-63741630D01*
X127854745Y-63614541D01*
X127878523Y-63480776D01*
X127890724Y-63390780D01*
X127892268Y-63378737D01*
X127893318Y-63371827D01*
X127889680Y-63368039D01*
X127882650Y-63365653D01*
X127873124Y-63363718D01*
X127856197Y-63360387D01*
X127834447Y-63356163D01*
X127815340Y-63352488D01*
X127741915Y-63336795D01*
X127662531Y-63316909D01*
X127580047Y-63293680D01*
X127497322Y-63267959D01*
X127417217Y-63240596D01*
X127342590Y-63212442D01*
X127336877Y-63210155D01*
X127296456Y-63193121D01*
X127249766Y-63172159D01*
X127199297Y-63148485D01*
X127147541Y-63123318D01*
X127096989Y-63097873D01*
X127050131Y-63073368D01*
X127009460Y-63051021D01*
X126999718Y-63045431D01*
X126892927Y-62979562D01*
X126789935Y-62908317D01*
X126691865Y-62832645D01*
X126599842Y-62753493D01*
X126514988Y-62671811D01*
X126438428Y-62588548D01*
X126392940Y-62533128D01*
X126376632Y-62512439D01*
X126362537Y-62494918D01*
X126351820Y-62481983D01*
X126345648Y-62475057D01*
X126344680Y-62474279D01*
X126341189Y-62478228D01*
X126333986Y-62489060D01*
X126324348Y-62504810D01*
X126319385Y-62513273D01*
X126304350Y-62538233D01*
X126284535Y-62569622D01*
X126261140Y-62605655D01*
X126235364Y-62644547D01*
X126208409Y-62684515D01*
X126181473Y-62723774D01*
X126155758Y-62760539D01*
X126132464Y-62793026D01*
X126118696Y-62811660D01*
X126043776Y-62907425D01*
X125966412Y-62998662D01*
X125887314Y-63084718D01*
X125807192Y-63164937D01*
X125726754Y-63238665D01*
X125646712Y-63305246D01*
X125567774Y-63364025D01*
X125490649Y-63414348D01*
X125427206Y-63449903D01*
X125369069Y-63479858D01*
X125189643Y-63479858D01*
X125087151Y-63396168D01*
X124986432Y-63302853D01*
X124894894Y-63205981D01*
X124812678Y-63105689D01*
X124739928Y-63002113D01*
X124704442Y-62944546D01*
X124648355Y-62839561D01*
X124602137Y-62732360D01*
X124565657Y-62622516D01*
X124538783Y-62509602D01*
X124521384Y-62393191D01*
X124516068Y-62331600D01*
X124513868Y-62253701D01*
X124518219Y-62182873D01*
X124529455Y-62118156D01*
X124547907Y-62058589D01*
X124573906Y-62003210D01*
X124607786Y-61951058D01*
X124649878Y-61901171D01*
X124672699Y-61878132D01*
X124729706Y-61829167D01*
X124791793Y-61787539D01*
X124859786Y-61752831D01*
X124934513Y-61724626D01*
X125016800Y-61702506D01*
X125023880Y-61700955D01*
X125042916Y-61697103D01*
X125060747Y-61694201D01*
X125079304Y-61692116D01*
X125100520Y-61690717D01*
X125126327Y-61689871D01*
X125158659Y-61689446D01*
X125194060Y-61689315D01*
X125244289Y-61689643D01*
X125286704Y-61690963D01*
X125323629Y-61693580D01*
X125357387Y-61697795D01*
X125390301Y-61703912D01*
X125424694Y-61712233D01*
X125462889Y-61723060D01*
X125470428Y-61725323D01*
X125522612Y-61743225D01*
X125574517Y-61764999D01*
X125624012Y-61789537D01*
X125668965Y-61815731D01*
X125707247Y-61842473D01*
X125726197Y-61858383D01*
X125745827Y-61874505D01*
X125763702Y-61885803D01*
X125777961Y-61891235D01*
X125784610Y-61891060D01*
X125788880Y-61884390D01*
X125790667Y-61869232D01*
X125790110Y-61846915D01*
X125787348Y-61818766D01*
X125782518Y-61786115D01*
X125775761Y-61750289D01*
X125767214Y-61712617D01*
X125765109Y-61704220D01*
X125739490Y-61619985D01*
X125707304Y-61541745D01*
X125668914Y-61470000D01*
X125624684Y-61405253D01*
X125574975Y-61348007D01*
X125520151Y-61298763D01*
X125460574Y-61258023D01*
X125430956Y-61241916D01*
X125370404Y-61215687D01*
X125307223Y-61196641D01*
X125240571Y-61184714D01*
X125169609Y-61179842D01*
X125093495Y-61181960D01*
X125011388Y-61191003D01*
X124936762Y-61203987D01*
X124834027Y-61228817D01*
X124737849Y-61261132D01*
X124647537Y-61301294D01*
X124562402Y-61349664D01*
X124481756Y-61406604D01*
X124404909Y-61472476D01*
X124380575Y-61495928D01*
X124340398Y-61536942D01*
X124307037Y-61573950D01*
X124279049Y-61608861D01*
X124254991Y-61643588D01*
X124233422Y-61680042D01*
X124215788Y-61714175D01*
X124179598Y-61798392D01*
X124151429Y-61886893D01*
X124131238Y-61980046D01*
X124118982Y-62078217D01*
X124114620Y-62181774D01*
X123984250Y-62181774D01*
X123984034Y-62181025D01*
X123977467Y-62176682D01*
X123964240Y-62170521D01*
X123945294Y-62159143D01*
X123922609Y-62143960D01*
X123898162Y-62126386D01*
X123873933Y-62107834D01*
X123851902Y-62089715D01*
X123837381Y-62076666D01*
X123775762Y-62011230D01*
X123721531Y-61939123D01*
X123675074Y-61861037D01*
X123636779Y-61777665D01*
X123607034Y-61689701D01*
X123595479Y-61644169D01*
X123588780Y-61614597D01*
X123579611Y-61611535D01*
X123550680Y-61601873D01*
X123529002Y-61593823D01*
X123502587Y-61582828D01*
X123475678Y-61570692D01*
X123463057Y-61564609D01*
X123387440Y-61522069D01*
X123358897Y-61501535D01*
X123695066Y-61501535D01*
X123695548Y-61575557D01*
X123705852Y-61648769D01*
X123725896Y-61720457D01*
X123755596Y-61789908D01*
X123779784Y-61833099D01*
X123805885Y-61870369D01*
X123838277Y-61908544D01*
X123874808Y-61945585D01*
X123913330Y-61979453D01*
X123951691Y-62008108D01*
X123985940Y-62028601D01*
X124002100Y-62036860D01*
X124007878Y-62007700D01*
X124011418Y-61991404D01*
X124016842Y-61968306D01*
X124023424Y-61941421D01*
X124030441Y-61913766D01*
X124030768Y-61912500D01*
X124055864Y-61824978D01*
X124083789Y-61746097D01*
X124115229Y-61674567D01*
X124150871Y-61609099D01*
X124191401Y-61548403D01*
X124237506Y-61491189D01*
X124277967Y-61447960D01*
X124362482Y-61369979D01*
X124452525Y-61300455D01*
X124547739Y-61239563D01*
X124647767Y-61187477D01*
X124752250Y-61144373D01*
X124860831Y-61110427D01*
X124973152Y-61085813D01*
X125036580Y-61076293D01*
X125075234Y-61072682D01*
X125119936Y-61070579D01*
X125167987Y-61069944D01*
X125216684Y-61070733D01*
X125263328Y-61072904D01*
X125305218Y-61076414D01*
X125338840Y-61081073D01*
X125420939Y-61100233D01*
X125496417Y-61127080D01*
X125565436Y-61161734D01*
X125628156Y-61204317D01*
X125684738Y-61254949D01*
X125735344Y-61313753D01*
X125780133Y-61380848D01*
X125809097Y-61434821D01*
X125833969Y-61488980D01*
X125853852Y-61540396D01*
X125870252Y-61593400D01*
X125884362Y-61650880D01*
X125893545Y-61694698D01*
X125900779Y-61735139D01*
X125906270Y-61774380D01*
X125910220Y-61814595D01*
X125912836Y-61857959D01*
X125914319Y-61906647D01*
X125914876Y-61962833D01*
X125914895Y-61976000D01*
X125914531Y-62037490D01*
X125913361Y-62089717D01*
X125911305Y-62133552D01*
X125908283Y-62169866D01*
X125904215Y-62199532D01*
X125899022Y-62223419D01*
X125892623Y-62242400D01*
X125889930Y-62248361D01*
X125867596Y-62282970D01*
X125835904Y-62315023D01*
X125795399Y-62344245D01*
X125746624Y-62370356D01*
X125690123Y-62393081D01*
X125626440Y-62412142D01*
X125556119Y-62427261D01*
X125530883Y-62431441D01*
X125493743Y-62435778D01*
X125449384Y-62438755D01*
X125400527Y-62440371D01*
X125349893Y-62440624D01*
X125300207Y-62439515D01*
X125254188Y-62437042D01*
X125214561Y-62433205D01*
X125202676Y-62431535D01*
X125129739Y-62417639D01*
X125063306Y-62399764D01*
X125003905Y-62378181D01*
X124952060Y-62353162D01*
X124908297Y-62324979D01*
X124873142Y-62293904D01*
X124847120Y-62260208D01*
X124837880Y-62242862D01*
X124831106Y-62226560D01*
X124827371Y-62212177D01*
X124826040Y-62195761D01*
X124826475Y-62173357D01*
X124826520Y-62172276D01*
X124833167Y-62127833D01*
X124848756Y-62087048D01*
X124872644Y-62050214D01*
X124904188Y-62017621D01*
X124942745Y-61989561D01*
X124987671Y-61966323D01*
X125038323Y-61948200D01*
X125094059Y-61935481D01*
X125154236Y-61928459D01*
X125218209Y-61927423D01*
X125285335Y-61932665D01*
X125337822Y-61940980D01*
X125392019Y-61953633D01*
X125442545Y-61969725D01*
X125488748Y-61988728D01*
X125529977Y-62010115D01*
X125565579Y-62033358D01*
X125594904Y-62057931D01*
X125617299Y-62083305D01*
X125632113Y-62108953D01*
X125638693Y-62134349D01*
X125636390Y-62158964D01*
X125628611Y-62176317D01*
X125612002Y-62195634D01*
X125586815Y-62214829D01*
X125554610Y-62233055D01*
X125516943Y-62249468D01*
X125475372Y-62263222D01*
X125461823Y-62266842D01*
X125441849Y-62271405D01*
X125422572Y-62274561D01*
X125401394Y-62276541D01*
X125375714Y-62277572D01*
X125342937Y-62277884D01*
X125336300Y-62277881D01*
X125304199Y-62277670D01*
X125280135Y-62277000D01*
X125261987Y-62275659D01*
X125247635Y-62273435D01*
X125234959Y-62270116D01*
X125225278Y-62266781D01*
X125190443Y-62250622D01*
X125165115Y-62231429D01*
X125149382Y-62209293D01*
X125143331Y-62184307D01*
X125143260Y-62181103D01*
X125145881Y-62162017D01*
X125154819Y-62147406D01*
X125155493Y-62146677D01*
X125166531Y-62136445D01*
X125177080Y-62131406D01*
X125189401Y-62131610D01*
X125205754Y-62137105D01*
X125228402Y-62147940D01*
X125229068Y-62148280D01*
X125261668Y-62162603D01*
X125296574Y-62174033D01*
X125330188Y-62181564D01*
X125357639Y-62184192D01*
X125391424Y-62181402D01*
X125417943Y-62173303D01*
X125436808Y-62160908D01*
X125447631Y-62145230D01*
X125450025Y-62127283D01*
X125443602Y-62108080D01*
X125427973Y-62088634D01*
X125402751Y-62069958D01*
X125401622Y-62069292D01*
X125364118Y-62052182D01*
X125319843Y-62040014D01*
X125270897Y-62032778D01*
X125219379Y-62030460D01*
X125167390Y-62033049D01*
X125117029Y-62040535D01*
X125070395Y-62052904D01*
X125029589Y-62070146D01*
X125027307Y-62071370D01*
X125000320Y-62089969D01*
X124978748Y-62112635D01*
X124963499Y-62137667D01*
X124955476Y-62163362D01*
X124955586Y-62188021D01*
X124959059Y-62199637D01*
X124976089Y-62227782D01*
X125002287Y-62253932D01*
X125036793Y-62277731D01*
X125078747Y-62298822D01*
X125127291Y-62316847D01*
X125181565Y-62331450D01*
X125240710Y-62342274D01*
X125303865Y-62348962D01*
X125321060Y-62349990D01*
X125388087Y-62350510D01*
X125452590Y-62345455D01*
X125513611Y-62335163D01*
X125570191Y-62319973D01*
X125621370Y-62300223D01*
X125666191Y-62276251D01*
X125703694Y-62248396D01*
X125732921Y-62216995D01*
X125743679Y-62200847D01*
X125755303Y-62171999D01*
X125760229Y-62138384D01*
X125758302Y-62103005D01*
X125750256Y-62071229D01*
X125737884Y-62041451D01*
X125723510Y-62016434D01*
X125704675Y-61992351D01*
X125688315Y-61974811D01*
X125639320Y-61931581D01*
X125582702Y-61893695D01*
X125519664Y-61861470D01*
X125451412Y-61835221D01*
X125379151Y-61815266D01*
X125304085Y-61801920D01*
X125227419Y-61795499D01*
X125150357Y-61796320D01*
X125074105Y-61804698D01*
X125053820Y-61808296D01*
X124981201Y-61826058D01*
X124913476Y-61850224D01*
X124851362Y-61880296D01*
X124795574Y-61915774D01*
X124746827Y-61956160D01*
X124705835Y-62000954D01*
X124673316Y-62049657D01*
X124655972Y-62085818D01*
X124644110Y-62119044D01*
X124635784Y-62152666D01*
X124630685Y-62188987D01*
X124628503Y-62230311D01*
X124628932Y-62278939D01*
X124629162Y-62285880D01*
X124638109Y-62395759D01*
X124657014Y-62504614D01*
X124685697Y-62612126D01*
X124723980Y-62717976D01*
X124771685Y-62821846D01*
X124828632Y-62923417D01*
X124894645Y-63022370D01*
X124969543Y-63118386D01*
X125053149Y-63211146D01*
X125145284Y-63300332D01*
X125244083Y-63384281D01*
X125266506Y-63401727D01*
X125282730Y-63413185D01*
X125294107Y-63419469D01*
X125301988Y-63421391D01*
X125305043Y-63420969D01*
X125322181Y-63414519D01*
X125345922Y-63403590D01*
X125374339Y-63389219D01*
X125405505Y-63372445D01*
X125437491Y-63354308D01*
X125468372Y-63335844D01*
X125496218Y-63318092D01*
X125497150Y-63317472D01*
X125592471Y-63248944D01*
X125687227Y-63170848D01*
X125780882Y-63083774D01*
X125872900Y-62988314D01*
X125962744Y-62885060D01*
X126049879Y-62774602D01*
X126133768Y-62657532D01*
X126213874Y-62534442D01*
X126227699Y-62511940D01*
X126242939Y-62487085D01*
X126257983Y-62462844D01*
X126271221Y-62441792D01*
X126281042Y-62426507D01*
X126282044Y-62424988D01*
X126299263Y-62398996D01*
X126263419Y-62308430D01*
X126240617Y-62249506D01*
X126221837Y-62197597D01*
X126206563Y-62150627D01*
X126194281Y-62106520D01*
X126184477Y-62063199D01*
X126176636Y-62018589D01*
X126170245Y-61970613D01*
X126164787Y-61917194D01*
X126163833Y-61906479D01*
X126160313Y-61854987D01*
X126158340Y-61800557D01*
X126157879Y-61745458D01*
X126158715Y-61701485D01*
X126304627Y-61701485D01*
X126305408Y-61752007D01*
X126305585Y-61757509D01*
X126312190Y-61862826D01*
X126324660Y-61965151D01*
X126342720Y-62062971D01*
X126366092Y-62154775D01*
X126393099Y-62235394D01*
X126428932Y-62316512D01*
X126474397Y-62397413D01*
X126528973Y-62477475D01*
X126592139Y-62556076D01*
X126663376Y-62632596D01*
X126742162Y-62706412D01*
X126827977Y-62776903D01*
X126877213Y-62813480D01*
X126979568Y-62881413D01*
X127090512Y-62944747D01*
X127209480Y-63003288D01*
X127335907Y-63056843D01*
X127469227Y-63105219D01*
X127608875Y-63148223D01*
X127754285Y-63185661D01*
X127904891Y-63217341D01*
X128060129Y-63243068D01*
X128178560Y-63258262D01*
X128309860Y-63270536D01*
X128448966Y-63278771D01*
X128594358Y-63282966D01*
X128744520Y-63283122D01*
X128897933Y-63279237D01*
X129053080Y-63271313D01*
X129208444Y-63259349D01*
X129219960Y-63258299D01*
X129424471Y-63235639D01*
X129630128Y-63205413D01*
X129835734Y-63167933D01*
X130040091Y-63123508D01*
X130242001Y-63072449D01*
X130440268Y-63015066D01*
X130633694Y-62951670D01*
X130821081Y-62882572D01*
X131001233Y-62808082D01*
X131063638Y-62780209D01*
X131254834Y-62690118D01*
X131441349Y-62596355D01*
X131547463Y-62539519D01*
X131835044Y-62539519D01*
X131836363Y-62544564D01*
X131842970Y-62555461D01*
X131853628Y-62570277D01*
X131859714Y-62578080D01*
X131915366Y-62654625D01*
X131967183Y-62739890D01*
X132014775Y-62833037D01*
X132057752Y-62933228D01*
X132095724Y-63039624D01*
X132128300Y-63151388D01*
X132130432Y-63159640D01*
X132138725Y-63191014D01*
X132145316Y-63213472D01*
X132150573Y-63228046D01*
X132154865Y-63235768D01*
X132158300Y-63237705D01*
X132165153Y-63235074D01*
X132179587Y-63228099D01*
X132200351Y-63217458D01*
X132226195Y-63203830D01*
X132255870Y-63187895D01*
X132288124Y-63170330D01*
X132321707Y-63151817D01*
X132355370Y-63133032D01*
X132387860Y-63114655D01*
X132417930Y-63097366D01*
X132433509Y-63088256D01*
X132596428Y-62989009D01*
X132750012Y-62888635D01*
X132895076Y-62786523D01*
X133032430Y-62682065D01*
X133162887Y-62574650D01*
X133287261Y-62463668D01*
X133367113Y-62387480D01*
X133472949Y-62280014D01*
X133569749Y-62173764D01*
X133658390Y-62067720D01*
X133739749Y-61960867D01*
X133755793Y-61938509D01*
X133773508Y-61913283D01*
X133785824Y-61894894D01*
X133793441Y-61882052D01*
X133797061Y-61873471D01*
X133797386Y-61867862D01*
X133795904Y-61864849D01*
X133790226Y-61857771D01*
X133779636Y-61844793D01*
X133765705Y-61827836D01*
X133751727Y-61810900D01*
X133735743Y-61792404D01*
X133714426Y-61768934D01*
X133689739Y-61742588D01*
X133663646Y-61715462D01*
X133639905Y-61691441D01*
X133566090Y-61621425D01*
X133493871Y-61560271D01*
X133422037Y-61507080D01*
X133349376Y-61460948D01*
X133279309Y-61423252D01*
X133211158Y-61389579D01*
X133200569Y-61404333D01*
X133193867Y-61413243D01*
X133182150Y-61428390D01*
X133166744Y-61448073D01*
X133148979Y-61470593D01*
X133136640Y-61486143D01*
X133047045Y-61592771D01*
X132947703Y-61699748D01*
X132839006Y-61806753D01*
X132721343Y-61913463D01*
X132595106Y-62019556D01*
X132460686Y-62124709D01*
X132318473Y-62228599D01*
X132168858Y-62330906D01*
X132012233Y-62431304D01*
X131930140Y-62481454D01*
X131902689Y-62497996D01*
X131878183Y-62512841D01*
X131857966Y-62525170D01*
X131843379Y-62534164D01*
X131835765Y-62539002D01*
X131835044Y-62539519D01*
X131547463Y-62539519D01*
X131622410Y-62499376D01*
X131797245Y-62399636D01*
X131965082Y-62297593D01*
X132125150Y-62193700D01*
X132276677Y-62088414D01*
X132418891Y-61982191D01*
X132430520Y-61973138D01*
X132530966Y-61891864D01*
X132629123Y-61806924D01*
X132723653Y-61719613D01*
X132813222Y-61631224D01*
X132896491Y-61543053D01*
X132972127Y-61456394D01*
X133003560Y-61417931D01*
X133029068Y-61384792D01*
X133057545Y-61345743D01*
X133087486Y-61303017D01*
X133117383Y-61258845D01*
X133145732Y-61215459D01*
X133171027Y-61175093D01*
X133191762Y-61139977D01*
X133195173Y-61133882D01*
X133208482Y-61109094D01*
X133222539Y-61081651D01*
X133236563Y-61053221D01*
X133249774Y-61025474D01*
X133261391Y-61000080D01*
X133270635Y-60978709D01*
X133276724Y-60963030D01*
X133278880Y-60954777D01*
X133276696Y-60948072D01*
X133270593Y-60933765D01*
X133261244Y-60913317D01*
X133249321Y-60888188D01*
X133235497Y-60859839D01*
X133230933Y-60850630D01*
X133206876Y-60804214D01*
X133194989Y-60781278D01*
X133158263Y-60716611D01*
X133119245Y-60654300D01*
X133076420Y-60592012D01*
X133070892Y-60584595D01*
X133253949Y-60584595D01*
X133259877Y-60597168D01*
X133272208Y-60617450D01*
X133285542Y-60637558D01*
X133306350Y-60669378D01*
X133328019Y-60704609D01*
X133349886Y-60741974D01*
X133371286Y-60780194D01*
X133391556Y-60817992D01*
X133410033Y-60854090D01*
X133426052Y-60887209D01*
X133438951Y-60916072D01*
X133448065Y-60939400D01*
X133452730Y-60955917D01*
X133453204Y-60960433D01*
X133450736Y-60971994D01*
X133443681Y-60990962D01*
X133432715Y-61016052D01*
X133418513Y-61045981D01*
X133401752Y-61079463D01*
X133383107Y-61115216D01*
X133363254Y-61151954D01*
X133342867Y-61188393D01*
X133322624Y-61223250D01*
X133303200Y-61255240D01*
X133285270Y-61283078D01*
X133277398Y-61294581D01*
X133254725Y-61326902D01*
X133322342Y-61361099D01*
X133401312Y-61405267D01*
X133481398Y-61458171D01*
X133561233Y-61518692D01*
X133639453Y-61585713D01*
X133714694Y-61658117D01*
X133785592Y-61734785D01*
X133802146Y-61754094D01*
X133820053Y-61774928D01*
X133832802Y-61788687D01*
X133841460Y-61796322D01*
X133847097Y-61798788D01*
X133850565Y-61797274D01*
X133858102Y-61787269D01*
X133869446Y-61769560D01*
X133883829Y-61745514D01*
X133900483Y-61716498D01*
X133918639Y-61683880D01*
X133937529Y-61649026D01*
X133956384Y-61613305D01*
X133974437Y-61578082D01*
X133979958Y-61567060D01*
X133993918Y-61538468D01*
X134008819Y-61506992D01*
X134024026Y-61474077D01*
X134038903Y-61441168D01*
X134052815Y-61409708D01*
X134065124Y-61381141D01*
X134075195Y-61356913D01*
X134082392Y-61338466D01*
X134086079Y-61327245D01*
X134086422Y-61325299D01*
X134082025Y-61322628D01*
X134070521Y-61318943D01*
X134059930Y-61316315D01*
X134019272Y-61302084D01*
X133982049Y-61278707D01*
X133948653Y-61246732D01*
X133919474Y-61206706D01*
X133894904Y-61159176D01*
X133875332Y-61104689D01*
X133861151Y-61043793D01*
X133859850Y-61036200D01*
X133854661Y-60982519D01*
X133855567Y-60943347D01*
X133966075Y-60943347D01*
X133966554Y-60988475D01*
X133972308Y-61032822D01*
X133982741Y-61075061D01*
X133997259Y-61113865D01*
X134015267Y-61147906D01*
X134036170Y-61175859D01*
X134059373Y-61196395D01*
X134084282Y-61208188D01*
X134084869Y-61208346D01*
X134120474Y-61215563D01*
X134162620Y-61220575D01*
X134207868Y-61223095D01*
X134252783Y-61222837D01*
X134256780Y-61222663D01*
X134343631Y-61213573D01*
X134430713Y-61194536D01*
X134517497Y-61165736D01*
X134603460Y-61127358D01*
X134688074Y-61079587D01*
X134716601Y-61061133D01*
X134753751Y-61035674D01*
X134782462Y-61014266D01*
X134803208Y-60996083D01*
X134816465Y-60980301D01*
X134822707Y-60966093D01*
X134822408Y-60952635D01*
X134816043Y-60939101D01*
X134804087Y-60924666D01*
X134798369Y-60918960D01*
X134778242Y-60901647D01*
X134751034Y-60881252D01*
X134718807Y-60859116D01*
X134683627Y-60836580D01*
X134647558Y-60814986D01*
X134612663Y-60795676D01*
X134594235Y-60786277D01*
X134525853Y-60756003D01*
X134454860Y-60730709D01*
X134385495Y-60711892D01*
X134380877Y-60710871D01*
X134339133Y-60703752D01*
X134292440Y-60699118D01*
X134243358Y-60696966D01*
X134194448Y-60697293D01*
X134148270Y-60700096D01*
X134107385Y-60705372D01*
X134080745Y-60711221D01*
X134059399Y-60721879D01*
X134038104Y-60741244D01*
X134017838Y-60767905D01*
X133999578Y-60800451D01*
X133984301Y-60837473D01*
X133977055Y-60860940D01*
X133973112Y-60879843D01*
X133969526Y-60904741D01*
X133966852Y-60931473D01*
X133966075Y-60943347D01*
X133855567Y-60943347D01*
X133855953Y-60926671D01*
X133863256Y-60870478D01*
X133876100Y-60815763D01*
X133894013Y-60764348D01*
X133916526Y-60718056D01*
X133943169Y-60678710D01*
X133955828Y-60664328D01*
X133981554Y-60641689D01*
X134011093Y-60622353D01*
X134041244Y-60608152D01*
X134065893Y-60601333D01*
X134078718Y-60598836D01*
X134085984Y-60596554D01*
X134086600Y-60595956D01*
X134084515Y-60587742D01*
X134078667Y-60571757D01*
X134069666Y-60549401D01*
X134058122Y-60522076D01*
X134044645Y-60491182D01*
X134029845Y-60458119D01*
X134014332Y-60424287D01*
X133998715Y-60391087D01*
X133985173Y-60363100D01*
X133969288Y-60331453D01*
X133951719Y-60297586D01*
X133933227Y-60262860D01*
X133914571Y-60228631D01*
X133896513Y-60196259D01*
X133879812Y-60167101D01*
X133865230Y-60142517D01*
X133853527Y-60123863D01*
X133845462Y-60112500D01*
X133843895Y-60110744D01*
X133839148Y-60112541D01*
X133830037Y-60120770D01*
X133818345Y-60133769D01*
X133815641Y-60137058D01*
X133763521Y-60197591D01*
X133704794Y-60259046D01*
X133641641Y-60319431D01*
X133576242Y-60376755D01*
X133510777Y-60429024D01*
X133447428Y-60474248D01*
X133443980Y-60476537D01*
X133425465Y-60488189D01*
X133401860Y-60502182D01*
X133375036Y-60517497D01*
X133346863Y-60533118D01*
X133319213Y-60548027D01*
X133293958Y-60561205D01*
X133272969Y-60571635D01*
X133258117Y-60578299D01*
X133254386Y-60579659D01*
X133253949Y-60584595D01*
X133070892Y-60584595D01*
X133028277Y-60527415D01*
X132988855Y-60477400D01*
X132896166Y-60368481D01*
X132793560Y-60259930D01*
X132681280Y-60151922D01*
X132559566Y-60044636D01*
X132428662Y-59938246D01*
X132288808Y-59832930D01*
X132140247Y-59728864D01*
X131983219Y-59626225D01*
X131817968Y-59525189D01*
X131756941Y-59490223D01*
X131644735Y-59425933D01*
X131550562Y-59375302D01*
X131829445Y-59375302D01*
X131829451Y-59375308D01*
X131834844Y-59378988D01*
X131847665Y-59387080D01*
X131866619Y-59398789D01*
X131890411Y-59413316D01*
X131917746Y-59429866D01*
X131932680Y-59438855D01*
X132031050Y-59499425D01*
X132132208Y-59564479D01*
X132233657Y-59632319D01*
X132332900Y-59701249D01*
X132427441Y-59769571D01*
X132505515Y-59828419D01*
X132617753Y-59917847D01*
X132725723Y-60009684D01*
X132828495Y-60103029D01*
X132925141Y-60196985D01*
X133014733Y-60290651D01*
X133096342Y-60383128D01*
X133161682Y-60463930D01*
X133177263Y-60483802D01*
X133190729Y-60500391D01*
X133200841Y-60512215D01*
X133206362Y-60517792D01*
X133206876Y-60518037D01*
X133212428Y-60515915D01*
X133225371Y-60510083D01*
X133243995Y-60501337D01*
X133266586Y-60490476D01*
X133276340Y-60485722D01*
X133362364Y-60438638D01*
X133447947Y-60381757D01*
X133533214Y-60314981D01*
X133618292Y-60238214D01*
X133680990Y-60175140D01*
X133695913Y-60159135D01*
X133713209Y-60140056D01*
X133731623Y-60119348D01*
X133749903Y-60098461D01*
X133766796Y-60078839D01*
X133781049Y-60061932D01*
X133791409Y-60049185D01*
X133796622Y-60042047D01*
X133797000Y-60041166D01*
X133794293Y-60036435D01*
X133787063Y-60025530D01*
X133776702Y-60010534D01*
X133773232Y-60005606D01*
X133669271Y-59866987D01*
X133555744Y-59731568D01*
X133432753Y-59599435D01*
X133300404Y-59470674D01*
X133158800Y-59345371D01*
X133008045Y-59223612D01*
X132848244Y-59105483D01*
X132679500Y-58991068D01*
X132501917Y-58880455D01*
X132315599Y-58773729D01*
X132216066Y-58720201D01*
X132146392Y-58683527D01*
X132143183Y-58697814D01*
X132118449Y-58794940D01*
X132088365Y-58890832D01*
X132053554Y-58984099D01*
X132014639Y-59073346D01*
X131972243Y-59157180D01*
X131926990Y-59234208D01*
X131879501Y-59303036D01*
X131863090Y-59324156D01*
X131848750Y-59342755D01*
X131837628Y-59358595D01*
X131830826Y-59370003D01*
X131829445Y-59375302D01*
X131550562Y-59375302D01*
X131463761Y-59328634D01*
X131305300Y-59248227D01*
X131218835Y-59205871D01*
X131139538Y-59167887D01*
X131065774Y-59133578D01*
X130995907Y-59102245D01*
X130928301Y-59073190D01*
X130861321Y-59045713D01*
X130793331Y-59019116D01*
X130722695Y-58992700D01*
X130647779Y-58965768D01*
X130626154Y-58958158D01*
X130444896Y-58898356D01*
X130259101Y-58844236D01*
X130069705Y-58795906D01*
X129877642Y-58753471D01*
X129683849Y-58717036D01*
X129489259Y-58686707D01*
X129294810Y-58662590D01*
X129101434Y-58644789D01*
X128910069Y-58633412D01*
X128721649Y-58628562D01*
X128537109Y-58630346D01*
X128357385Y-58638870D01*
X128183411Y-58654239D01*
X128065597Y-58669119D01*
X127902290Y-58695982D01*
X127745552Y-58728887D01*
X127595577Y-58767731D01*
X127452558Y-58812415D01*
X127316689Y-58862836D01*
X127188162Y-58918894D01*
X127067170Y-58980488D01*
X126953908Y-59047516D01*
X126848567Y-59119877D01*
X126751341Y-59197471D01*
X126662423Y-59280194D01*
X126582006Y-59367948D01*
X126510284Y-59460630D01*
X126485454Y-59496960D01*
X126445585Y-59563632D01*
X126410943Y-59635129D01*
X126381229Y-59712344D01*
X126356148Y-59796173D01*
X126344217Y-59848700D01*
X126335402Y-59887510D01*
X126318694Y-59987249D01*
X126315915Y-60007500D01*
X126312044Y-60044947D01*
X126309209Y-60089583D01*
X126307412Y-60139065D01*
X126306654Y-60191051D01*
X126306938Y-60243196D01*
X126308264Y-60293159D01*
X126310636Y-60338595D01*
X126314053Y-60377161D01*
X126315632Y-60389560D01*
X126324800Y-60448002D01*
X126336317Y-60509841D01*
X126350554Y-60576888D01*
X126367881Y-60650954D01*
X126375174Y-60680600D01*
X126390102Y-60741465D01*
X126402359Y-60793716D01*
X126412105Y-60838498D01*
X126419498Y-60876958D01*
X126424696Y-60910239D01*
X126427859Y-60939488D01*
X126429145Y-60965848D01*
X126428712Y-60990465D01*
X126426720Y-61014484D01*
X126424128Y-61033918D01*
X126420873Y-61052038D01*
X126415476Y-61078231D01*
X126408335Y-61110732D01*
X126399849Y-61147777D01*
X126390416Y-61187602D01*
X126380434Y-61228442D01*
X126377976Y-61238295D01*
X126359241Y-61315046D01*
X126343631Y-61383600D01*
X126330950Y-61445362D01*
X126321003Y-61501739D01*
X126313593Y-61554134D01*
X126308524Y-61603953D01*
X126305601Y-61652602D01*
X126304627Y-61701485D01*
X126158715Y-61701485D01*
X126158896Y-61691958D01*
X126161357Y-61642324D01*
X126165226Y-61598824D01*
X126168949Y-61572070D01*
X126171616Y-61558098D01*
X126176330Y-61535381D01*
X126182835Y-61505073D01*
X126190879Y-61468326D01*
X126200205Y-61426292D01*
X126210561Y-61380124D01*
X126221691Y-61330973D01*
X126233341Y-61279993D01*
X126235681Y-61269810D01*
X126250094Y-61206966D01*
X126262326Y-61153127D01*
X126272540Y-61107412D01*
X126280895Y-61068940D01*
X126287554Y-61036828D01*
X126292677Y-61010196D01*
X126296426Y-60988162D01*
X126298961Y-60969846D01*
X126300445Y-60954365D01*
X126301038Y-60940838D01*
X126300902Y-60928384D01*
X126300249Y-60916820D01*
X126298625Y-60905825D01*
X126294833Y-60886062D01*
X126289117Y-60858636D01*
X126281721Y-60824649D01*
X126272889Y-60785205D01*
X126262864Y-60741407D01*
X126251891Y-60694356D01*
X126240214Y-60645157D01*
X126239578Y-60642500D01*
X126227722Y-60592873D01*
X126216373Y-60545067D01*
X126205798Y-60500230D01*
X126196264Y-60459510D01*
X126188038Y-60424053D01*
X126181388Y-60395006D01*
X126176581Y-60373517D01*
X126173886Y-60360732D01*
X126173853Y-60360560D01*
X126169112Y-60327462D01*
X126165719Y-60285875D01*
X126163654Y-60237377D01*
X126162898Y-60183548D01*
X126163430Y-60125967D01*
X126165232Y-60066211D01*
X126168283Y-60005860D01*
X126172564Y-59946492D01*
X126178054Y-59889687D01*
X126179936Y-59873363D01*
X126194183Y-59781885D01*
X126214229Y-59697666D01*
X126240448Y-59619374D01*
X126270527Y-59551064D01*
X126297181Y-59497160D01*
X126253560Y-59427210D01*
X126180333Y-59313905D01*
X126107155Y-59209165D01*
X126032852Y-59111470D01*
X125956247Y-59019299D01*
X125876165Y-58931131D01*
X125844437Y-58898218D01*
X125766597Y-58821777D01*
X125689082Y-58751610D01*
X125612547Y-58688206D01*
X125537644Y-58632055D01*
X125465028Y-58583645D01*
X125395352Y-58543467D01*
X125329270Y-58512008D01*
X125327651Y-58511330D01*
X125288522Y-58494994D01*
X125233671Y-58539694D01*
X125206658Y-58562757D01*
X125174841Y-58591635D01*
X125139802Y-58624748D01*
X125103121Y-58660512D01*
X125066378Y-58697346D01*
X125031154Y-58733668D01*
X124999029Y-58767895D01*
X124971585Y-58798445D01*
X124952380Y-58821255D01*
X124878523Y-58920240D01*
X124813938Y-59021679D01*
X124758757Y-59125242D01*
X124713111Y-59230599D01*
X124677132Y-59337419D01*
X124650950Y-59445371D01*
X124634698Y-59554124D01*
X124629168Y-59634177D01*
X124628692Y-59690670D01*
X124631842Y-59739451D01*
X124639073Y-59782458D01*
X124650837Y-59821631D01*
X124667589Y-59858910D01*
X124689783Y-59896233D01*
X124690845Y-59897838D01*
X124728168Y-59945003D01*
X124774309Y-59987742D01*
X124828793Y-60025733D01*
X124891142Y-60058648D01*
X124960879Y-60086165D01*
X124973535Y-60090315D01*
X125050091Y-60109655D01*
X125130480Y-60120522D01*
X125213100Y-60123023D01*
X125296344Y-60117268D01*
X125378609Y-60103364D01*
X125458291Y-60081419D01*
X125531288Y-60052694D01*
X125577209Y-60028624D01*
X125620902Y-60000030D01*
X125660806Y-59968271D01*
X125695358Y-59934708D01*
X125722996Y-59900701D01*
X125741077Y-59869974D01*
X125753838Y-59834650D01*
X125760005Y-59798737D01*
X125759387Y-59764789D01*
X125751793Y-59735357D01*
X125751247Y-59734095D01*
X125734919Y-59703942D01*
X125713850Y-59678383D01*
X125685555Y-59654478D01*
X125681370Y-59651448D01*
X125639942Y-59626732D01*
X125590302Y-59605482D01*
X125533962Y-59588227D01*
X125472438Y-59575497D01*
X125458220Y-59573337D01*
X125411931Y-59569111D01*
X125359343Y-59568253D01*
X125303664Y-59570550D01*
X125248103Y-59575787D01*
X125195866Y-59583752D01*
X125152058Y-59593702D01*
X125107942Y-59608182D01*
X125067089Y-59625995D01*
X125030758Y-59646302D01*
X125000207Y-59668265D01*
X124976694Y-59691043D01*
X124961477Y-59713799D01*
X124957841Y-59723221D01*
X124954729Y-59750714D01*
X124961089Y-59777819D01*
X124976244Y-59803637D01*
X124999518Y-59827268D01*
X125030237Y-59847813D01*
X125062398Y-59862441D01*
X125104785Y-59874889D01*
X125152636Y-59883199D01*
X125203162Y-59887290D01*
X125253574Y-59887081D01*
X125301084Y-59882488D01*
X125342903Y-59873431D01*
X125350860Y-59870900D01*
X125390373Y-59854776D01*
X125419949Y-59836636D01*
X125439617Y-59816456D01*
X125449403Y-59794212D01*
X125450600Y-59782480D01*
X125446822Y-59767180D01*
X125434918Y-59755021D01*
X125414028Y-59745223D01*
X125407093Y-59742988D01*
X125368751Y-59736459D01*
X125326574Y-59738343D01*
X125282077Y-59748416D01*
X125236776Y-59766456D01*
X125232268Y-59768686D01*
X125213727Y-59777288D01*
X125197309Y-59783614D01*
X125186178Y-59786466D01*
X125185157Y-59786520D01*
X125167552Y-59781737D01*
X125152843Y-59768527D01*
X125145774Y-59755980D01*
X125142257Y-59735082D01*
X125147888Y-59713636D01*
X125161803Y-59692826D01*
X125183139Y-59673836D01*
X125211034Y-59657853D01*
X125220065Y-59654013D01*
X125232074Y-59649605D01*
X125243665Y-59646436D01*
X125256837Y-59644299D01*
X125273586Y-59642986D01*
X125295913Y-59642290D01*
X125325815Y-59642005D01*
X125336300Y-59641969D01*
X125372175Y-59642131D01*
X125400135Y-59642945D01*
X125422412Y-59644582D01*
X125441240Y-59647213D01*
X125458850Y-59651007D01*
X125460676Y-59651468D01*
X125509604Y-59666275D01*
X125551582Y-59683692D01*
X125586009Y-59703288D01*
X125612284Y-59724633D01*
X125629805Y-59747297D01*
X125637972Y-59770850D01*
X125638512Y-59778810D01*
X125634243Y-59801516D01*
X125622494Y-59826594D01*
X125604710Y-59851558D01*
X125584190Y-59872347D01*
X125561156Y-59889339D01*
X125530884Y-59907493D01*
X125495988Y-59925482D01*
X125459080Y-59941981D01*
X125422772Y-59955662D01*
X125415040Y-59958189D01*
X125350684Y-59974935D01*
X125283576Y-59985713D01*
X125215788Y-59990489D01*
X125149394Y-59989231D01*
X125086464Y-59981907D01*
X125029071Y-59968484D01*
X125016636Y-59964450D01*
X124966797Y-59943005D01*
X124922810Y-59915320D01*
X124885768Y-59882287D01*
X124856769Y-59844800D01*
X124845988Y-59825406D01*
X124836467Y-59803990D01*
X124830796Y-59784922D01*
X124827755Y-59763315D01*
X124826754Y-59748454D01*
X124826001Y-59725918D01*
X124826962Y-59709637D01*
X124830221Y-59695767D01*
X124836366Y-59680466D01*
X124837494Y-59677981D01*
X124859502Y-59641757D01*
X124890620Y-59608494D01*
X124930173Y-59578433D01*
X124977483Y-59551811D01*
X125031874Y-59528867D01*
X125092669Y-59509839D01*
X125159191Y-59494966D01*
X125230764Y-59484485D01*
X125306710Y-59478636D01*
X125386353Y-59477657D01*
X125404880Y-59478137D01*
X125482810Y-59483130D01*
X125555995Y-59492655D01*
X125623854Y-59506456D01*
X125685807Y-59524275D01*
X125741274Y-59545857D01*
X125789675Y-59570943D01*
X125830431Y-59599278D01*
X125862961Y-59630603D01*
X125886685Y-59664663D01*
X125900051Y-59697521D01*
X125903966Y-59716845D01*
X125907554Y-59744529D01*
X125910716Y-59778773D01*
X125913355Y-59817778D01*
X125915372Y-59859746D01*
X125916669Y-59902879D01*
X125917149Y-59945378D01*
X125916713Y-59985444D01*
X125916372Y-59997245D01*
X125909267Y-60107678D01*
X125895681Y-60210374D01*
X125875572Y-60305456D01*
X125848897Y-60393045D01*
X125815615Y-60473265D01*
X125775684Y-60546238D01*
X125729060Y-60612085D01*
X125688852Y-60657721D01*
X125632706Y-60709250D01*
X125571902Y-60752355D01*
X125505787Y-60787377D01*
X125433708Y-60814654D01*
X125355012Y-60834528D01*
X125346460Y-60836177D01*
X125314680Y-60840619D01*
X125275040Y-60843792D01*
X125229755Y-60845709D01*
X125181043Y-60846383D01*
X125178907Y-60846360D01*
X125131122Y-60845828D01*
X125082208Y-60844059D01*
X125036519Y-60841088D01*
X124996272Y-60836931D01*
X124975620Y-60833866D01*
X124859524Y-60809590D01*
X124749710Y-60777543D01*
X124645615Y-60737461D01*
X124546675Y-60689082D01*
X124452330Y-60632144D01*
X124362016Y-60566385D01*
X124310767Y-60523669D01*
X124249220Y-60465184D01*
X124196963Y-60405168D01*
X124153134Y-60342522D01*
X124117155Y-60276740D01*
X124101709Y-60243580D01*
X124088711Y-60213320D01*
X124077198Y-60183313D01*
X124066206Y-60150912D01*
X124054771Y-60113472D01*
X124044088Y-60076080D01*
X124037751Y-60052203D01*
X124030880Y-60024255D01*
X124023910Y-59994255D01*
X124017276Y-59964221D01*
X124011414Y-59936172D01*
X124006759Y-59912125D01*
X124003747Y-59894099D01*
X124002799Y-59884692D01*
X123999126Y-59883305D01*
X123989041Y-59887431D01*
X123973951Y-59896095D01*
X123955260Y-59908318D01*
X123934374Y-59923123D01*
X123912698Y-59939533D01*
X123891636Y-59956570D01*
X123872594Y-59973258D01*
X123864688Y-59980755D01*
X123814739Y-60036693D01*
X123772528Y-60098957D01*
X123738406Y-60166896D01*
X123712722Y-60239861D01*
X123702337Y-60281820D01*
X123699048Y-60304588D01*
X123696915Y-60334527D01*
X123695933Y-60368713D01*
X123696101Y-60404225D01*
X123697416Y-60438140D01*
X123699876Y-60467534D01*
X123702503Y-60485020D01*
X123722155Y-60561553D01*
X123749539Y-60631554D01*
X123784736Y-60695120D01*
X123827827Y-60752345D01*
X123878894Y-60803327D01*
X123938020Y-60848162D01*
X124005285Y-60886945D01*
X124067268Y-60914574D01*
X124093135Y-60925160D01*
X124110840Y-60933582D01*
X124121854Y-60940896D01*
X124127648Y-60948161D01*
X124129695Y-60956436D01*
X124129799Y-60959533D01*
X124128506Y-60968741D01*
X124123634Y-60976495D01*
X124113693Y-60983858D01*
X124097196Y-60991895D01*
X124072653Y-61001670D01*
X124068840Y-61003107D01*
X123996728Y-61034267D01*
X123933125Y-61070653D01*
X123877548Y-61112753D01*
X123829516Y-61161057D01*
X123788549Y-61216054D01*
X123754164Y-61278234D01*
X123725882Y-61348085D01*
X123723902Y-61353918D01*
X123704490Y-61427417D01*
X123695066Y-61501535D01*
X123358897Y-61501535D01*
X123319810Y-61473415D01*
X123260289Y-61418801D01*
X123208999Y-61358382D01*
X123166061Y-61292311D01*
X123131598Y-61220743D01*
X123105731Y-61143833D01*
X123094965Y-61098086D01*
X123090085Y-61064839D01*
X123086980Y-61024381D01*
X123085625Y-60979501D01*
X123085761Y-60962255D01*
X123205010Y-60962255D01*
X123205821Y-61004771D01*
X123208287Y-61043993D01*
X123212407Y-61076592D01*
X123212460Y-61076889D01*
X123230217Y-61150462D01*
X123256437Y-61218635D01*
X123290967Y-61281156D01*
X123333655Y-61337773D01*
X123384351Y-61388236D01*
X123415218Y-61412999D01*
X123438061Y-61428711D01*
X123464575Y-61444948D01*
X123492450Y-61460492D01*
X123519377Y-61474124D01*
X123543045Y-61484628D01*
X123561145Y-61490784D01*
X123563875Y-61491383D01*
X123579611Y-61494361D01*
X123583056Y-61457051D01*
X123588433Y-61420910D01*
X123597910Y-61379543D01*
X123610462Y-61336494D01*
X123625064Y-61295310D01*
X123639357Y-61262260D01*
X123672317Y-61203952D01*
X123713796Y-61146595D01*
X123762188Y-61091977D01*
X123815886Y-61041888D01*
X123873285Y-60998117D01*
X123881313Y-60992735D01*
X123903119Y-60978140D01*
X123917366Y-60967905D01*
X123925128Y-60961036D01*
X123927480Y-60956537D01*
X123925498Y-60953413D01*
X123924498Y-60952759D01*
X123916491Y-60947746D01*
X123902289Y-60938629D01*
X123884185Y-60926886D01*
X123871436Y-60918561D01*
X123803410Y-60868623D01*
X123744197Y-60813665D01*
X123693818Y-60753722D01*
X123652297Y-60688829D01*
X123619657Y-60619020D01*
X123595920Y-60544330D01*
X123583653Y-60483050D01*
X123580274Y-60462205D01*
X123577188Y-60445452D01*
X123574845Y-60435122D01*
X123574026Y-60433014D01*
X123566699Y-60432312D01*
X123552468Y-60436343D01*
X123532942Y-60444296D01*
X123509732Y-60455361D01*
X123484449Y-60468728D01*
X123458703Y-60483587D01*
X123434105Y-60499128D01*
X123412899Y-60514061D01*
X123358188Y-60561431D01*
X123311420Y-60615070D01*
X123272744Y-60674730D01*
X123242308Y-60740165D01*
X123220261Y-60811127D01*
X123212493Y-60848240D01*
X123208346Y-60880660D01*
X123205851Y-60919775D01*
X123205010Y-60962255D01*
X123085761Y-60962255D01*
X123085991Y-60932986D01*
X123088052Y-60887625D01*
X123091780Y-60846206D01*
X123097150Y-60811517D01*
X123097759Y-60808605D01*
X123119497Y-60729365D01*
X123149438Y-60655991D01*
X123187785Y-60588170D01*
X123234739Y-60525586D01*
X123290504Y-60467923D01*
X123346889Y-60421105D01*
X123378620Y-60399038D01*
X123415879Y-60376066D01*
X123455914Y-60353668D01*
X123495972Y-60333318D01*
X123533301Y-60316494D01*
X123562197Y-60305617D01*
X123578109Y-60300160D01*
X123589714Y-60295704D01*
X123593967Y-60293566D01*
X123596133Y-60287618D01*
X123599240Y-60274699D01*
X123601959Y-60261058D01*
X123611382Y-60220809D01*
X123625437Y-60175476D01*
X123642992Y-60128341D01*
X123662915Y-60082686D01*
X123664931Y-60078459D01*
X123704295Y-60005866D01*
X123749714Y-59938648D01*
X123800300Y-59877809D01*
X123855169Y-59824356D01*
X123913433Y-59779296D01*
X123947007Y-59758222D01*
X123975586Y-59741738D01*
X124114560Y-59741738D01*
X124118052Y-59831251D01*
X124128295Y-59919288D01*
X124144934Y-60004651D01*
X124167617Y-60086137D01*
X124195991Y-60162549D01*
X124229702Y-60232685D01*
X124268398Y-60295346D01*
X124283461Y-60315817D01*
X124351195Y-60395486D01*
X124425151Y-60467173D01*
X124505148Y-60530784D01*
X124591002Y-60586225D01*
X124682531Y-60633399D01*
X124779552Y-60672214D01*
X124881882Y-60702573D01*
X124989339Y-60724381D01*
X125094973Y-60737010D01*
X125178907Y-60739511D01*
X125260268Y-60733309D01*
X125338194Y-60718591D01*
X125411823Y-60695543D01*
X125480292Y-60664353D01*
X125510564Y-60646861D01*
X125543662Y-60623413D01*
X125579076Y-60593347D01*
X125614403Y-60559040D01*
X125647238Y-60522872D01*
X125675178Y-60487221D01*
X125682218Y-60477023D01*
X125723780Y-60406482D01*
X125757958Y-60331317D01*
X125784129Y-60253363D01*
X125801667Y-60174457D01*
X125809622Y-60102902D01*
X125810768Y-60074119D01*
X125810195Y-60053963D01*
X125807462Y-60040979D01*
X125802126Y-60033715D01*
X125793745Y-60030718D01*
X125787545Y-60030360D01*
X125768272Y-60034706D01*
X125744482Y-60047538D01*
X125719840Y-60065968D01*
X125660050Y-60109292D01*
X125593256Y-60146426D01*
X125520647Y-60177184D01*
X125443413Y-60201379D01*
X125362745Y-60218825D01*
X125279833Y-60229336D01*
X125195868Y-60232727D01*
X125112041Y-60228811D01*
X125029541Y-60217403D01*
X124949559Y-60198316D01*
X124924006Y-60190329D01*
X124850384Y-60161343D01*
X124782506Y-60125440D01*
X124720942Y-60083184D01*
X124666261Y-60035139D01*
X124619032Y-59981868D01*
X124579827Y-59923934D01*
X124549215Y-59861902D01*
X124528493Y-59799220D01*
X124519381Y-59750738D01*
X124514503Y-59694597D01*
X124513766Y-59632330D01*
X124517077Y-59565471D01*
X124524343Y-59495554D01*
X124535471Y-59424111D01*
X124550368Y-59352676D01*
X124557277Y-59324773D01*
X124589551Y-59219855D01*
X124631594Y-59115760D01*
X124683020Y-59013027D01*
X124743444Y-58912198D01*
X124812479Y-58813810D01*
X124889738Y-58718405D01*
X124974836Y-58626521D01*
X125067386Y-58538699D01*
X125167002Y-58455478D01*
X125186722Y-58440285D01*
X125364286Y-58440285D01*
X125368611Y-58443370D01*
X125380179Y-58449526D01*
X125396952Y-58457698D01*
X125407517Y-58462607D01*
X125471549Y-58495251D01*
X125539291Y-58536124D01*
X125609721Y-58584463D01*
X125681818Y-58639504D01*
X125754561Y-58700486D01*
X125826928Y-58766645D01*
X125867252Y-58806013D01*
X125972748Y-58917573D01*
X126073436Y-59036612D01*
X126169836Y-59163795D01*
X126262472Y-59299785D01*
X126291310Y-59345117D01*
X126307188Y-59370363D01*
X126321360Y-59392668D01*
X126332894Y-59410582D01*
X126340855Y-59422651D01*
X126344217Y-59427342D01*
X126348918Y-59425590D01*
X126357659Y-59417236D01*
X126368666Y-59404010D01*
X126370232Y-59401942D01*
X126447515Y-59306679D01*
X126533826Y-59214996D01*
X126628547Y-59127273D01*
X126731061Y-59043892D01*
X126840752Y-58965236D01*
X126957002Y-58891685D01*
X127079194Y-58823623D01*
X127206713Y-58761430D01*
X127338939Y-58705489D01*
X127475258Y-58656181D01*
X127615052Y-58613888D01*
X127664465Y-58600870D01*
X127690066Y-58594575D01*
X127719591Y-58587628D01*
X127751310Y-58580402D01*
X127783493Y-58573270D01*
X127814408Y-58566605D01*
X127842325Y-58560780D01*
X127865513Y-58556169D01*
X127882243Y-58553145D01*
X127890716Y-58552080D01*
X127890996Y-58547348D01*
X127889973Y-58534314D01*
X127887869Y-58514718D01*
X127884905Y-58490305D01*
X127881301Y-58462816D01*
X127877280Y-58433993D01*
X127873062Y-58405579D01*
X127868869Y-58379316D01*
X127868451Y-58376820D01*
X127856901Y-58316345D01*
X127841845Y-58250002D01*
X127824126Y-58181108D01*
X127804590Y-58112976D01*
X127787579Y-58059320D01*
X127774233Y-58020870D01*
X127758837Y-57979222D01*
X127742222Y-57936411D01*
X127725219Y-57894472D01*
X127708658Y-57855440D01*
X127693370Y-57821349D01*
X127680185Y-57794236D01*
X127676641Y-57787540D01*
X127662999Y-57762459D01*
X127751566Y-57762459D01*
X127752506Y-57768807D01*
X127756914Y-57780220D01*
X127765156Y-57798537D01*
X127767910Y-57804525D01*
X127826043Y-57942887D01*
X127874761Y-58084879D01*
X127913901Y-58229937D01*
X127943303Y-58377496D01*
X127955042Y-58457773D01*
X127958603Y-58485143D01*
X127961784Y-58508668D01*
X127964343Y-58526641D01*
X127966039Y-58537353D01*
X127966566Y-58539612D01*
X127971739Y-58539300D01*
X127985125Y-58537830D01*
X128004869Y-58535423D01*
X128029119Y-58532298D01*
X128037283Y-58531216D01*
X128191804Y-58513792D01*
X128353702Y-58501671D01*
X128521689Y-58494851D01*
X128694477Y-58493328D01*
X128870779Y-58497098D01*
X129049308Y-58506159D01*
X129228776Y-58520507D01*
X129362200Y-58534616D01*
X129573830Y-58563165D01*
X129785478Y-58599196D01*
X129995989Y-58642397D01*
X130204211Y-58692456D01*
X130408989Y-58749064D01*
X130609169Y-58811909D01*
X130803598Y-58880679D01*
X130991121Y-58955065D01*
X131104640Y-59004419D01*
X131139786Y-59020587D01*
X131182191Y-59040650D01*
X131230341Y-59063850D01*
X131282721Y-59089429D01*
X131337815Y-59116628D01*
X131394110Y-59144691D01*
X131450089Y-59172858D01*
X131504240Y-59200371D01*
X131555045Y-59226473D01*
X131600992Y-59250405D01*
X131640565Y-59271408D01*
X131668280Y-59286516D01*
X131756941Y-59335714D01*
X131773856Y-59316007D01*
X131834342Y-59238228D01*
X131889853Y-59151647D01*
X131940351Y-59056341D01*
X131985799Y-58952389D01*
X132026157Y-58839868D01*
X132056931Y-58735697D01*
X132063476Y-58710565D01*
X132068942Y-58688105D01*
X132072799Y-58670593D01*
X132074520Y-58660310D01*
X132074558Y-58659656D01*
X132073761Y-58655212D01*
X132070342Y-58650518D01*
X132063172Y-58644887D01*
X132051125Y-58637627D01*
X132033072Y-58628052D01*
X132007886Y-58615471D01*
X131980126Y-58601948D01*
X131847865Y-58540049D01*
X131707227Y-58478295D01*
X131559978Y-58417400D01*
X131407882Y-58358075D01*
X131252708Y-58301035D01*
X131125389Y-58256799D01*
X130837269Y-58164616D01*
X130544822Y-58081526D01*
X130248364Y-58007588D01*
X129948213Y-57942861D01*
X129644688Y-57887401D01*
X129338106Y-57841268D01*
X129028786Y-57804519D01*
X128717045Y-57777213D01*
X128409700Y-57759679D01*
X128383007Y-57758755D01*
X128349543Y-57757914D01*
X128310373Y-57757161D01*
X128266560Y-57756499D01*
X128219168Y-57755931D01*
X128169259Y-57755460D01*
X128117899Y-57755089D01*
X128066149Y-57754824D01*
X128015074Y-57754665D01*
X127965738Y-57754618D01*
X127919204Y-57754685D01*
X127876535Y-57754869D01*
X127838796Y-57755175D01*
X127807050Y-57755606D01*
X127782360Y-57756164D01*
X127765789Y-57756854D01*
X127758640Y-57757604D01*
X127753732Y-57759338D01*
X127751566Y-57762459D01*
X127662999Y-57762459D01*
X127662825Y-57762140D01*
X127619702Y-57763705D01*
X127600496Y-57764606D01*
X127573725Y-57766145D01*
X127541951Y-57768160D01*
X127507739Y-57770488D01*
X127477520Y-57772678D01*
X127269667Y-57791766D01*
X127066959Y-57817514D01*
X126869702Y-57849826D01*
X126678204Y-57888611D01*
X126492771Y-57933774D01*
X126313712Y-57985222D01*
X126141333Y-58042862D01*
X125975941Y-58106600D01*
X125817845Y-58176343D01*
X125667350Y-58251997D01*
X125524765Y-58333470D01*
X125426470Y-58396150D01*
X125404589Y-58410930D01*
X125386083Y-58423749D01*
X125372431Y-58433558D01*
X125365116Y-58439304D01*
X125364286Y-58440285D01*
X125186722Y-58440285D01*
X125194648Y-58434178D01*
X125326751Y-58340116D01*
X125467126Y-58251673D01*
X125615541Y-58168908D01*
X125771766Y-58091876D01*
X125935568Y-58020637D01*
X126106718Y-57955248D01*
X126284984Y-57895766D01*
X126470135Y-57842249D01*
X126661940Y-57794755D01*
X126860168Y-57753340D01*
X127064588Y-57718064D01*
X127274969Y-57688983D01*
X127491079Y-57666155D01*
X127712689Y-57649637D01*
X127939565Y-57639488D01*
X128171479Y-57635765D01*
X128388147Y-57638042D01*
X128680796Y-57649496D01*
X128973527Y-57670369D01*
X129265737Y-57700539D01*
X129556822Y-57739884D01*
X129846179Y-57788284D01*
X130133205Y-57845616D01*
X130417296Y-57911760D01*
X130697849Y-57986594D01*
X130974261Y-58069996D01*
X131245927Y-58161845D01*
X131512245Y-58262019D01*
X131537264Y-58271971D01*
X131749656Y-58360516D01*
X131955163Y-58453556D01*
X132153567Y-58550934D01*
X132344654Y-58652492D01*
X132528207Y-58758073D01*
X132704008Y-58867519D01*
X132871844Y-58980672D01*
X133031496Y-59097376D01*
X133182749Y-59217472D01*
X133325387Y-59340803D01*
X133459193Y-59467211D01*
X133583952Y-59596540D01*
X133699446Y-59728630D01*
X133805460Y-59863325D01*
X133894642Y-59989720D01*
X133953778Y-60082069D01*
X134010130Y-60177400D01*
X134062566Y-60273596D01*
X134109953Y-60368541D01*
X134151161Y-60460117D01*
X134167854Y-60500842D01*
X134200279Y-60582703D01*
X134263911Y-60586238D01*
X134355984Y-60595372D01*
X134443505Y-60612537D01*
X134528735Y-60638226D01*
X134565390Y-60652074D01*
X134586790Y-60660462D01*
X134604255Y-60666961D01*
X134615938Y-60670908D01*
X134620000Y-60671680D01*
X134618665Y-60666168D01*
X134615055Y-60653033D01*
X134609765Y-60634402D01*
X134604980Y-60617859D01*
X134560490Y-60480223D01*
X134506929Y-60341016D01*
X134444955Y-60201592D01*
X134375229Y-60063301D01*
X134298409Y-59927497D01*
X134215155Y-59795531D01*
X134176235Y-59738429D01*
X134105500Y-59640260D01*
X134033335Y-59546657D01*
X133958081Y-59455656D01*
X133878079Y-59365294D01*
X133791668Y-59273606D01*
X133733789Y-59214874D01*
X133587998Y-59075457D01*
X133434605Y-58940992D01*
X133273281Y-58811233D01*
X133103695Y-58685935D01*
X132925517Y-58564853D01*
X132738418Y-58447740D01*
X132572760Y-58351491D01*
X132350089Y-58231763D01*
X132119900Y-58118454D01*
X131882660Y-58011699D01*
X131638835Y-57911636D01*
X131388892Y-57818399D01*
X131133297Y-57732124D01*
X130872517Y-57652949D01*
X130607020Y-57581009D01*
X130337270Y-57516440D01*
X130063736Y-57459379D01*
X129786883Y-57409960D01*
X129507179Y-57368321D01*
X129225090Y-57334598D01*
X129019300Y-57315171D01*
X128794724Y-57299262D01*
X128568246Y-57288935D01*
X128341067Y-57284146D01*
X128114389Y-57284849D01*
X127889413Y-57290999D01*
X127667342Y-57302550D01*
X127449376Y-57319457D01*
X127236719Y-57341675D01*
X127030572Y-57369157D01*
X126860300Y-57396811D01*
X126655405Y-57436446D01*
X126457102Y-57481710D01*
X126265563Y-57532509D01*
X126080961Y-57588751D01*
X125903466Y-57650343D01*
X125733252Y-57717192D01*
X125570491Y-57789204D01*
X125415355Y-57866286D01*
X125268016Y-57948346D01*
X125128647Y-58035290D01*
X124997419Y-58127025D01*
X124874506Y-58223458D01*
X124760079Y-58324496D01*
X124654310Y-58430046D01*
X124557372Y-58540015D01*
X124469437Y-58654309D01*
X124431224Y-58709560D01*
X124358853Y-58826871D01*
X124295543Y-58948212D01*
X124241447Y-59073082D01*
X124196721Y-59200980D01*
X124161518Y-59331404D01*
X124135990Y-59463851D01*
X124120294Y-59597822D01*
X124114582Y-59732813D01*
X124114560Y-59741738D01*
X123975586Y-59741738D01*
X123986605Y-59735382D01*
X123989746Y-59680941D01*
X123997775Y-59574471D01*
X124009326Y-59475509D01*
X124024803Y-59381895D01*
X124044607Y-59291469D01*
X124069143Y-59202069D01*
X124092639Y-59129281D01*
X124142876Y-58998474D01*
X124202499Y-58871223D01*
X124271334Y-58747644D01*
X124349209Y-58627848D01*
X124435949Y-58511951D01*
X124531381Y-58400067D01*
X124635332Y-58292309D01*
X124747630Y-58188791D01*
X124868099Y-58089628D01*
X124996568Y-57994933D01*
X125132862Y-57904820D01*
X125276809Y-57819404D01*
X125428235Y-57738799D01*
X125586967Y-57663117D01*
X125752831Y-57592474D01*
X125925654Y-57526983D01*
X126105263Y-57466759D01*
X126291485Y-57411915D01*
X126484146Y-57362565D01*
X126683072Y-57318823D01*
X126888092Y-57280804D01*
X126908560Y-57277381D01*
X127015878Y-57260388D01*
X127122232Y-57245182D01*
X127229300Y-57231585D01*
X127338754Y-57219419D01*
X127452272Y-57208505D01*
X127571528Y-57198666D01*
X127698198Y-57189724D01*
X127782320Y-57184485D01*
X127814053Y-57182986D01*
X127854725Y-57181680D01*
X127903114Y-57180569D01*
X127958000Y-57179650D01*
X128018164Y-57178926D01*
X128082384Y-57178394D01*
X128149440Y-57178057D01*
X128218112Y-57177913D01*
X128287179Y-57177962D01*
G37*
X127617220Y-59117230D02*
X127617485Y-59141906D01*
X127618633Y-59159402D01*
X127621190Y-59172688D01*
X127625683Y-59184737D01*
X127631115Y-59195655D01*
X127652058Y-59224978D01*
X127680573Y-59247639D01*
X127689409Y-59252555D01*
X127695070Y-59254026D01*
X127710337Y-59257616D01*
X127734894Y-59263255D01*
X127768426Y-59270874D01*
X127810618Y-59280401D01*
X127861154Y-59291767D01*
X127919719Y-59304901D01*
X127985997Y-59319733D01*
X128059673Y-59336193D01*
X128140432Y-59354212D01*
X128227958Y-59373718D01*
X128321936Y-59394641D01*
X128422050Y-59416912D01*
X128527985Y-59440460D01*
X128639426Y-59465215D01*
X128756056Y-59491107D01*
X128877562Y-59518065D01*
X129003626Y-59546020D01*
X129133935Y-59574901D01*
X129268172Y-59604638D01*
X129406022Y-59635162D01*
X129547170Y-59666401D01*
X129691300Y-59698285D01*
X129838096Y-59730745D01*
X129929689Y-59750991D01*
X130077968Y-59783763D01*
X130223776Y-59815989D01*
X130366797Y-59847600D01*
X130506715Y-59878526D01*
X130643215Y-59908697D01*
X130775982Y-59938044D01*
X130904700Y-59966496D01*
X131029055Y-59993984D01*
X131148729Y-60020439D01*
X131263409Y-60045790D01*
X131372779Y-60069968D01*
X131476522Y-60092903D01*
X131574325Y-60114525D01*
X131665871Y-60134765D01*
X131750845Y-60153553D01*
X131828931Y-60170819D01*
X131899815Y-60186493D01*
X131963180Y-60200506D01*
X132018712Y-60212788D01*
X132066094Y-60223270D01*
X132105012Y-60231880D01*
X132135150Y-60238551D01*
X132156193Y-60243211D01*
X132167825Y-60245792D01*
X132170170Y-60246316D01*
X132174781Y-60247796D01*
X132177949Y-60250808D01*
X132179944Y-60257022D01*
X132181036Y-60268107D01*
X132181498Y-60285735D01*
X132181599Y-60311575D01*
X132181600Y-60316782D01*
X132181600Y-60384570D01*
X132139690Y-60392774D01*
X132131376Y-60394395D01*
X132113482Y-60397877D01*
X132086402Y-60403145D01*
X132050527Y-60410121D01*
X132006253Y-60418731D01*
X131953971Y-60428896D01*
X131894075Y-60440541D01*
X131826958Y-60453589D01*
X131753014Y-60467964D01*
X131672636Y-60483589D01*
X131586217Y-60500388D01*
X131494150Y-60518284D01*
X131396828Y-60537201D01*
X131294646Y-60557063D01*
X131187995Y-60577793D01*
X131077269Y-60599315D01*
X130962862Y-60621552D01*
X130845167Y-60644427D01*
X130724577Y-60667865D01*
X130601485Y-60691789D01*
X130553596Y-60701097D01*
X130430128Y-60725097D01*
X130309246Y-60748605D01*
X130191330Y-60771544D01*
X130076759Y-60793841D01*
X129965914Y-60815421D01*
X129859174Y-60836211D01*
X129756920Y-60856137D01*
X129659532Y-60875123D01*
X129567389Y-60893096D01*
X129480872Y-60909982D01*
X129400360Y-60925706D01*
X129326234Y-60940195D01*
X129258873Y-60953373D01*
X129198658Y-60965168D01*
X129145968Y-60975504D01*
X129101183Y-60984307D01*
X129064684Y-60991504D01*
X129036851Y-60997020D01*
X129018062Y-61000780D01*
X129008700Y-61002712D01*
X129007663Y-61002963D01*
X129007053Y-61003105D01*
X129005875Y-61003145D01*
X129004475Y-61003134D01*
X129003199Y-61003127D01*
X129002393Y-61003178D01*
X129002403Y-61003338D01*
X129003574Y-61003663D01*
X129006253Y-61004205D01*
X129010785Y-61005018D01*
X129017515Y-61006155D01*
X129026791Y-61007669D01*
X129038957Y-61009614D01*
X129054359Y-61012044D01*
X129073344Y-61015011D01*
X129096257Y-61018569D01*
X129123444Y-61022771D01*
X129155250Y-61027671D01*
X129192022Y-61033322D01*
X129234105Y-61039778D01*
X129281846Y-61047092D01*
X129335589Y-61055317D01*
X129395681Y-61064507D01*
X129462468Y-61074716D01*
X129536295Y-61085995D01*
X129617509Y-61098400D01*
X129706454Y-61111982D01*
X129803478Y-61126797D01*
X129908925Y-61142896D01*
X130023141Y-61160334D01*
X130146473Y-61179164D01*
X130279267Y-61199439D01*
X130375660Y-61214157D01*
X130493816Y-61232199D01*
X130610998Y-61250093D01*
X130726688Y-61267760D01*
X130840368Y-61285121D01*
X130951522Y-61302098D01*
X131059632Y-61318610D01*
X131164182Y-61334579D01*
X131264654Y-61349927D01*
X131360531Y-61364573D01*
X131451296Y-61378440D01*
X131536432Y-61391447D01*
X131615421Y-61403517D01*
X131687748Y-61414570D01*
X131752893Y-61424526D01*
X131810342Y-61433308D01*
X131859575Y-61440836D01*
X131900077Y-61447031D01*
X131931330Y-61451814D01*
X131944110Y-61453771D01*
X132181600Y-61490159D01*
X132181600Y-61640329D01*
X132162550Y-61645389D01*
X132156372Y-61646869D01*
X132140617Y-61650579D01*
X132115601Y-61656446D01*
X132081642Y-61664394D01*
X132039057Y-61674350D01*
X131988164Y-61686239D01*
X131929280Y-61699989D01*
X131862723Y-61715525D01*
X131788810Y-61732772D01*
X131707858Y-61751657D01*
X131620185Y-61772106D01*
X131526109Y-61794045D01*
X131425946Y-61817399D01*
X131320014Y-61842096D01*
X131208631Y-61868060D01*
X131092113Y-61895218D01*
X130970779Y-61923495D01*
X130844946Y-61952818D01*
X130714931Y-61983113D01*
X130581052Y-62014306D01*
X130443625Y-62046322D01*
X130302969Y-62079088D01*
X130159401Y-62112529D01*
X130013238Y-62146573D01*
X129938780Y-62163914D01*
X129791367Y-62198248D01*
X129646363Y-62232027D01*
X129504086Y-62265177D01*
X129364855Y-62297623D01*
X129228988Y-62329290D01*
X129096805Y-62360104D01*
X128968623Y-62389992D01*
X128844761Y-62418877D01*
X128725539Y-62446687D01*
X128611274Y-62473346D01*
X128502286Y-62498781D01*
X128398893Y-62522916D01*
X128301413Y-62545678D01*
X128210166Y-62566991D01*
X128125470Y-62586783D01*
X128047643Y-62604977D01*
X127977005Y-62621500D01*
X127913874Y-62636278D01*
X127858569Y-62649235D01*
X127811408Y-62660299D01*
X127772710Y-62669393D01*
X127742794Y-62676444D01*
X127721978Y-62681378D01*
X127710582Y-62684119D01*
X127708523Y-62684642D01*
X127677939Y-62698473D01*
X127651348Y-62720843D01*
X127629669Y-62750610D01*
X127613820Y-62786630D01*
X127607566Y-62810396D01*
X127601094Y-62842140D01*
X127360680Y-62844864D01*
X127360680Y-61996320D01*
X127604409Y-61996320D01*
X127601216Y-62041306D01*
X127599911Y-62063962D01*
X127600153Y-62079970D01*
X127602395Y-62092780D01*
X127607093Y-62105847D01*
X127610817Y-62114240D01*
X127627867Y-62141510D01*
X127651243Y-62162031D01*
X127681508Y-62176088D01*
X127719222Y-62183967D01*
X127751840Y-62185983D01*
X127756798Y-62185939D01*
X127762574Y-62185625D01*
X127769532Y-62184957D01*
X127778038Y-62183853D01*
X127788458Y-62182232D01*
X127801157Y-62180009D01*
X127816500Y-62177104D01*
X127834853Y-62173434D01*
X127856582Y-62168915D01*
X127882052Y-62163466D01*
X127911629Y-62157005D01*
X127945678Y-62149448D01*
X127984564Y-62140714D01*
X128028654Y-62130720D01*
X128078313Y-62119383D01*
X128133906Y-62106621D01*
X128195799Y-62092352D01*
X128264358Y-62076493D01*
X128339947Y-62058962D01*
X128422933Y-62039677D01*
X128513681Y-62018554D01*
X128612556Y-61995511D01*
X128719925Y-61970467D01*
X128836152Y-61943338D01*
X128961604Y-61914042D01*
X129072640Y-61888105D01*
X129184496Y-61861968D01*
X129293806Y-61836413D01*
X129400153Y-61811539D01*
X129503122Y-61787444D01*
X129602296Y-61764224D01*
X129697258Y-61741978D01*
X129787594Y-61720804D01*
X129872886Y-61700800D01*
X129952718Y-61682062D01*
X130026675Y-61664689D01*
X130094341Y-61648778D01*
X130155298Y-61634428D01*
X130209131Y-61621736D01*
X130255425Y-61610799D01*
X130293762Y-61601716D01*
X130323726Y-61594585D01*
X130344902Y-61589502D01*
X130356873Y-61586566D01*
X130359527Y-61585852D01*
X130355356Y-61584760D01*
X130341430Y-61582168D01*
X130318033Y-61578122D01*
X130285453Y-61572668D01*
X130243976Y-61565850D01*
X130193888Y-61557713D01*
X130135474Y-61548304D01*
X130069022Y-61537667D01*
X129994816Y-61525847D01*
X129913144Y-61512891D01*
X129824292Y-61498843D01*
X129728545Y-61483748D01*
X129626190Y-61467652D01*
X129517512Y-61450600D01*
X129402799Y-61432637D01*
X129282336Y-61413809D01*
X129156409Y-61394161D01*
X129025304Y-61373739D01*
X128889308Y-61352586D01*
X128748706Y-61330750D01*
X128703447Y-61323727D01*
X128574444Y-61303714D01*
X128447882Y-61284077D01*
X128324138Y-61264874D01*
X128203590Y-61246165D01*
X128086615Y-61228008D01*
X127973593Y-61210462D01*
X127864899Y-61193585D01*
X127760912Y-61177436D01*
X127662009Y-61162075D01*
X127568569Y-61147558D01*
X127480968Y-61133946D01*
X127399585Y-61121297D01*
X127324797Y-61109670D01*
X127256982Y-61099122D01*
X127196518Y-61089714D01*
X127143781Y-61081503D01*
X127099150Y-61074549D01*
X127063003Y-61068910D01*
X127035717Y-61064644D01*
X127017670Y-61061811D01*
X127009240Y-61060469D01*
X127008890Y-61060410D01*
X126979680Y-61055435D01*
X126979680Y-60995360D01*
X126979841Y-60969503D01*
X126980488Y-60952067D01*
X126981868Y-60941317D01*
X126984227Y-60935519D01*
X126987810Y-60932936D01*
X126988570Y-60932688D01*
X126994166Y-60931463D01*
X127009346Y-60928239D01*
X127033744Y-60923091D01*
X127066999Y-60916096D01*
X127108746Y-60907330D01*
X127158623Y-60896868D01*
X127216267Y-60884787D01*
X127281314Y-60871162D01*
X127353400Y-60856070D01*
X127432164Y-60839587D01*
X127517240Y-60821788D01*
X127608267Y-60802749D01*
X127704881Y-60782548D01*
X127806719Y-60761258D01*
X127913417Y-60738957D01*
X128024613Y-60715721D01*
X128139942Y-60691625D01*
X128259043Y-60666745D01*
X128381551Y-60641158D01*
X128507103Y-60614939D01*
X128635336Y-60588165D01*
X128691640Y-60576411D01*
X128820994Y-60549404D01*
X128947858Y-60522913D01*
X129071867Y-60497015D01*
X129192656Y-60471784D01*
X129309860Y-60447298D01*
X129423114Y-60423633D01*
X129532053Y-60400866D01*
X129636311Y-60379073D01*
X129735524Y-60358329D01*
X129829327Y-60338712D01*
X129917354Y-60320298D01*
X129999241Y-60303164D01*
X130074622Y-60287385D01*
X130143133Y-60273037D01*
X130204408Y-60260199D01*
X130258083Y-60248945D01*
X130303792Y-60239352D01*
X130341170Y-60231496D01*
X130369853Y-60225455D01*
X130389475Y-60221303D01*
X130399671Y-60219118D01*
X130401060Y-60218804D01*
X130409405Y-60216391D01*
X130410620Y-60214501D01*
X130403715Y-60212208D01*
X130390900Y-60209290D01*
X130383781Y-60207670D01*
X130367185Y-60203860D01*
X130341532Y-60197958D01*
X130307243Y-60190060D01*
X130264740Y-60180264D01*
X130214445Y-60168668D01*
X130156777Y-60155367D01*
X130092160Y-60140460D01*
X130021013Y-60124044D01*
X129943758Y-60106215D01*
X129860816Y-60087072D01*
X129772609Y-60066711D01*
X129679558Y-60045230D01*
X129582084Y-60022725D01*
X129480609Y-59999294D01*
X129375553Y-59975035D01*
X129267338Y-59950044D01*
X129156385Y-59924418D01*
X129075180Y-59905662D01*
X128939185Y-59874249D01*
X128812732Y-59845042D01*
X128695458Y-59817965D01*
X128587005Y-59792943D01*
X128487012Y-59769900D01*
X128395119Y-59748759D01*
X128310966Y-59729445D01*
X128234193Y-59711882D01*
X128164440Y-59695994D01*
X128101347Y-59681706D01*
X128044553Y-59668940D01*
X127993700Y-59657622D01*
X127948426Y-59647676D01*
X127908371Y-59639026D01*
X127873177Y-59631595D01*
X127842482Y-59625308D01*
X127815926Y-59620089D01*
X127793150Y-59615863D01*
X127773793Y-59612552D01*
X127757495Y-59610082D01*
X127743897Y-59608377D01*
X127732638Y-59607360D01*
X127723357Y-59606957D01*
X127715697Y-59607090D01*
X127709295Y-59607684D01*
X127703792Y-59608663D01*
X127698828Y-59609951D01*
X127694042Y-59611473D01*
X127689076Y-59613153D01*
X127688340Y-59613398D01*
X127657657Y-59628359D01*
X127634180Y-59650445D01*
X127617972Y-59679551D01*
X127609098Y-59715576D01*
X127607288Y-59743340D01*
X127607678Y-59766102D01*
X127608919Y-59787978D01*
X127610751Y-59804529D01*
X127610930Y-59805570D01*
X127614800Y-59827160D01*
X127360680Y-59827160D01*
X127360680Y-59065160D01*
X127488950Y-59065160D01*
X127617220Y-59065159D01*
X127617220Y-59117230D01*
G36*
X127617220Y-59117230D02*
G01*
X127617485Y-59141906D01*
X127618633Y-59159402D01*
X127621190Y-59172688D01*
X127625683Y-59184737D01*
X127631115Y-59195655D01*
X127652058Y-59224978D01*
X127680573Y-59247639D01*
X127689409Y-59252555D01*
X127695070Y-59254026D01*
X127710337Y-59257616D01*
X127734894Y-59263255D01*
X127768426Y-59270874D01*
X127810618Y-59280401D01*
X127861154Y-59291767D01*
X127919719Y-59304901D01*
X127985997Y-59319733D01*
X128059673Y-59336193D01*
X128140432Y-59354212D01*
X128227958Y-59373718D01*
X128321936Y-59394641D01*
X128422050Y-59416912D01*
X128527985Y-59440460D01*
X128639426Y-59465215D01*
X128756056Y-59491107D01*
X128877562Y-59518065D01*
X129003626Y-59546020D01*
X129133935Y-59574901D01*
X129268172Y-59604638D01*
X129406022Y-59635162D01*
X129547170Y-59666401D01*
X129691300Y-59698285D01*
X129838096Y-59730745D01*
X129929689Y-59750991D01*
X130077968Y-59783763D01*
X130223776Y-59815989D01*
X130366797Y-59847600D01*
X130506715Y-59878526D01*
X130643215Y-59908697D01*
X130775982Y-59938044D01*
X130904700Y-59966496D01*
X131029055Y-59993984D01*
X131148729Y-60020439D01*
X131263409Y-60045790D01*
X131372779Y-60069968D01*
X131476522Y-60092903D01*
X131574325Y-60114525D01*
X131665871Y-60134765D01*
X131750845Y-60153553D01*
X131828931Y-60170819D01*
X131899815Y-60186493D01*
X131963180Y-60200506D01*
X132018712Y-60212788D01*
X132066094Y-60223270D01*
X132105012Y-60231880D01*
X132135150Y-60238551D01*
X132156193Y-60243211D01*
X132167825Y-60245792D01*
X132170170Y-60246316D01*
X132174781Y-60247796D01*
X132177949Y-60250808D01*
X132179944Y-60257022D01*
X132181036Y-60268107D01*
X132181498Y-60285735D01*
X132181599Y-60311575D01*
X132181600Y-60316782D01*
X132181600Y-60384570D01*
X132139690Y-60392774D01*
X132131376Y-60394395D01*
X132113482Y-60397877D01*
X132086402Y-60403145D01*
X132050527Y-60410121D01*
X132006253Y-60418731D01*
X131953971Y-60428896D01*
X131894075Y-60440541D01*
X131826958Y-60453589D01*
X131753014Y-60467964D01*
X131672636Y-60483589D01*
X131586217Y-60500388D01*
X131494150Y-60518284D01*
X131396828Y-60537201D01*
X131294646Y-60557063D01*
X131187995Y-60577793D01*
X131077269Y-60599315D01*
X130962862Y-60621552D01*
X130845167Y-60644427D01*
X130724577Y-60667865D01*
X130601485Y-60691789D01*
X130553596Y-60701097D01*
X130430128Y-60725097D01*
X130309246Y-60748605D01*
X130191330Y-60771544D01*
X130076759Y-60793841D01*
X129965914Y-60815421D01*
X129859174Y-60836211D01*
X129756920Y-60856137D01*
X129659532Y-60875123D01*
X129567389Y-60893096D01*
X129480872Y-60909982D01*
X129400360Y-60925706D01*
X129326234Y-60940195D01*
X129258873Y-60953373D01*
X129198658Y-60965168D01*
X129145968Y-60975504D01*
X129101183Y-60984307D01*
X129064684Y-60991504D01*
X129036851Y-60997020D01*
X129018062Y-61000780D01*
X129008700Y-61002712D01*
X129007663Y-61002963D01*
X129007053Y-61003105D01*
X129005875Y-61003145D01*
X129004475Y-61003134D01*
X129003199Y-61003127D01*
X129002393Y-61003178D01*
X129002403Y-61003338D01*
X129003574Y-61003663D01*
X129006253Y-61004205D01*
X129010785Y-61005018D01*
X129017515Y-61006155D01*
X129026791Y-61007669D01*
X129038957Y-61009614D01*
X129054359Y-61012044D01*
X129073344Y-61015011D01*
X129096257Y-61018569D01*
X129123444Y-61022771D01*
X129155250Y-61027671D01*
X129192022Y-61033322D01*
X129234105Y-61039778D01*
X129281846Y-61047092D01*
X129335589Y-61055317D01*
X129395681Y-61064507D01*
X129462468Y-61074716D01*
X129536295Y-61085995D01*
X129617509Y-61098400D01*
X129706454Y-61111982D01*
X129803478Y-61126797D01*
X129908925Y-61142896D01*
X130023141Y-61160334D01*
X130146473Y-61179164D01*
X130279267Y-61199439D01*
X130375660Y-61214157D01*
X130493816Y-61232199D01*
X130610998Y-61250093D01*
X130726688Y-61267760D01*
X130840368Y-61285121D01*
X130951522Y-61302098D01*
X131059632Y-61318610D01*
X131164182Y-61334579D01*
X131264654Y-61349927D01*
X131360531Y-61364573D01*
X131451296Y-61378440D01*
X131536432Y-61391447D01*
X131615421Y-61403517D01*
X131687748Y-61414570D01*
X131752893Y-61424526D01*
X131810342Y-61433308D01*
X131859575Y-61440836D01*
X131900077Y-61447031D01*
X131931330Y-61451814D01*
X131944110Y-61453771D01*
X132181600Y-61490159D01*
X132181600Y-61640329D01*
X132162550Y-61645389D01*
X132156372Y-61646869D01*
X132140617Y-61650579D01*
X132115601Y-61656446D01*
X132081642Y-61664394D01*
X132039057Y-61674350D01*
X131988164Y-61686239D01*
X131929280Y-61699989D01*
X131862723Y-61715525D01*
X131788810Y-61732772D01*
X131707858Y-61751657D01*
X131620185Y-61772106D01*
X131526109Y-61794045D01*
X131425946Y-61817399D01*
X131320014Y-61842096D01*
X131208631Y-61868060D01*
X131092113Y-61895218D01*
X130970779Y-61923495D01*
X130844946Y-61952818D01*
X130714931Y-61983113D01*
X130581052Y-62014306D01*
X130443625Y-62046322D01*
X130302969Y-62079088D01*
X130159401Y-62112529D01*
X130013238Y-62146573D01*
X129938780Y-62163914D01*
X129791367Y-62198248D01*
X129646363Y-62232027D01*
X129504086Y-62265177D01*
X129364855Y-62297623D01*
X129228988Y-62329290D01*
X129096805Y-62360104D01*
X128968623Y-62389992D01*
X128844761Y-62418877D01*
X128725539Y-62446687D01*
X128611274Y-62473346D01*
X128502286Y-62498781D01*
X128398893Y-62522916D01*
X128301413Y-62545678D01*
X128210166Y-62566991D01*
X128125470Y-62586783D01*
X128047643Y-62604977D01*
X127977005Y-62621500D01*
X127913874Y-62636278D01*
X127858569Y-62649235D01*
X127811408Y-62660299D01*
X127772710Y-62669393D01*
X127742794Y-62676444D01*
X127721978Y-62681378D01*
X127710582Y-62684119D01*
X127708523Y-62684642D01*
X127677939Y-62698473D01*
X127651348Y-62720843D01*
X127629669Y-62750610D01*
X127613820Y-62786630D01*
X127607566Y-62810396D01*
X127601094Y-62842140D01*
X127360680Y-62844864D01*
X127360680Y-61996320D01*
X127604409Y-61996320D01*
X127601216Y-62041306D01*
X127599911Y-62063962D01*
X127600153Y-62079970D01*
X127602395Y-62092780D01*
X127607093Y-62105847D01*
X127610817Y-62114240D01*
X127627867Y-62141510D01*
X127651243Y-62162031D01*
X127681508Y-62176088D01*
X127719222Y-62183967D01*
X127751840Y-62185983D01*
X127756798Y-62185939D01*
X127762574Y-62185625D01*
X127769532Y-62184957D01*
X127778038Y-62183853D01*
X127788458Y-62182232D01*
X127801157Y-62180009D01*
X127816500Y-62177104D01*
X127834853Y-62173434D01*
X127856582Y-62168915D01*
X127882052Y-62163466D01*
X127911629Y-62157005D01*
X127945678Y-62149448D01*
X127984564Y-62140714D01*
X128028654Y-62130720D01*
X128078313Y-62119383D01*
X128133906Y-62106621D01*
X128195799Y-62092352D01*
X128264358Y-62076493D01*
X128339947Y-62058962D01*
X128422933Y-62039677D01*
X128513681Y-62018554D01*
X128612556Y-61995511D01*
X128719925Y-61970467D01*
X128836152Y-61943338D01*
X128961604Y-61914042D01*
X129072640Y-61888105D01*
X129184496Y-61861968D01*
X129293806Y-61836413D01*
X129400153Y-61811539D01*
X129503122Y-61787444D01*
X129602296Y-61764224D01*
X129697258Y-61741978D01*
X129787594Y-61720804D01*
X129872886Y-61700800D01*
X129952718Y-61682062D01*
X130026675Y-61664689D01*
X130094341Y-61648778D01*
X130155298Y-61634428D01*
X130209131Y-61621736D01*
X130255425Y-61610799D01*
X130293762Y-61601716D01*
X130323726Y-61594585D01*
X130344902Y-61589502D01*
X130356873Y-61586566D01*
X130359527Y-61585852D01*
X130355356Y-61584760D01*
X130341430Y-61582168D01*
X130318033Y-61578122D01*
X130285453Y-61572668D01*
X130243976Y-61565850D01*
X130193888Y-61557713D01*
X130135474Y-61548304D01*
X130069022Y-61537667D01*
X129994816Y-61525847D01*
X129913144Y-61512891D01*
X129824292Y-61498843D01*
X129728545Y-61483748D01*
X129626190Y-61467652D01*
X129517512Y-61450600D01*
X129402799Y-61432637D01*
X129282336Y-61413809D01*
X129156409Y-61394161D01*
X129025304Y-61373739D01*
X128889308Y-61352586D01*
X128748706Y-61330750D01*
X128703447Y-61323727D01*
X128574444Y-61303714D01*
X128447882Y-61284077D01*
X128324138Y-61264874D01*
X128203590Y-61246165D01*
X128086615Y-61228008D01*
X127973593Y-61210462D01*
X127864899Y-61193585D01*
X127760912Y-61177436D01*
X127662009Y-61162075D01*
X127568569Y-61147558D01*
X127480968Y-61133946D01*
X127399585Y-61121297D01*
X127324797Y-61109670D01*
X127256982Y-61099122D01*
X127196518Y-61089714D01*
X127143781Y-61081503D01*
X127099150Y-61074549D01*
X127063003Y-61068910D01*
X127035717Y-61064644D01*
X127017670Y-61061811D01*
X127009240Y-61060469D01*
X127008890Y-61060410D01*
X126979680Y-61055435D01*
X126979680Y-60995360D01*
X126979841Y-60969503D01*
X126980488Y-60952067D01*
X126981868Y-60941317D01*
X126984227Y-60935519D01*
X126987810Y-60932936D01*
X126988570Y-60932688D01*
X126994166Y-60931463D01*
X127009346Y-60928239D01*
X127033744Y-60923091D01*
X127066999Y-60916096D01*
X127108746Y-60907330D01*
X127158623Y-60896868D01*
X127216267Y-60884787D01*
X127281314Y-60871162D01*
X127353400Y-60856070D01*
X127432164Y-60839587D01*
X127517240Y-60821788D01*
X127608267Y-60802749D01*
X127704881Y-60782548D01*
X127806719Y-60761258D01*
X127913417Y-60738957D01*
X128024613Y-60715721D01*
X128139942Y-60691625D01*
X128259043Y-60666745D01*
X128381551Y-60641158D01*
X128507103Y-60614939D01*
X128635336Y-60588165D01*
X128691640Y-60576411D01*
X128820994Y-60549404D01*
X128947858Y-60522913D01*
X129071867Y-60497015D01*
X129192656Y-60471784D01*
X129309860Y-60447298D01*
X129423114Y-60423633D01*
X129532053Y-60400866D01*
X129636311Y-60379073D01*
X129735524Y-60358329D01*
X129829327Y-60338712D01*
X129917354Y-60320298D01*
X129999241Y-60303164D01*
X130074622Y-60287385D01*
X130143133Y-60273037D01*
X130204408Y-60260199D01*
X130258083Y-60248945D01*
X130303792Y-60239352D01*
X130341170Y-60231496D01*
X130369853Y-60225455D01*
X130389475Y-60221303D01*
X130399671Y-60219118D01*
X130401060Y-60218804D01*
X130409405Y-60216391D01*
X130410620Y-60214501D01*
X130403715Y-60212208D01*
X130390900Y-60209290D01*
X130383781Y-60207670D01*
X130367185Y-60203860D01*
X130341532Y-60197958D01*
X130307243Y-60190060D01*
X130264740Y-60180264D01*
X130214445Y-60168668D01*
X130156777Y-60155367D01*
X130092160Y-60140460D01*
X130021013Y-60124044D01*
X129943758Y-60106215D01*
X129860816Y-60087072D01*
X129772609Y-60066711D01*
X129679558Y-60045230D01*
X129582084Y-60022725D01*
X129480609Y-59999294D01*
X129375553Y-59975035D01*
X129267338Y-59950044D01*
X129156385Y-59924418D01*
X129075180Y-59905662D01*
X128939185Y-59874249D01*
X128812732Y-59845042D01*
X128695458Y-59817965D01*
X128587005Y-59792943D01*
X128487012Y-59769900D01*
X128395119Y-59748759D01*
X128310966Y-59729445D01*
X128234193Y-59711882D01*
X128164440Y-59695994D01*
X128101347Y-59681706D01*
X128044553Y-59668940D01*
X127993700Y-59657622D01*
X127948426Y-59647676D01*
X127908371Y-59639026D01*
X127873177Y-59631595D01*
X127842482Y-59625308D01*
X127815926Y-59620089D01*
X127793150Y-59615863D01*
X127773793Y-59612552D01*
X127757495Y-59610082D01*
X127743897Y-59608377D01*
X127732638Y-59607360D01*
X127723357Y-59606957D01*
X127715697Y-59607090D01*
X127709295Y-59607684D01*
X127703792Y-59608663D01*
X127698828Y-59609951D01*
X127694042Y-59611473D01*
X127689076Y-59613153D01*
X127688340Y-59613398D01*
X127657657Y-59628359D01*
X127634180Y-59650445D01*
X127617972Y-59679551D01*
X127609098Y-59715576D01*
X127607288Y-59743340D01*
X127607678Y-59766102D01*
X127608919Y-59787978D01*
X127610751Y-59804529D01*
X127610930Y-59805570D01*
X127614800Y-59827160D01*
X127360680Y-59827160D01*
X127360680Y-59065160D01*
X127488950Y-59065160D01*
X127617220Y-59065159D01*
X127617220Y-59117230D01*
G37*
D11*
%TO.C,J4*%
X129000000Y-69450000D02*
X125000000Y-69450000D01*
X130030000Y-69740000D02*
X124010000Y-69740000D01*
X124010000Y-69740000D02*
X124010000Y-75040000D01*
X130030000Y-70320000D02*
X129430000Y-70320000D01*
X129430000Y-70320000D02*
X129430000Y-71920000D01*
X125010000Y-71120000D02*
X125540000Y-71370000D01*
X125010000Y-71120000D02*
X125010000Y-73660000D01*
X124010000Y-71120000D02*
X125010000Y-71120000D01*
X125540000Y-71370000D02*
X125540000Y-73410000D01*
X124010000Y-71370000D02*
X125010000Y-71370000D01*
X129430000Y-71920000D02*
X130030000Y-71920000D01*
X130030000Y-72860000D02*
X129430000Y-72860000D01*
X129430000Y-72860000D02*
X129430000Y-74460000D01*
X125540000Y-73410000D02*
X125010000Y-73660000D01*
X124010000Y-73410000D02*
X125010000Y-73410000D01*
X125010000Y-73660000D02*
X124010000Y-73660000D01*
X129430000Y-74460000D02*
X130030000Y-74460000D01*
X130030000Y-75040000D02*
X130030000Y-69740000D01*
X124010000Y-75040000D02*
X130030000Y-75040000D01*
%TO.C,J3*%
X129000000Y-46590000D02*
X125000000Y-46590000D01*
X130030000Y-46880000D02*
X124010000Y-46880000D01*
X124010000Y-46880000D02*
X124010000Y-52180000D01*
X130030000Y-47460000D02*
X129430000Y-47460000D01*
X129430000Y-47460000D02*
X129430000Y-49060000D01*
X125010000Y-48260000D02*
X125540000Y-48510000D01*
X125010000Y-48260000D02*
X125010000Y-50800000D01*
X124010000Y-48260000D02*
X125010000Y-48260000D01*
X125540000Y-48510000D02*
X125540000Y-50550000D01*
X124010000Y-48510000D02*
X125010000Y-48510000D01*
X129430000Y-49060000D02*
X130030000Y-49060000D01*
X130030000Y-50000000D02*
X129430000Y-50000000D01*
X129430000Y-50000000D02*
X129430000Y-51600000D01*
X125540000Y-50550000D02*
X125010000Y-50800000D01*
X124010000Y-50550000D02*
X125010000Y-50550000D01*
X125010000Y-50800000D02*
X124010000Y-50800000D01*
X129430000Y-51600000D02*
X130030000Y-51600000D01*
X130030000Y-52180000D02*
X130030000Y-46880000D01*
X124010000Y-52180000D02*
X130030000Y-52180000D01*
%TD*%
M02*
